<svg width="174" height="44" viewBox="0 0 174 44" fill="none" xmlns="http://www.w3.org/2000/svg">
<path d="M72.8722 7.00296L73.196 10.1167L75.7994 11.9007L72.6475 12.2206L70.8417 14.7926L70.5179 11.6789L67.9145 9.89483L71.0663 9.57494L72.8722 7.00296Z" fill="white"/>
<path d="M71.6446 17.0366L72.2233 18.5817L73.7873 19.1534L72.2233 19.7251L71.6446 21.2702L71.0659 19.7251L69.502 19.1534L71.0659 18.5817L71.6446 17.0366Z" fill="white"/>
<path d="M68.2169 13.6499L68.7956 15.195L70.3596 15.7667L68.7956 16.3384L68.2169 17.8835L67.6382 16.3384L66.0742 15.7667L67.6382 15.195L68.2169 13.6499Z" fill="white"/>
<mask id="path-4-inside-1_62_4825" fill="white">
<path fill-rule="evenodd" clip-rule="evenodd" d="M64.6156 29.9656C68.1613 29.7538 71.4991 27.7313 73.2026 24.3672C74.9059 21.0037 74.5432 17.1528 72.5894 14.2228C74.3332 14.1187 76.1273 14.4525 77.802 15.2802C82.8819 17.7908 84.9399 23.8945 82.3985 28.913C79.8572 33.9316 73.6789 35.9647 68.5989 33.454C66.9236 32.626 65.577 31.4073 64.6156 29.9656Z"/>
</mask>
<path d="M64.6156 29.9656L64.5067 27.977L61.0147 28.1855L62.9392 31.0716L64.6156 29.9656ZM72.5894 14.2228L72.4805 12.2342L68.9885 12.4427L70.913 15.3288L72.5894 14.2228ZM71.4097 23.481C70.045 26.1759 67.3689 27.8061 64.5067 27.977L64.7246 31.9542C68.9538 31.7016 72.9532 29.2866 74.9956 25.2533L71.4097 23.481ZM70.913 15.3288C72.4902 17.694 72.7741 20.7866 71.4097 23.481L74.9956 25.2533C77.0377 21.2207 76.5962 16.6116 74.2658 13.1168L70.913 15.3288ZM72.6984 16.2114C74.1007 16.1276 75.5447 16.3954 76.8985 17.0645L78.7055 13.4959C76.7099 12.5097 74.5657 12.1097 72.4805 12.2342L72.6984 16.2114ZM76.8985 17.0645C81.0005 19.0918 82.6417 24.006 80.6056 28.0269L84.1915 29.7992C87.2381 23.7829 84.7634 16.4899 78.7055 13.4959L76.8985 17.0645ZM80.6056 28.0269C78.5694 32.0478 73.6045 33.6971 69.5025 31.6697L67.6954 35.2383C73.7532 38.2322 81.1449 35.8154 84.1915 29.7992L80.6056 28.0269ZM69.5025 31.6697C68.1482 31.0004 67.0651 30.0189 66.292 28.8595L62.9392 31.0716C64.0889 32.7957 65.6991 34.2517 67.6954 35.2383L69.5025 31.6697Z" fill="white" mask="url(#path-4-inside-1_62_4825)"/>
<path d="M4.128 33.256C3.488 33.256 2.99733 33.0853 2.656 32.744C2.31467 32.3813 2.144 31.8693 2.144 31.208V19.112C2.144 18.4507 2.31467 17.9493 2.656 17.608C2.99733 17.2667 3.47733 17.096 4.096 17.096C4.71467 17.096 5.19467 17.2667 5.536 17.608C5.87733 17.9493 6.048 18.4507 6.048 19.112V21.448L5.696 20.488C6.12267 19.4213 6.784 18.5787 7.68 17.96C8.576 17.3413 9.64267 17.032 10.88 17.032C12.1387 17.032 13.1733 17.3307 13.984 17.928C14.7947 18.5253 15.36 19.4427 15.68 20.68H15.232C15.6587 19.5493 16.3627 18.664 17.344 18.024C18.3253 17.3627 19.456 17.032 20.736 17.032C21.9307 17.032 22.912 17.2667 23.68 17.736C24.4693 18.2053 25.056 18.92 25.44 19.88C25.824 20.8187 26.016 22.0133 26.016 23.464V31.208C26.016 31.8693 25.8347 32.3813 25.472 32.744C25.1307 33.0853 24.64 33.256 24 33.256C23.36 33.256 22.8693 33.0853 22.528 32.744C22.1867 32.3813 22.016 31.8693 22.016 31.208V23.624C22.016 22.4293 21.8133 21.5547 21.408 21C21.024 20.4453 20.3627 20.168 19.424 20.168C18.3787 20.168 17.5573 20.5413 16.96 21.288C16.3627 22.0133 16.064 23.0267 16.064 24.328V31.208C16.064 31.8693 15.8933 32.3813 15.552 32.744C15.2107 33.0853 14.72 33.256 14.08 33.256C13.44 33.256 12.9387 33.0853 12.576 32.744C12.2347 32.3813 12.064 31.8693 12.064 31.208V23.624C12.064 22.4293 11.8613 21.5547 11.456 21C11.072 20.4453 10.4213 20.168 9.504 20.168C8.45867 20.168 7.63733 20.5413 7.04 21.288C6.44267 22.0133 6.144 23.0267 6.144 24.328V31.208C6.144 32.5733 5.472 33.256 4.128 33.256ZM35.2945 33.32C34.1638 33.32 33.1505 33.1067 32.2545 32.68C31.3798 32.232 30.6865 31.6347 30.1745 30.888C29.6838 30.1413 29.4385 29.2987 29.4385 28.36C29.4385 27.208 29.7372 26.3013 30.3345 25.64C30.9318 24.9573 31.9025 24.4667 33.2465 24.168C34.5905 23.8693 36.3932 23.72 38.6545 23.72H40.2545V26.024H38.6865C37.3638 26.024 36.3078 26.088 35.5185 26.216C34.7292 26.344 34.1638 26.568 33.8225 26.888C33.5025 27.1867 33.3425 27.6133 33.3425 28.168C33.3425 28.872 33.5878 29.448 34.0785 29.896C34.5692 30.344 35.2518 30.568 36.1265 30.568C36.8305 30.568 37.4492 30.408 37.9825 30.088C38.5372 29.7467 38.9745 29.288 39.2945 28.712C39.6145 28.136 39.7745 27.4747 39.7745 26.728V23.048C39.7745 21.9813 39.5398 21.2133 39.0705 20.744C38.6012 20.2747 37.8118 20.04 36.7025 20.04C36.0838 20.04 35.4118 20.1147 34.6865 20.264C33.9825 20.4133 33.2358 20.6693 32.4465 21.032C32.0412 21.224 31.6785 21.2773 31.3585 21.192C31.0598 21.1067 30.8252 20.936 30.6545 20.68C30.4838 20.4027 30.3985 20.104 30.3985 19.784C30.3985 19.464 30.4838 19.1547 30.6545 18.856C30.8252 18.536 31.1132 18.3013 31.5185 18.152C32.4998 17.7467 33.4385 17.4587 34.3345 17.288C35.2518 17.1173 36.0838 17.032 36.8305 17.032C38.3665 17.032 39.6252 17.2667 40.6065 17.736C41.6092 18.2053 42.3558 18.92 42.8465 19.88C43.3372 20.8187 43.5825 22.0347 43.5825 23.528V31.208C43.5825 31.8693 43.4225 32.3813 43.1025 32.744C42.7825 33.0853 42.3238 33.256 41.7265 33.256C41.1292 33.256 40.6598 33.0853 40.3185 32.744C39.9985 32.3813 39.8385 31.8693 39.8385 31.208V29.672H40.0945C39.9452 30.4187 39.6465 31.0693 39.1985 31.624C38.7718 32.1573 38.2278 32.5733 37.5665 32.872C36.9052 33.1707 36.1478 33.32 35.2945 33.32ZM54.9385 39.08C53.7865 39.08 52.6665 38.9733 51.5785 38.76C50.5118 38.5467 49.5412 38.216 48.6665 37.768C48.2612 37.5547 47.9838 37.2987 47.8345 37C47.7065 36.7013 47.6638 36.392 47.7065 36.072C47.7705 35.7733 47.8985 35.5067 48.0905 35.272C48.3038 35.0373 48.5598 34.8773 48.8585 34.792C49.1572 34.7067 49.4665 34.7493 49.7865 34.92C50.7252 35.3893 51.6105 35.688 52.4425 35.816C53.2958 35.9653 54.0212 36.04 54.6185 36.04C56.0478 36.04 57.1145 35.688 57.8185 34.984C58.5438 34.3013 58.9065 33.2773 58.9065 31.912V29.032H59.1945C58.8745 30.12 58.2025 30.9947 57.1785 31.656C56.1758 32.296 55.0345 32.616 53.7545 32.616C52.3465 32.616 51.1198 32.296 50.0745 31.656C49.0292 30.9947 48.2185 30.0773 47.6425 28.904C47.0665 27.7307 46.7785 26.3653 46.7785 24.808C46.7785 23.6347 46.9385 22.5787 47.2585 21.64C47.5998 20.68 48.0692 19.8587 48.6665 19.176C49.2852 18.4933 50.0212 17.9707 50.8745 17.608C51.7492 17.224 52.7092 17.032 53.7545 17.032C55.0772 17.032 56.2292 17.3627 57.2105 18.024C58.2132 18.664 58.8638 19.5173 59.1625 20.584L58.8425 21.384V19.112C58.8425 18.4507 59.0132 17.9493 59.3545 17.608C59.7172 17.2667 60.2078 17.096 60.8265 17.096C61.4665 17.096 61.9572 17.2667 62.2985 17.608C62.6398 17.9493 62.8105 18.4507 62.8105 19.112V31.432C62.8105 33.9707 62.1385 35.88 60.7945 37.16C59.4505 38.44 57.4985 39.08 54.9385 39.08ZM54.8425 29.576C55.6745 29.576 56.3892 29.384 56.9865 29C57.5838 28.616 58.0425 28.072 58.3625 27.368C58.7038 26.6427 58.8745 25.7893 58.8745 24.808C58.8745 23.336 58.5118 22.184 57.7865 21.352C57.0612 20.4987 56.0798 20.072 54.8425 20.072C54.0105 20.072 53.2958 20.264 52.6985 20.648C52.1012 21.032 51.6318 21.576 51.2905 22.28C50.9705 22.984 50.8105 23.8267 50.8105 24.808C50.8105 26.28 51.1732 27.4427 51.8985 28.296C52.6238 29.1493 53.6052 29.576 54.8425 29.576ZM93.482 33.32C91.8393 33.32 90.41 32.9893 89.194 32.328C87.978 31.6453 87.0393 30.6853 86.378 29.448C85.7167 28.2107 85.386 26.76 85.386 25.096C85.386 23.8373 85.5673 22.7173 85.93 21.736C86.314 20.7333 86.858 19.8907 87.562 19.208C88.266 18.504 89.1193 17.9707 90.122 17.608C91.1247 17.224 92.2447 17.032 93.482 17.032C94.186 17.032 94.9433 17.128 95.754 17.32C96.586 17.512 97.3647 17.832 98.09 18.28C98.4313 18.4933 98.6553 18.7493 98.762 19.048C98.8687 19.3467 98.89 19.656 98.826 19.976C98.762 20.2747 98.6233 20.5413 98.41 20.776C98.218 20.9893 97.9727 21.128 97.674 21.192C97.3753 21.2347 97.0447 21.16 96.682 20.968C96.2127 20.6907 95.7327 20.488 95.242 20.36C94.7513 20.2107 94.282 20.136 93.834 20.136C93.13 20.136 92.5113 20.2533 91.978 20.488C91.4447 20.7013 90.986 21.0213 90.602 21.448C90.2393 21.8533 89.962 22.3653 89.77 22.984C89.578 23.6027 89.482 24.3173 89.482 25.128C89.482 26.7067 89.8553 27.9547 90.602 28.872C91.37 29.768 92.4473 30.216 93.834 30.216C94.282 30.216 94.7407 30.152 95.21 30.024C95.7007 29.896 96.1913 29.6933 96.682 29.416C97.0447 29.224 97.3647 29.16 97.642 29.224C97.9407 29.288 98.186 29.4373 98.378 29.672C98.57 29.8853 98.6873 30.152 98.73 30.472C98.7727 30.7707 98.73 31.0693 98.602 31.368C98.4953 31.6667 98.282 31.912 97.962 32.104C97.258 32.5307 96.5113 32.84 95.722 33.032C94.9327 33.224 94.186 33.32 93.482 33.32ZM111.328 33.32C110.005 33.32 108.842 32.9893 107.84 32.328C106.858 31.6667 106.208 30.7813 105.888 29.672L106.24 28.872V31.208C106.24 31.8693 106.069 32.3813 105.728 32.744C105.386 33.0853 104.906 33.256 104.288 33.256C103.648 33.256 103.157 33.0853 102.816 32.744C102.474 32.3813 102.304 31.8693 102.304 31.208V12.2C102.304 11.5387 102.474 11.0373 102.816 10.696C103.157 10.3547 103.648 10.184 104.288 10.184C104.928 10.184 105.418 10.3547 105.76 10.696C106.122 11.0373 106.304 11.5387 106.304 12.2V20.52H105.92C106.261 19.4747 106.922 18.632 107.904 17.992C108.885 17.352 110.026 17.032 111.328 17.032C112.714 17.032 113.92 17.3627 114.944 18.024C115.968 18.6853 116.768 19.624 117.344 20.84C117.92 22.0347 118.208 23.4747 118.208 25.16C118.208 26.824 117.92 28.2747 117.344 29.512C116.768 30.728 115.957 31.6667 114.912 32.328C113.888 32.9893 112.693 33.32 111.328 33.32ZM110.208 30.28C110.997 30.28 111.69 30.088 112.288 29.704C112.885 29.32 113.344 28.7547 113.664 28.008C114.005 27.24 114.176 26.2907 114.176 25.16C114.176 23.4533 113.813 22.184 113.088 21.352C112.362 20.4987 111.402 20.072 110.208 20.072C109.418 20.072 108.725 20.264 108.128 20.648C107.53 21.0107 107.061 21.576 106.72 22.344C106.4 23.0907 106.24 24.0293 106.24 25.16C106.24 26.8453 106.602 28.1253 107.328 29C108.053 29.8533 109.013 30.28 110.208 30.28ZM128.627 33.32C127.006 33.32 125.598 32.9893 124.403 32.328C123.209 31.6667 122.281 30.728 121.619 29.512C120.958 28.2747 120.627 26.824 120.627 25.16C120.627 23.9013 120.809 22.7813 121.171 21.8C121.555 20.7973 122.099 19.944 122.803 19.24C123.507 18.5147 124.35 17.9707 125.331 17.608C126.313 17.224 127.411 17.032 128.627 17.032C130.249 17.032 131.657 17.3627 132.851 18.024C134.046 18.6853 134.974 19.624 135.635 20.84C136.297 22.056 136.627 23.496 136.627 25.16C136.627 26.4187 136.435 27.5493 136.051 28.552C135.689 29.5547 135.155 30.4187 134.451 31.144C133.747 31.848 132.905 32.392 131.923 32.776C130.942 33.1387 129.843 33.32 128.627 33.32ZM128.627 30.28C129.417 30.28 130.11 30.088 130.707 29.704C131.305 29.32 131.763 28.7547 132.083 28.008C132.425 27.24 132.595 26.2907 132.595 25.16C132.595 23.4533 132.233 22.184 131.507 21.352C130.782 20.4987 129.822 20.072 128.627 20.072C127.838 20.072 127.145 20.264 126.547 20.648C125.95 21.0107 125.481 21.576 125.139 22.344C124.819 23.0907 124.659 24.0293 124.659 25.16C124.659 26.8453 125.022 28.1253 125.747 29C126.473 29.8533 127.433 30.28 128.627 30.28ZM147.065 33.32C145.443 33.32 144.035 32.9893 142.841 32.328C141.646 31.6667 140.718 30.728 140.057 29.512C139.395 28.2747 139.065 26.824 139.065 25.16C139.065 23.9013 139.246 22.7813 139.609 21.8C139.993 20.7973 140.537 19.944 141.241 19.24C141.945 18.5147 142.787 17.9707 143.769 17.608C144.75 17.224 145.849 17.032 147.065 17.032C148.686 17.032 150.094 17.3627 151.289 18.024C152.483 18.6853 153.411 19.624 154.073 20.84C154.734 22.056 155.065 23.496 155.065 25.16C155.065 26.4187 154.873 27.5493 154.489 28.552C154.126 29.5547 153.593 30.4187 152.889 31.144C152.185 31.848 151.342 32.392 150.361 32.776C149.379 33.1387 148.281 33.32 147.065 33.32ZM147.065 30.28C147.854 30.28 148.547 30.088 149.145 29.704C149.742 29.32 150.201 28.7547 150.521 28.008C150.862 27.24 151.033 26.2907 151.033 25.16C151.033 23.4533 150.67 22.184 149.945 21.352C149.219 20.4987 148.259 20.072 147.065 20.072C146.275 20.072 145.582 20.264 144.985 20.648C144.387 21.0107 143.918 21.576 143.577 22.344C143.257 23.0907 143.097 24.0293 143.097 25.16C143.097 26.8453 143.459 28.1253 144.185 29C144.91 29.8533 145.87 30.28 147.065 30.28ZM160.35 33.256C159.71 33.256 159.22 33.0853 158.878 32.744C158.537 32.3813 158.366 31.8693 158.366 31.208V12.2C158.366 11.5387 158.537 11.0373 158.878 10.696C159.22 10.3547 159.71 10.184 160.35 10.184C160.99 10.184 161.481 10.3547 161.822 10.696C162.185 11.0373 162.366 11.5387 162.366 12.2V24.008H162.43L167.71 18.44C168.137 18.0133 168.51 17.6827 168.83 17.448C169.15 17.2133 169.588 17.096 170.142 17.096C170.697 17.096 171.113 17.2453 171.39 17.544C171.689 17.8213 171.838 18.1627 171.838 18.568C171.838 18.9733 171.646 19.3787 171.262 19.784L165.694 25.672V24.008L171.806 30.6C172.19 31.0053 172.361 31.4213 172.318 31.848C172.297 32.2533 172.126 32.5947 171.806 32.872C171.486 33.128 171.081 33.256 170.59 33.256C169.993 33.256 169.513 33.1387 169.15 32.904C168.809 32.6693 168.425 32.3173 167.998 31.848L162.43 26.024H162.366V31.208C162.366 32.5733 161.694 33.256 160.35 33.256Z" fill="white"/>
</svg>
