<svg width="44" height="44" viewBox="0 0 44 44" fill="none" xmlns="http://www.w3.org/2000/svg">
<rect width="44" height="44" rx="22" fill="#AA0136"/>
<path d="M22.0026 15.333C23.8139 15.333 24.0399 15.3397 24.7506 15.373C25.4606 15.4063 25.9439 15.5177 26.3693 15.683C26.8093 15.8523 27.1799 16.0817 27.5506 16.4517C27.8896 16.7849 28.1519 17.1881 28.3193 17.633C28.4839 18.0577 28.5959 18.5417 28.6293 19.2517C28.6606 19.9623 28.6693 20.1883 28.6693 21.9997C28.6693 23.811 28.6626 24.037 28.6293 24.7477C28.5959 25.4577 28.4839 25.941 28.3193 26.3663C28.1524 26.8115 27.89 27.2148 27.5506 27.5477C27.2172 27.8866 26.8141 28.1488 26.3693 28.3163C25.9446 28.481 25.4606 28.593 24.7506 28.6263C24.0399 28.6577 23.8139 28.6663 22.0026 28.6663C20.1913 28.6663 19.9653 28.6597 19.2546 28.6263C18.5446 28.593 18.0613 28.481 17.6359 28.3163C17.1908 28.1493 16.7876 27.887 16.4546 27.5477C16.1155 27.2145 15.8532 26.8113 15.6859 26.3663C15.5206 25.9417 15.4093 25.4577 15.3759 24.7477C15.3446 24.037 15.3359 23.811 15.3359 21.9997C15.3359 20.1883 15.3426 19.9623 15.3759 19.2517C15.4093 18.541 15.5206 18.0583 15.6859 17.633C15.8528 17.1878 16.1151 16.7846 16.4546 16.4517C16.7877 16.1125 17.1909 15.8502 17.6359 15.683C18.0613 15.5177 18.5439 15.4063 19.2546 15.373C19.9653 15.3417 20.1913 15.333 22.0026 15.333ZM22.0026 18.6663C21.1185 18.6663 20.2707 19.0175 19.6456 19.6427C19.0205 20.2678 18.6693 21.1156 18.6693 21.9997C18.6693 22.8837 19.0205 23.7316 19.6456 24.3567C20.2707 24.9818 21.1185 25.333 22.0026 25.333C22.8867 25.333 23.7345 24.9818 24.3596 24.3567C24.9847 23.7316 25.3359 22.8837 25.3359 21.9997C25.3359 21.1156 24.9847 20.2678 24.3596 19.6427C23.7345 19.0175 22.8867 18.6663 22.0026 18.6663ZM26.3359 18.4997C26.3359 18.2787 26.2481 18.0667 26.0919 17.9104C25.9356 17.7541 25.7236 17.6663 25.5026 17.6663C25.2816 17.6663 25.0696 17.7541 24.9133 17.9104C24.7571 18.0667 24.6693 18.2787 24.6693 18.4997C24.6693 18.7207 24.7571 18.9326 24.9133 19.0889C25.0696 19.2452 25.2816 19.333 25.5026 19.333C25.7236 19.333 25.9356 19.2452 26.0919 19.0889C26.2481 18.9326 26.3359 18.7207 26.3359 18.4997ZM22.0026 19.9997C22.533 19.9997 23.0417 20.2104 23.4168 20.5855C23.7919 20.9605 24.0026 21.4692 24.0026 21.9997C24.0026 22.5301 23.7919 23.0388 23.4168 23.4139C23.0417 23.789 22.533 23.9997 22.0026 23.9997C21.4722 23.9997 20.9635 23.789 20.5884 23.4139C20.2133 23.0388 20.0026 22.5301 20.0026 21.9997C20.0026 21.4692 20.2133 20.9605 20.5884 20.5855C20.9635 20.2104 21.4722 19.9997 22.0026 19.9997Z" fill="white"/>
</svg>
