<svg width="685" height="433" viewBox="0 0 685 433" fill="none" xmlns="http://www.w3.org/2000/svg">
<g clip-path="url(#clip0_485_10545)">
<path d="M604.669 380.308H23.6353V380.598H604.669V380.308Z" fill="#EBEBEB"/>
<path d="M546.449 398.995H507.961V399.286H546.449V398.995Z" fill="#EBEBEB"/>
<path d="M408.535 402.154H398.437V402.445H408.535V402.154Z" fill="#EBEBEB"/>
<path d="M506.799 388.217H484.499V388.507H506.799V388.217Z" fill="#EBEBEB"/>
<path d="M134.786 390.168H84.5967V390.459H134.786V390.168Z" fill="#EBEBEB"/>
<path d="M152.497 390.168H145.141V390.459H152.497V390.168Z" fill="#EBEBEB"/>
<path d="M285.274 395.07H176.412V395.36H285.274V395.07Z" fill="#EBEBEB"/>
<path d="M299.056 328.508H74.673C71.0125 328.508 68.0376 325.535 68.0376 321.877V6.63173C68.0376 2.97324 71.0125 0 74.673 0H299.068C302.729 0 305.703 2.97324 305.703 6.63173V321.877C305.692 325.535 302.717 328.508 299.056 328.508ZM74.673 0.290356C71.1752 0.290356 68.3281 3.13584 68.3281 6.63173V321.877C68.3281 325.373 71.1752 328.218 74.673 328.218H299.068C302.566 328.218 305.413 325.373 305.413 321.877V6.63173C305.413 3.13584 302.566 0.290356 299.068 0.290356H74.673Z" fill="#EBEBEB"/>
<path d="M550.412 328.508H326.017C322.356 328.508 319.381 325.535 319.381 321.877V6.63173C319.381 2.97324 322.356 0 326.017 0H550.412C554.072 0 557.047 2.97324 557.047 6.63173V321.877C557.047 325.535 554.072 328.508 550.412 328.508ZM326.017 0.290356C322.519 0.290356 319.672 3.13584 319.672 6.63173V321.877C319.672 325.373 322.519 328.218 326.017 328.218H550.412C553.91 328.218 556.757 325.373 556.757 321.877V6.63173C556.757 3.13584 553.91 0.290356 550.412 0.290356H326.017Z" fill="#EBEBEB"/>
<path d="M434.925 50.1502C434.925 47.0144 432.38 44.4709 429.243 44.4709C428.673 44.4709 428.127 44.5522 427.616 44.7148C427.697 44.1457 427.744 43.565 427.744 42.9726C427.744 36.3293 422.352 30.9403 415.705 30.9403C414.949 30.9403 414.206 31.01 413.485 31.1494C411.637 28.1297 408.314 26.0972 404.502 26.0972C398.738 26.0972 394.067 30.7196 393.986 36.4571C393.927 36.4571 393.869 36.4454 393.811 36.4454C388.454 36.4454 384.12 40.7776 384.12 46.1317C384.12 51.4859 388.454 55.818 393.811 55.818H429.405L429.394 55.8064C432.462 55.7367 434.925 53.2396 434.925 50.1502Z" fill="#F0F0F0"/>
<path d="M414.032 58.6519V47.5835H405.002V58.6519H397.646L409.523 68.6865L421.399 58.6519H414.032Z" fill="#E0E0E0"/>
<path d="M256.838 66.8979C256.838 60.2313 251.435 54.8307 244.764 54.8307C243.556 54.8307 242.394 55.0165 241.301 55.3417C241.476 54.1338 241.569 52.8911 241.569 51.6368C241.569 37.5255 230.122 26.0971 216.015 26.0971C214.411 26.0971 212.831 26.2481 211.308 26.5384C207.381 20.1158 200.315 15.8069 192.239 15.8069C180.002 15.8069 170.078 25.6325 169.892 37.8159C169.765 37.8159 169.648 37.7926 169.521 37.7926C158.156 37.7926 148.929 47.0027 148.929 58.373C148.929 69.7318 158.144 78.9535 169.521 78.9535H245.125L245.113 78.9418C251.621 78.7676 256.838 73.4483 256.838 66.8979Z" fill="#F0F0F0"/>
<path d="M193.296 67.8386V91.3574H212.482V67.8386H228.112L202.883 46.5381L177.667 67.8386H193.296Z" fill="#E0E0E0"/>
<path d="M266.472 125.643V94.0171H363.365V125.317" stroke="#E6E6E6" stroke-width="1.20538" stroke-miterlimit="10"/>
<path d="M316.349 64.215V125.55" stroke="#E6E6E6" stroke-width="1.20538" stroke-miterlimit="10"/>
<path d="M332.838 52.171H299.881C299.114 52.171 298.499 52.7866 298.499 53.5531V73.1579C298.499 73.9245 299.114 74.54 299.881 74.54H332.838C333.605 74.54 334.22 73.9245 334.22 73.1579V53.5415C334.209 52.7866 333.593 52.171 332.838 52.171Z" fill="#F0F0F0"/>
<path d="M332.489 73.6341H300.219C299.951 73.6341 299.73 73.4134 299.73 73.1463V55.2836C299.73 55.0164 299.951 54.7958 300.219 54.7958H332.489C332.756 54.7958 332.977 55.0164 332.977 55.2836V73.1463C332.977 73.4134 332.756 73.6341 332.489 73.6341Z" fill="#E0E0E0"/>
<path d="M282.95 122.774H249.994C249.227 122.774 248.611 123.389 248.611 124.156V143.761C248.611 144.527 249.227 145.143 249.994 145.143H282.95C283.717 145.143 284.333 144.527 284.333 143.761V124.156C284.333 123.389 283.717 122.774 282.95 122.774Z" fill="#F0F0F0"/>
<path d="M282.614 144.249H250.343C250.076 144.249 249.855 144.028 249.855 143.761V125.898C249.855 125.631 250.076 125.41 250.343 125.41H282.614C282.881 125.41 283.102 125.631 283.102 125.898V143.761C283.102 144.028 282.881 144.249 282.614 144.249Z" fill="#E0E0E0"/>
<path d="M332.838 122.774H299.881C299.114 122.774 298.499 123.389 298.499 124.156V143.761C298.499 144.527 299.114 145.143 299.881 145.143H332.838C333.605 145.143 334.22 144.527 334.22 143.761V124.156C334.209 123.389 333.593 122.774 332.838 122.774Z" fill="#F0F0F0"/>
<path d="M332.489 144.249H300.219C299.951 144.249 299.73 144.028 299.73 143.761V125.898C299.73 125.631 299.951 125.41 300.219 125.41H332.489C332.756 125.41 332.977 125.631 332.977 125.898V143.761C332.977 144.028 332.756 144.249 332.489 144.249Z" fill="#E0E0E0"/>
<path d="M379.925 122.774H346.969C346.202 122.774 345.586 123.389 345.586 124.156V143.761C345.586 144.527 346.202 145.143 346.969 145.143H379.925C380.692 145.143 381.308 144.527 381.308 143.761V124.156C381.308 123.389 380.692 122.774 379.925 122.774Z" fill="#F0F0F0"/>
<path d="M379.588 144.249H347.317C347.05 144.249 346.829 144.028 346.829 143.761V125.898C346.829 125.631 347.05 125.41 347.317 125.41H379.588C379.855 125.41 380.076 125.631 380.076 125.898V143.761C380.076 144.028 379.855 144.249 379.588 144.249Z" fill="#E0E0E0"/>
<path d="M315.685 84.4237L306.749 93.3551C306.389 93.7151 306.389 94.3074 306.749 94.6791L315.685 103.61C316.046 103.97 316.638 103.97 317.01 103.61L325.947 94.6791C326.307 94.319 326.307 93.7267 325.947 93.3551L317.01 84.4237C316.65 84.0637 316.057 84.0637 315.685 84.4237Z" fill="#E0E0E0"/>
<path opacity="0.8" d="M127.152 93.7616H103.911C103.353 93.7616 102.9 93.3087 102.9 92.7512V79.6387C102.9 79.0813 103.353 78.6283 103.911 78.6283H127.164C127.722 78.6283 128.175 79.0813 128.175 79.6387V92.7512C128.175 93.3087 127.722 93.7616 127.152 93.7616Z" fill="#E0E0E0"/>
<path d="M109.419 122.739H90.9998C90.442 122.739 89.9888 122.286 89.9888 121.729V112.194C89.9888 111.636 90.442 111.183 90.9998 111.183H109.419C109.976 111.183 110.43 111.636 110.43 112.194V121.729C110.43 122.286 109.976 122.739 109.419 122.739Z" fill="#E0E0E0"/>
<path d="M140.434 122.739H122.015C121.458 122.739 121.004 122.286 121.004 121.729V112.194C121.004 111.636 121.458 111.183 122.015 111.183H140.434C140.992 111.183 141.445 111.636 141.445 112.194V121.729C141.445 122.286 140.992 122.739 140.434 122.739Z" fill="#E0E0E0"/>
<path d="M121.365 145.515H112.661C112.104 145.515 111.65 145.062 111.65 144.504V136.653C111.65 136.096 112.104 135.643 112.661 135.643H121.365C121.923 135.643 122.376 136.096 122.376 136.653V144.504C122.376 145.05 121.923 145.515 121.365 145.515Z" fill="#E0E0E0"/>
<path d="M134.996 145.515H126.292C125.734 145.515 125.281 145.062 125.281 144.504V136.653C125.281 136.096 125.734 135.643 126.292 135.643H134.996C135.554 135.643 136.007 136.096 136.007 136.653V144.504C136.007 145.05 135.554 145.515 134.996 145.515Z" fill="#E0E0E0"/>
<path d="M148.616 145.515H139.912C139.354 145.515 138.901 145.062 138.901 144.504V136.653C138.901 136.096 139.354 135.643 139.912 135.643H148.616C149.174 135.643 149.627 136.096 149.627 136.653V144.504C149.627 145.05 149.174 145.515 148.616 145.515Z" fill="#E0E0E0"/>
<path d="M89.8384 145.515H81.1345C80.5767 145.515 80.1235 145.062 80.1235 144.504V136.653C80.1235 136.096 80.5767 135.643 81.1345 135.643H89.8384C90.3962 135.643 90.8494 136.096 90.8494 136.653V144.504C90.8494 145.05 90.3962 145.515 89.8384 145.515Z" fill="#E0E0E0"/>
<path d="M104.62 145.515H95.9158C95.358 145.515 94.9048 145.062 94.9048 144.504V136.653C94.9048 136.096 95.358 135.643 95.9158 135.643H104.62C105.177 135.643 105.631 136.096 105.631 136.653V144.504C105.642 145.05 105.189 145.515 104.62 145.515Z" fill="#E0E0E0"/>
<path d="M130.057 111.183H131.22V103.053H116.113V93.7617H114.951V103.053H99.8438V111.183H101.006V104.215H130.057V111.183Z" fill="#E0E0E0"/>
<path d="M99.8432 129.766H84.7363V135.573H85.8984V130.927H99.8432V135.573H101.005V122.797H99.8432V129.766Z" fill="#E0E0E0"/>
<path d="M131.219 130.927V122.797H130.057V130.927H116.112V135.573H117.274V132.089H130.057V135.573H131.219V132.089H144.002V135.573H145.164V130.927H131.219Z" fill="#E0E0E0"/>
<path d="M466.369 82.2634V90.6024L470.669 91.0089C471.25 93.8079 472.354 96.4095 473.876 98.7207L471.11 102.054L477.014 107.954L480.349 105.19C482.661 106.711 485.264 107.815 488.065 108.395L488.472 112.693H496.815L497.222 108.395C500.023 107.815 502.626 106.711 504.938 105.19L508.273 107.954L514.177 102.054L511.411 98.7207C512.922 96.4095 514.037 93.8079 514.618 91.0089L518.918 90.6024V82.2634L514.618 81.8569C514.037 79.0578 512.933 76.4562 511.411 74.145L514.177 70.8117L508.273 64.9117L504.938 67.6759C502.626 66.166 500.023 65.0511 497.222 64.4704L496.815 60.1731H488.472L488.065 64.4704C485.264 65.0511 482.661 66.1544 480.349 67.6759L477.014 64.9117L471.11 70.8117L473.876 74.145C472.354 76.4562 471.25 79.0578 470.669 81.8569L466.369 82.2634ZM492.643 75.1322C498.884 75.1322 503.95 80.1844 503.95 86.4329C503.95 92.6697 498.895 97.7219 492.643 97.7219C486.403 97.7219 481.337 92.6697 481.337 86.4329C481.337 80.196 486.403 75.1322 492.643 75.1322Z" fill="#F5F5F5"/>
<path d="M471.761 143.134C473.958 142.681 475.991 141.809 477.804 140.625L480.419 142.785L485.044 138.163L482.882 135.549C484.068 133.738 484.939 131.705 485.392 129.51L488.762 129.196V122.658L485.392 122.344C484.939 120.149 484.068 118.116 482.882 116.305L485.044 113.691L480.419 109.069L477.804 111.229C475.991 110.045 473.958 109.174 471.761 108.721L471.448 105.352H464.905L464.591 108.721C462.395 109.174 460.361 110.045 458.549 111.229L455.934 109.069L451.309 113.691L453.47 116.305C452.285 118.116 451.414 120.149 450.96 122.344L447.59 122.658V129.196L450.96 129.51C451.414 131.705 452.285 133.738 453.47 135.549L451.309 138.163L455.934 142.785L458.549 140.625C460.361 141.809 462.395 142.681 464.591 143.134L464.905 146.502H471.448L471.761 143.134ZM459.316 125.933C459.316 121.043 463.278 117.083 468.171 117.083C473.063 117.083 477.025 121.043 477.025 125.933C477.025 130.822 473.063 134.783 468.171 134.783C463.29 134.783 459.316 130.822 459.316 125.933Z" fill="#F5F5F5"/>
<path d="M457.167 107.757L459.363 109.568L463.244 105.689L461.431 103.494C462.431 101.973 463.163 100.265 463.546 98.4187L466.37 98.1516V92.6581L463.546 92.391C463.163 90.5443 462.431 88.837 461.431 87.3155L463.244 85.1204L459.363 81.2413L457.167 83.0531C455.644 82.0543 453.936 81.3226 452.088 80.9393L451.821 78.1171H446.324L446.057 80.9393C444.21 81.3226 442.501 82.0543 440.979 83.0531L438.783 81.2413L434.901 85.1204L436.714 87.3155C435.715 88.837 434.983 90.5443 434.599 92.391L431.775 92.6581V98.1516L434.599 98.4187C434.983 100.254 435.715 101.973 436.714 103.494L434.913 105.689L438.794 109.568L440.991 107.757C442.513 108.755 444.221 109.487 446.069 109.87L446.336 112.693H451.833L452.1 109.859C453.936 109.475 455.644 108.744 457.167 107.757ZM441.641 95.4107C441.641 91.2992 444.976 87.9775 449.079 87.9775C453.181 87.9775 456.516 91.3108 456.516 95.4107C456.516 99.5221 453.181 102.844 449.079 102.844C444.976 102.844 441.641 99.5105 441.641 95.4107Z" fill="#F5F5F5"/>
<path d="M534.236 312.516H456.203V363.235H534.236V312.516Z" fill="#F5F5F5"/>
<path d="M531.365 322.028H459.05V360.703H531.365V322.028Z" fill="#E0E0E0"/>
<path d="M518.443 327.8H464.942V329.461H518.443V327.8Z" fill="#F5F5F5"/>
<path d="M490.612 332.898H464.942V334.559H490.612V332.898Z" fill="#F5F5F5"/>
<path d="M497.271 337.997H464.942V339.658H497.271V337.997Z" fill="#F5F5F5"/>
<path d="M476.33 343.096H464.942V344.757H476.33V343.096Z" fill="#F5F5F5"/>
<path d="M472.321 348.183H464.942V349.844H472.321V348.183Z" fill="#F5F5F5"/>
<path d="M134.722 312.23L79.1982 312.483L79.3543 346.71L134.878 346.457L134.722 312.23Z" fill="#EBEBEB"/>
<path d="M100.495 338.102C100.262 338.102 100.018 338.032 99.8089 337.881L89.6757 330.483C89.3735 330.262 89.1992 329.914 89.1992 329.554C89.1992 329.182 89.3735 328.834 89.664 328.613L99.7275 321.122C100.239 320.739 100.971 320.843 101.354 321.354C101.738 321.865 101.633 322.597 101.11 322.98L92.3136 329.531L101.169 336C101.691 336.383 101.796 337.103 101.424 337.626C101.203 337.939 100.855 338.102 100.495 338.102Z" fill="#FAFAFA"/>
<path d="M113.649 338.044C113.289 338.044 112.94 337.881 112.719 337.579C112.336 337.068 112.44 336.337 112.963 335.953L121.76 329.403L112.905 322.934C112.382 322.55 112.278 321.83 112.649 321.308C113.033 320.785 113.753 320.681 114.276 321.052L124.41 328.45C124.712 328.671 124.886 329.02 124.886 329.38C124.886 329.751 124.712 330.1 124.421 330.32L114.358 337.812C114.125 337.963 113.881 338.044 113.649 338.044Z" fill="#FAFAFA"/>
<path d="M104.422 338.079C104.295 338.079 104.167 338.055 104.039 338.009C103.435 337.8 103.109 337.138 103.33 336.534L108.548 321.621C108.757 321.017 109.419 320.692 110.024 320.913C110.628 321.122 110.953 321.784 110.732 322.388L105.515 337.3C105.352 337.788 104.91 338.079 104.422 338.079Z" fill="#FAFAFA"/>
<path d="M314.152 432.758C438.589 432.758 539.465 426.872 539.465 419.61C539.465 412.349 438.589 406.463 314.152 406.463C189.715 406.463 88.8389 412.349 88.8389 419.61C88.8389 426.872 189.715 432.758 314.152 432.758Z" fill="#F5F5F5"/>
<path d="M412.206 419.611H420.747L432.368 355.454H423.827L412.206 419.611Z" fill="#282828"/>
<path opacity="0.2" d="M412.206 419.611H420.747L432.368 355.454H423.827L412.206 419.611Z" fill="white"/>
<path opacity="0.2" d="M412.206 419.611H418.423L430.044 355.454H423.827L412.206 419.611Z" fill="white"/>
<path d="M388.163 374.536H422.316C423.362 374.536 424.199 373.688 424.199 372.654C424.199 371.609 423.351 370.773 422.316 370.773H388.163C387.117 370.773 386.281 371.62 386.281 372.654C386.281 373.688 387.117 374.536 388.163 374.536Z" fill="#282828"/>
<path d="M384.364 396.01H418.517C419.563 396.01 420.399 395.163 420.399 394.129C420.399 393.084 419.551 392.247 418.517 392.247H384.364C383.318 392.247 382.481 393.095 382.481 394.129C382.481 395.174 383.329 396.01 384.364 396.01Z" fill="#282828"/>
<path d="M377.345 419.611H385.886L397.507 355.454H388.965L377.345 419.611Z" fill="#282828"/>
<path opacity="0.2" d="M377.345 419.611H385.886L397.507 355.454H388.965L377.345 419.611Z" fill="white"/>
<path opacity="0.2" d="M377.345 419.611H383.562L395.182 355.454H388.965L377.345 419.611Z" fill="white"/>
<path d="M456.772 419.611H448.231L436.61 355.454H445.151L456.772 419.611Z" fill="#282828"/>
<path opacity="0.4" d="M456.772 419.611H448.231L436.61 355.454H445.151L456.772 419.611Z" fill="white"/>
<path opacity="0.2" d="M454.448 419.611H448.231L436.61 355.454H442.827L454.448 419.611Z" fill="white"/>
<path d="M441.77 374.536H407.616C406.571 374.536 405.734 373.688 405.734 372.654C405.734 371.609 406.582 370.773 407.616 370.773H441.77C442.815 370.773 443.652 371.62 443.652 372.654C443.652 373.688 442.804 374.536 441.77 374.536Z" fill="#282828"/>
<path d="M445.558 396.01H411.405C410.359 396.01 409.522 395.163 409.522 394.129C409.522 393.084 410.37 392.247 411.405 392.247H445.558C446.603 392.247 447.44 393.095 447.44 394.129C447.44 395.174 446.603 396.01 445.558 396.01Z" fill="#282828"/>
<path opacity="0.2" d="M441.77 374.536H407.616C406.571 374.536 405.734 373.688 405.734 372.654C405.734 371.609 406.582 370.773 407.616 370.773H441.77C442.815 370.773 443.652 371.62 443.652 372.654C443.652 373.688 442.804 374.536 441.77 374.536Z" fill="white"/>
<path opacity="0.2" d="M445.558 396.01H411.405C410.359 396.01 409.522 395.163 409.522 394.129C409.522 393.084 410.37 392.247 411.405 392.247H445.558C446.603 392.247 447.44 393.095 447.44 394.129C447.44 395.174 446.603 396.01 445.558 396.01Z" fill="white"/>
<path d="M421.91 419.611H413.369L401.748 355.454H410.289L421.91 419.611Z" fill="#282828"/>
<path opacity="0.4" d="M421.91 419.611H413.369L401.748 355.454H410.289L421.91 419.611Z" fill="white"/>
<path opacity="0.2" d="M419.586 419.611H413.369L401.748 355.454H407.965L419.586 419.611Z" fill="white"/>
<path d="M448.474 358.508H386.769C386.002 358.508 385.386 357.892 385.386 357.126V353.758C385.386 352.991 386.002 352.376 386.769 352.376H448.474C449.241 352.376 449.857 352.991 449.857 353.758V357.126C449.857 357.892 449.241 358.508 448.474 358.508Z" fill="#282828"/>
<path opacity="0.2" d="M410.231 358.508H386.769C386.002 358.508 385.386 357.892 385.386 357.126V353.758C385.386 352.991 386.002 352.376 386.769 352.376H410.231C410.998 352.376 411.614 352.991 411.614 353.758V357.126C411.614 357.892 410.998 358.508 410.231 358.508Z" fill="white"/>
<path d="M249.483 368.043H171.45V418.763H249.483V368.043Z" fill="#B82B58"/>
<path opacity="0.6" d="M249.483 368.043H171.45V418.763H249.483V368.043Z" fill="white"/>
<path d="M246.636 377.555H174.309V416.231H246.636V377.555Z" fill="#B82B58"/>
<path d="M233.702 383.339H180.2V385H233.702V383.339Z" fill="white"/>
<path d="M205.87 388.438H180.2V390.099H205.87V388.438Z" fill="white"/>
<path d="M212.529 393.525H180.2V395.186H212.529V393.525Z" fill="white"/>
<path d="M191.6 398.624H180.2V400.284H191.6V398.624Z" fill="white"/>
<path d="M187.579 403.722H180.2V405.383H187.579V403.722Z" fill="white"/>
<path d="M345.911 419.61H282.392L293.141 335.21H335.162L345.911 419.61Z" fill="#B82B58"/>
<path opacity="0.6" d="M345.911 419.61H282.392L289.748 361.864L293.153 335.21H335.15L340.17 374.536L345.911 419.61Z" fill="white"/>
<path opacity="0.1" d="M340.171 374.536L289.749 361.864L293.153 335.21H335.15L340.171 374.536Z" fill="#181818"/>
<path d="M462.66 127.094H456.341H170.696H164.377C160.164 127.094 156.738 130.507 156.738 134.729V336.551C156.738 340.761 160.152 344.185 164.377 344.185H170.696H456.329H462.648C466.861 344.185 470.287 340.773 470.287 336.551V134.717C470.287 130.507 466.872 127.094 462.66 127.094Z" fill="#B82B58"/>
<path opacity="0.7" d="M462.66 127.094H456.341H170.696H164.377C160.164 127.094 156.738 130.507 156.738 134.729V336.551C156.738 340.761 160.152 344.185 164.377 344.185H170.696H456.329H462.648C466.861 344.185 470.287 340.773 470.287 336.551V134.717C470.287 130.507 466.872 127.094 462.66 127.094Z" fill="white"/>
<path d="M461.49 134.597H166.825V330.007H461.49V134.597Z" fill="#B82B58"/>
<path d="M367.502 413.269H260.801C260.139 413.269 259.593 413.803 259.593 414.477V418.31C259.593 418.972 260.127 419.518 260.801 419.518H367.502C368.165 419.518 368.711 418.983 368.711 418.31V414.477C368.711 413.803 368.165 413.269 367.502 413.269Z" fill="#B82B58"/>
<path opacity="0.7" d="M367.502 413.269H260.801C260.139 413.269 259.593 413.803 259.593 414.477V418.31C259.593 418.972 260.127 419.518 260.801 419.518H367.502C368.165 419.518 368.711 418.983 368.711 418.31V414.477C368.711 413.803 368.165 413.269 367.502 413.269Z" fill="white"/>
<path opacity="0.2" d="M461.49 134.783H166.825V163.912H461.49V134.783Z" fill="#181818"/>
<path opacity="0.4" d="M293.095 164.248H166.825V329.995H293.095V164.248Z" fill="white"/>
<path d="M416.136 206.536V209.439H413.23" stroke="white" stroke-width="1.20538" stroke-miterlimit="10"/>
<path d="M407.094 209.439H311.921" stroke="white" stroke-width="1.20538" stroke-miterlimit="10" stroke-dasharray="6.37 6.37"/>
<path d="M308.853 209.439H305.948V206.536" stroke="white" stroke-width="1.20538" stroke-miterlimit="10"/>
<path d="M305.948 201.275V151.299" stroke="white" stroke-width="1.20538" stroke-miterlimit="10" stroke-dasharray="5.46 5.46"/>
<path d="M305.948 148.674V145.77H308.853" stroke="white" stroke-width="1.20538" stroke-miterlimit="10"/>
<path d="M314.989 145.77H410.163" stroke="white" stroke-width="1.20538" stroke-miterlimit="10" stroke-dasharray="6.37 6.37"/>
<path d="M413.23 145.77H416.136V148.674" stroke="white" stroke-width="1.20538" stroke-miterlimit="10"/>
<path d="M416.135 153.923V203.899" stroke="white" stroke-width="1.20538" stroke-miterlimit="10" stroke-dasharray="5.46 5.46"/>
<path d="M417.983 143.924H414.299V147.605H417.983V143.924Z" fill="#B82B58" stroke="white" stroke-width="1.20538" stroke-miterlimit="10"/>
<path d="M417.983 207.593H414.299V211.274H417.983V207.593Z" fill="#B82B58" stroke="white" stroke-width="1.20538" stroke-miterlimit="10"/>
<path d="M307.784 143.924H304.1V147.605H307.784V143.924Z" fill="#B82B58" stroke="white" stroke-width="1.20538" stroke-miterlimit="10"/>
<path d="M307.784 207.593H304.1V211.274H307.784V207.593Z" fill="#B82B58" stroke="white" stroke-width="1.20538" stroke-miterlimit="10"/>
<path d="M362.889 143.924H359.205V147.605H362.889V143.924Z" fill="#B82B58" stroke="white" stroke-width="1.20538" stroke-miterlimit="10"/>
<path d="M362.889 207.593H359.205V211.274H362.889V207.593Z" fill="#B82B58" stroke="white" stroke-width="1.20538" stroke-miterlimit="10"/>
<path d="M417.983 175.758H414.299V179.44H417.983V175.758Z" fill="#B82B58" stroke="white" stroke-width="1.20538" stroke-miterlimit="10"/>
<path d="M307.784 175.758H304.1V179.44H307.784V175.758Z" fill="#B82B58" stroke="white" stroke-width="1.20538" stroke-miterlimit="10"/>
<path opacity="0.7" d="M406.129 178.754H379.169C377.949 178.754 376.973 177.767 376.973 176.559V169.359C376.973 168.139 377.961 167.163 379.169 167.163H406.129C407.35 167.163 408.326 168.151 408.326 169.359V176.559C408.326 177.767 407.35 178.754 406.129 178.754Z" fill="white"/>
<path opacity="0.7" d="M359.647 178.754H332.687C331.467 178.754 330.491 177.767 330.491 176.559V169.359C330.491 168.139 331.478 167.163 332.687 167.163H359.647C360.867 167.163 361.843 168.151 361.843 169.359V176.559C361.843 177.767 360.867 178.754 359.647 178.754Z" fill="white"/>
<path opacity="0.7" d="M299.801 319.96H272.841C271.621 319.96 270.645 318.973 270.645 317.765V310.564C270.645 309.345 271.632 308.369 272.841 308.369H299.801C301.021 308.369 301.997 309.356 301.997 310.564V317.765C302.009 318.985 301.021 319.96 299.801 319.96Z" fill="white"/>
<path d="M442.038 145.143H451.845" stroke="white" stroke-width="1.80807" stroke-miterlimit="10" stroke-linecap="round" stroke-linejoin="round"/>
<path d="M442.038 149.789H451.845" stroke="white" stroke-width="1.80807" stroke-miterlimit="10" stroke-linecap="round" stroke-linejoin="round"/>
<path d="M442.038 154.434H451.845" stroke="white" stroke-width="1.80807" stroke-miterlimit="10" stroke-linecap="round" stroke-linejoin="round"/>
<path opacity="0.5" d="M285.635 189.951H186.801V288.73H285.635V189.951Z" fill="white"/>
<path d="M228.17 198.023V283.225" stroke="#B82B58" stroke-width="1.20538" stroke-miterlimit="10"/>
<path d="M270.795 283.225C247.252 283.225 228.17 264.154 228.17 240.624C228.17 217.093 247.252 198.023 270.795 198.023" stroke="#B82B58" stroke-width="1.20538" stroke-miterlimit="10"/>
<path d="M272.643 196.188H268.959V199.869H272.643V196.188Z" fill="white" stroke="#B82B58" stroke-width="1.20538" stroke-miterlimit="10"/>
<path d="M272.643 281.39H268.959V285.071H272.643V281.39Z" fill="white" stroke="#B82B58" stroke-width="1.20538" stroke-miterlimit="10"/>
<path d="M230.018 238.789H226.334V242.47H230.018V238.789Z" fill="white" stroke="#B82B58" stroke-width="1.20538" stroke-miterlimit="10"/>
<path d="M229.124 198.023C229.124 198.545 228.694 198.975 228.171 198.975C227.648 198.975 227.218 198.545 227.218 198.023C227.218 197.5 227.648 197.07 228.171 197.07C228.694 197.07 229.124 197.5 229.124 198.023Z" fill="white" stroke="#B82B58" stroke-width="1.20538" stroke-miterlimit="10"/>
<path d="M229.124 283.224C229.124 283.747 228.694 284.177 228.171 284.177C227.648 284.177 227.218 283.747 227.218 283.224C227.218 282.702 227.648 282.272 228.171 282.272C228.694 282.272 229.124 282.702 229.124 283.224Z" fill="white" stroke="#B82B58" stroke-width="1.20538" stroke-miterlimit="10"/>
<path opacity="0.7" d="M391.929 309.775H362.006C357.23 309.775 353.36 305.907 353.36 301.134C353.36 296.36 357.23 292.493 362.006 292.493H391.929C396.705 292.493 400.575 296.36 400.575 301.134C400.575 305.907 396.705 309.775 391.929 309.775Z" fill="white"/>
<path opacity="0.7" d="M418.215 236.082H325.784C324.738 236.082 323.89 235.234 323.89 234.189C323.89 233.144 324.738 232.296 325.784 232.296H418.215C419.261 232.296 420.109 233.144 420.109 234.189C420.109 235.234 419.261 236.082 418.215 236.082Z" fill="white"/>
<path opacity="0.7" d="M418.215 249.869H325.784C324.738 249.869 323.89 249.021 323.89 247.975C323.89 246.93 324.738 246.082 325.784 246.082H418.215C419.261 246.082 420.109 246.93 420.109 247.975C420.109 249.021 419.261 249.869 418.215 249.869Z" fill="white"/>
<path opacity="0.7" d="M418.215 263.666H360.646C359.6 263.666 358.752 262.818 358.752 261.773C358.752 260.728 359.6 259.88 360.646 259.88H418.215C419.261 259.88 420.109 260.728 420.109 261.773C420.109 262.818 419.261 263.666 418.215 263.666Z" fill="white"/>
<path opacity="0.4" d="M182.664 142.855H176.133V149.382H182.664V142.855Z" fill="#181818"/>
<path opacity="0.4" d="M193.68 149.382H190.496C189.566 149.382 188.823 148.639 188.823 147.71V144.527C188.823 143.61 189.566 142.855 190.496 142.855H193.68C194.61 142.855 195.354 143.598 195.354 144.527V147.71C195.354 148.627 194.598 149.382 193.68 149.382Z" fill="#181818"/>
<path opacity="0.4" d="M205.057 149.382H204.5C202.85 149.382 201.513 148.047 201.513 146.397V145.84C201.513 144.191 202.85 142.855 204.5 142.855H205.057C206.708 142.855 208.044 144.191 208.044 145.84V146.397C208.056 148.047 206.708 149.382 205.057 149.382Z" fill="#181818"/>
<path opacity="0.9" d="M196.144 303.77V301.226L194.831 301.099C194.657 300.251 194.32 299.45 193.855 298.753L194.691 297.742L192.89 295.942L191.879 296.778C191.17 296.314 190.38 295.977 189.532 295.803L189.404 294.49H186.859L186.731 295.803C185.883 295.977 185.081 296.314 184.384 296.778L183.373 295.942L181.572 297.742L182.408 298.753C181.944 299.461 181.607 300.251 181.432 301.099L180.119 301.226V303.77L181.432 303.898C181.607 304.746 181.944 305.547 182.408 306.244L181.572 307.254L183.373 309.054L184.384 308.218C185.093 308.683 185.883 309.02 186.731 309.194L186.859 310.506H189.404L189.532 309.194C190.38 309.02 191.182 308.683 191.879 308.218L192.89 309.054L194.691 307.254L193.855 306.244C194.32 305.535 194.657 304.746 194.831 303.898L196.144 303.77ZM188.137 305.942C186.232 305.942 184.698 304.397 184.698 302.504C184.698 300.611 186.243 299.066 188.137 299.066C190.043 299.066 191.577 300.611 191.577 302.504C191.577 304.397 190.043 305.942 188.137 305.942Z" fill="white"/>
<path opacity="0.6" d="M206.464 310.948V308.95L205.441 308.857C205.301 308.183 205.034 307.568 204.674 307.01L205.336 306.209L203.93 304.804L203.128 305.466C202.582 305.106 201.955 304.839 201.292 304.699L201.199 303.677H199.201L199.108 304.699C198.434 304.839 197.818 305.106 197.26 305.466L196.458 304.804L195.052 306.209L195.714 307.01C195.354 307.568 195.087 308.183 194.947 308.857L193.925 308.95V310.948L194.947 311.041C195.087 311.714 195.354 312.33 195.714 312.876L195.052 313.677L196.458 315.082L197.26 314.42C197.818 314.78 198.434 315.047 199.108 315.187L199.201 316.209H201.199L201.292 315.187C201.966 315.047 202.582 314.78 203.14 314.42L203.942 315.082L205.348 313.677L204.686 312.876C205.046 312.318 205.313 311.703 205.453 311.041L206.464 310.948ZM200.188 312.655C198.701 312.655 197.492 311.447 197.492 309.96C197.492 308.474 198.701 307.266 200.188 307.266C201.676 307.266 202.884 308.474 202.884 309.96C202.884 311.435 201.676 312.655 200.188 312.655Z" fill="white"/>
<path opacity="0.4" d="M196.144 316.604V314.931L195.284 314.85C195.168 314.292 194.947 313.77 194.645 313.305L195.203 312.632L194.017 311.447L193.343 312.004C192.879 311.703 192.356 311.482 191.798 311.366L191.717 310.506H190.043L189.962 311.366C189.404 311.482 188.881 311.703 188.416 312.004L187.742 311.447L186.557 312.632L187.115 313.305C186.813 313.77 186.592 314.292 186.476 314.85L185.616 314.931V316.604L186.476 316.685C186.592 317.242 186.813 317.765 187.115 318.23L186.557 318.903L187.742 320.088L188.416 319.53C188.881 319.832 189.404 320.053 189.962 320.169L190.043 321.029H191.717L191.798 320.169C192.356 320.053 192.879 319.832 193.343 319.53L194.017 320.088L195.203 318.903L194.645 318.23C194.947 317.765 195.168 317.242 195.284 316.685L196.144 316.604ZM190.88 318.032C189.625 318.032 188.614 317.022 188.614 315.767C188.614 314.513 189.625 313.503 190.88 313.503C192.135 313.503 193.146 314.513 193.146 315.767C193.146 317.022 192.135 318.032 190.88 318.032Z" fill="white"/>
<path d="M415.461 145.108L420.388 158.279L428.639 150.032L415.461 145.108Z" fill="#B82B58"/>
<path d="M423.391 151.199L421.551 153.038L425.635 157.12L427.475 155.28L423.391 151.199Z" fill="#B82B58"/>
<path opacity="0.4" d="M428.639 150.032L415.461 145.108L420.388 158.279L423.595 155.073L425.629 157.117L427.465 155.282L425.431 153.238L428.639 150.032Z" fill="white"/>
<path d="M213.587 192.169L225.986 196.803L219.49 190.311C219.002 190.578 218.386 190.531 217.968 190.113C217.468 189.614 217.468 188.801 217.968 188.301C218.467 187.802 219.281 187.802 219.781 188.301C220.199 188.72 220.245 189.335 219.978 189.823L226.474 196.315L221.837 183.923L217.735 184.829L217.573 183.342L216.794 182.564L212.239 187.117L213.017 187.895L214.505 188.057L213.587 192.169Z" fill="#282828"/>
<path opacity="0.2" d="M213.587 192.169L225.986 196.803L219.49 190.311C219.002 190.578 218.386 190.531 217.968 190.113C217.468 189.614 217.468 188.801 217.968 188.301C218.467 187.802 219.281 187.802 219.781 188.301C220.199 188.72 220.245 189.335 219.978 189.823L226.474 196.315L221.837 183.923L217.735 184.829L217.573 183.342L216.794 182.564L212.239 187.117L213.017 187.895L214.505 188.057L213.587 192.169Z" fill="white"/>
<g opacity="0.1">
<path d="M209.915 134.597L166.244 297.684V134.597H209.915Z" fill="white"/>
<path d="M259.198 134.597L206.87 330.007H170.823L223.139 134.597H259.198Z" fill="white"/>
<path d="M311.607 134.597L259.279 330.007H242.975L295.303 134.597H311.607Z" fill="white"/>
<path d="M359.868 134.597L307.54 330.007H301.707L354.034 134.597H359.868Z" fill="white"/>
</g>
</g>
<path d="M631.39 112.758C631.403 115.386 629.284 117.521 626.657 117.534C624.03 117.547 621.894 115.429 621.881 112.801C621.868 110.174 623.986 108.038 626.614 108.026C629.237 108.017 631.377 110.135 631.39 112.758Z" fill="#9C435F"/>
<path d="M636.761 232.11C640.726 239.893 650.015 236.109 661.448 226.894C675.102 215.884 690.759 185.532 681.186 166.916C681.186 166.912 681.186 166.912 681.186 166.912C680.314 165.216 679.236 163.62 677.924 162.144C662.216 144.443 634.414 211.858 634.703 221.682C634.841 226.333 635.557 229.754 636.761 232.11Z" fill="#EB92AE"/>
<path d="M636.761 232.11C640.726 239.893 650.015 236.109 661.448 226.894C675.102 215.884 690.759 185.532 681.186 166.916C678.692 185.666 669.537 217.057 636.761 232.11Z" fill="#E188A4"/>
<path d="M659.433 175.394C656.784 180.303 653.173 188.833 654.795 189.864C656.452 190.921 663.61 184.186 667.561 175.989C670.258 170.393 671.953 163.081 670.405 162.304C668.649 161.424 662.885 168.991 659.433 175.394Z" fill="#FFD2E0"/>
<path d="M483.616 308.249C483.616 343.769 508.535 385.493 548.128 385.493C572.663 385.493 592.85 370.47 604.654 350.391C611.911 338.061 616.005 323.824 616.005 309.983C616.005 273.592 576.287 275.326 551.118 275.326C523.51 275.326 490.743 273.212 484.634 298.921C483.965 301.691 483.616 304.789 483.616 308.249Z" fill="#EB92AE"/>
<path d="M483.616 308.249C483.616 343.769 508.536 385.492 548.128 385.492C572.664 385.492 592.85 370.47 604.654 350.391C580.067 361.966 510.024 385.937 484.634 298.921C483.965 301.691 483.616 304.789 483.616 308.249Z" fill="#E188A4"/>
<path d="M602.298 295.871C607.441 304.258 603.804 316.192 594.973 320.877C585.637 325.83 572.939 321.39 569.466 311.545C566.17 302.196 572.521 291.712 581.624 288.774C588.924 286.418 598.023 288.899 602.298 295.871Z" fill="#FFD2E0"/>
<path d="M437.957 222.437C449.274 234.211 458.808 238.995 463.299 227.852C464.067 225.94 464.693 223.554 465.154 220.66C466.686 210.948 447.656 140.556 429.825 156.122C425.217 160.147 422.654 165.596 421.606 171.705C418.599 189.247 428.12 212.208 437.957 222.437Z" fill="#EB92AE"/>
<path d="M437.957 222.437C449.274 234.211 458.809 238.995 463.3 227.852C454.887 223.852 439.148 211.259 421.606 171.705C418.599 189.247 428.121 212.208 437.957 222.437Z" fill="#E188A4"/>
<path d="M445.668 183.621C449.287 194.057 456.402 211.487 458.369 210.862C460.142 210.296 457.976 194.972 451.488 180.916C447.872 173.085 442.535 164.828 441.228 165.415C439.602 166.135 444.542 180.372 445.668 183.621Z" fill="#FFD2E0"/>
<path d="M619.754 199.688C622.08 197.336 623.879 194.623 625.117 191.719C627.977 185.053 627.921 177.383 624.647 170.799C621.325 164.116 615.099 159.379 607.877 157.709C605.836 157.23 603.709 156.997 601.543 157.045C596.776 185.235 619.754 199.688 619.754 199.688Z" fill="#EB92AE"/>
<path d="M619.754 199.688C622.08 197.336 623.879 194.623 625.117 191.719C622.213 186.719 619.293 181.395 616.415 175.747C613.24 169.526 610.409 163.495 607.877 157.705C605.836 157.226 603.709 156.993 601.544 157.04C607.614 171.256 613.684 185.472 619.754 199.688Z" fill="#E188A4"/>
<path d="M480.773 228.878C483.517 264.057 564.272 275.218 601.893 253.729C612.347 247.758 619.465 239.263 620.665 228.072C626.17 176.58 591.828 129.662 552.688 129.886C538.498 129.968 521.871 135.495 508.143 147.605C490.545 163.106 477.692 189.407 480.773 228.878Z" fill="#EB92AE"/>
<path d="M480.773 228.878C483.516 264.057 564.272 275.218 601.893 253.729C578.854 257.689 510.257 266.491 497.715 233.486C486.929 205.106 499.842 167.08 508.143 147.601C490.544 163.107 477.692 189.407 480.773 228.878Z" fill="#E188A4"/>
<path d="M597.984 164.254C595.913 167.015 583.061 161.333 574.415 155.047C566.127 149.02 557.649 139.494 559.492 136.772C561.127 134.356 570.618 137.73 576.589 140.862C589.955 147.864 600.24 161.247 597.984 164.254Z" fill="#FFD2E0"/>
<path d="M616.984 218.912C616.734 228.317 611.039 237.274 608.714 236.679C606.272 236.053 607.199 224.819 608.287 218.64C608.597 216.867 610.513 206.017 613.045 206.047C615.039 206.073 617.144 212.82 616.984 218.912Z" fill="#FFD2E0"/>
<path d="M501.533 182.534C501.572 189.596 509.351 193.898 519.356 196.426C529.896 199.088 542.908 199.778 551.964 199.64C564.928 199.442 589.921 197.047 598.89 188.781C600.996 186.844 602.217 184.583 602.2 181.956C602.156 174.306 598.929 167.399 593.748 162.412C588.566 157.429 581.426 154.37 573.561 154.417L529.848 154.672C520.706 154.724 512.591 158.965 507.422 165.505C503.699 170.221 501.499 176.131 501.533 182.534Z" fill="#59001C"/>
<path d="M501.533 182.534C501.572 189.596 509.351 193.898 519.356 196.426C529.896 199.088 542.908 199.778 551.964 199.64C564.928 199.442 589.921 197.047 598.89 188.781C573.207 188.155 529.529 184.195 507.418 165.505C503.699 170.221 501.499 176.131 501.533 182.534Z" fill="#59001C"/>
<path d="M510.438 176.528C510.477 183.556 516.206 189.217 523.234 189.178C528.666 189.148 533.282 185.722 535.081 180.925C535.612 179.514 535.897 177.982 535.888 176.382C535.849 169.354 530.12 163.693 523.088 163.732C517.915 163.762 513.484 166.873 511.525 171.317C510.813 172.909 510.425 174.673 510.438 176.528Z" fill="#59001C"/>
<path d="M523.161 163.732C517.988 163.762 513.479 166.873 511.521 171.317C510.813 172.909 510.425 174.673 510.434 176.528C510.472 183.53 516.163 189.178 523.156 189.178C523.182 189.178 523.208 189.178 523.23 189.178C528.661 189.148 533.278 185.722 535.077 180.925C535.608 179.514 535.892 177.982 535.884 176.382C535.845 169.379 530.159 163.732 523.161 163.732ZM523.161 161.558C531.328 161.558 538.015 168.202 538.062 176.369C538.071 178.194 537.756 179.984 537.118 181.688C534.965 187.435 529.391 191.318 523.247 191.352H523.161C514.994 191.352 508.311 184.708 508.263 176.541C508.25 174.419 508.682 172.361 509.536 170.432C511.896 165.078 517.211 161.592 523.074 161.558H523.161Z" fill="#C26985"/>
<path d="M511.534 171.291C516.349 182.745 528.131 182.335 535.051 180.959C535.586 179.548 535.88 178.017 535.875 176.42C535.858 169.392 530.146 163.71 523.118 163.728C517.945 163.741 513.51 166.856 511.534 171.291Z" fill="#731A36"/>
<path d="M525.143 175.392C523.383 173.861 523.197 171.193 524.728 169.433C526.259 167.673 528.927 167.488 530.687 169.019C532.447 170.55 532.633 173.217 531.102 174.977C529.571 176.737 526.903 176.923 525.143 175.392Z" fill="#FFD2E0"/>
<path d="M513.199 178.983C512.509 179.453 513.48 183.88 516.638 185.554C519.446 187.047 523.144 185.921 523.226 185.105C523.286 184.505 521.362 184.355 518.139 182.426C514.744 180.394 513.678 178.655 513.199 178.983Z" fill="#FFD2E0"/>
<path d="M566.882 176.2C566.921 183.228 572.651 188.889 579.679 188.85C585.11 188.82 589.727 185.394 591.526 180.597C592.057 179.186 592.341 177.654 592.333 176.054C592.294 169.026 586.564 163.365 579.532 163.404C574.359 163.434 569.928 166.545 567.97 170.989C567.258 172.585 566.869 174.345 566.882 176.2Z" fill="#59001C"/>
<path d="M579.497 163.374C574.324 163.404 569.924 166.549 567.965 170.989C567.258 172.581 566.869 174.345 566.878 176.2C566.917 183.203 572.607 188.85 579.601 188.85C579.627 188.85 579.653 188.85 579.674 188.85C585.106 188.82 589.722 185.394 591.521 180.597C592.052 179.186 592.337 177.654 592.328 176.054C592.289 169.052 586.495 163.374 579.497 163.374ZM579.605 161.23C587.772 161.23 594.459 167.874 594.507 176.041C594.516 177.866 594.201 179.656 593.562 181.36C591.409 187.107 585.835 190.99 579.691 191.024H579.605C571.438 191.024 564.755 184.38 564.708 176.213C564.695 174.091 565.126 172.033 565.981 170.104C568.341 164.75 573.656 161.264 579.519 161.23H579.605Z" fill="#C26985"/>
<path d="M567.978 170.963C572.792 182.417 584.575 182.007 591.495 180.631C592.03 179.22 592.323 177.689 592.319 176.093C592.302 169.065 586.59 163.383 579.562 163.4C574.389 163.417 569.954 166.528 567.978 170.963Z" fill="#731A36"/>
<path d="M580.136 171.899C580.149 174.233 582.051 176.11 584.385 176.097C586.719 176.084 588.596 174.181 588.583 171.847C588.57 169.513 586.668 167.637 584.334 167.649C582.004 167.667 580.123 169.569 580.136 171.899Z" fill="#FFD2E0"/>
<path d="M569.643 178.655C568.953 179.125 569.924 183.552 573.082 185.226C575.89 186.719 579.588 185.593 579.67 184.777C579.73 184.178 577.806 184.027 574.583 182.098C571.188 180.07 570.122 178.327 569.643 178.655Z" fill="#FFD2E0"/>
<path d="M547.938 157.459C547.821 158.305 553.546 160.263 559.474 160.777C569.086 161.605 577.875 158.516 577.737 157.45C577.676 156.963 571.597 156.937 559.453 156.911C549.689 156.889 547.998 157.01 547.938 157.459Z" fill="#9B425E"/>
<path d="M624.453 175.419C624.707 175.217 630.721 170.311 634.376 160.781C637.719 152.057 639.63 137.643 629.755 118.483L626.373 120.226C633.681 134.399 635.217 147.95 630.821 159.418C627.529 167.999 622.123 172.408 622.071 172.456L624.453 175.419Z" fill="#EB92AE"/>
<path d="M620.899 122.718C616.853 119.969 615.801 114.46 618.55 110.415C621.3 106.369 626.808 105.317 630.854 108.066C634.9 110.816 635.951 116.324 633.202 120.37C630.453 124.416 624.944 125.467 620.899 122.718Z" fill="#7A213D"/>
<path d="M552.182 221.419C558.292 221.557 563.089 219.667 566.588 217.169C572.874 212.691 574.984 206.254 573.008 206.064C569.932 205.775 562.498 209.002 554.197 208.817C544.658 208.601 538.208 206.241 533.307 205.948C533.087 205.93 532.876 205.922 532.664 205.917C527.681 205.805 533.441 221 552.182 221.419Z" fill="#771E3A"/>
<path d="M552.183 221.419C558.292 221.557 563.089 219.667 566.588 217.169C558.318 215.974 542.078 212.859 533.307 205.943C533.087 205.926 532.876 205.917 532.665 205.913C527.682 205.805 533.441 221 552.183 221.419Z" fill="#771E3A"/>
<path d="M547.934 432.337C509.948 432.337 479.155 424.354 479.155 414.506C479.155 404.658 509.948 396.675 547.934 396.675C585.919 396.675 616.712 404.658 616.712 414.506C616.712 424.354 585.919 432.337 547.934 432.337Z" fill="#FFD8E4"/>
<path d="M624.988 117.572C622.364 117.475 620.315 115.27 620.412 112.646C620.508 110.022 622.714 107.973 625.338 108.07C627.961 108.166 630.01 110.372 629.914 112.996C629.817 115.619 627.612 117.668 624.988 117.572Z" fill="#9C435F"/>
<path d="M69.1137 226.993C69.1137 232.942 73.934 237.762 79.8827 237.762C84.4802 237.762 88.4022 234.885 89.9505 230.835C90.407 229.641 90.6553 228.348 90.6553 226.993C90.6553 221.045 85.835 216.224 79.8827 216.224C75.5043 216.224 71.7393 218.839 70.0595 222.589C69.4497 223.933 69.1137 225.423 69.1137 226.993Z" fill="#59001C"/>
<path d="M71.4368 229.086C70.8525 229.48 71.6486 233.23 74.3143 234.665C76.6843 235.94 79.8211 235.009 79.8942 234.315C79.9489 233.807 78.3203 233.668 75.5997 232.022C72.7368 230.287 71.8458 228.812 71.4368 229.086Z" fill="#FFD2E0"/>
<path d="M116.89 226.993C116.89 232.942 121.71 237.762 127.659 237.762C132.256 237.762 136.178 234.888 137.726 230.835C138.183 229.641 138.431 228.348 138.431 226.993C138.431 221.045 133.611 216.224 127.659 216.224C123.28 216.224 119.515 218.839 117.835 222.589C117.226 223.933 116.89 225.423 116.89 226.993Z" fill="#59001C"/>
<path d="M44.332 234.315C42.3528 232.336 40.8154 230.05 39.7527 227.596C37.2988 221.968 37.3097 215.476 40.0485 209.885C42.8275 204.21 48.075 200.171 54.1807 198.721C55.908 198.309 57.7046 198.101 59.5378 198.126C63.7081 221.968 44.332 234.315 44.332 234.315Z" fill="#EB92AE"/>
<path d="M44.3322 234.315C42.353 232.336 40.8156 230.05 39.7529 227.596C42.185 223.349 44.6316 218.828 47.0418 214.033C49.6966 208.753 52.0665 203.633 54.1772 198.721C55.9045 198.309 57.7012 198.101 59.5343 198.126C54.4694 210.192 49.4008 222.253 44.3322 234.315Z" fill="#E188A4"/>
<path d="M162.111 258.343C159.964 288.134 91.666 297.975 59.7171 279.969C50.8397 274.966 44.7706 267.812 43.7043 258.343C38.7927 214.789 67.6304 174.909 100.759 174.909C112.769 174.909 126.872 179.506 138.551 189.687C153.519 202.724 164.525 224.919 162.111 258.343Z" fill="#EB92AE"/>
<path d="M42.3965 213.496C42.1519 213.365 36.3894 210.221 31.8686 202.855C27.7312 196.118 23.9005 184.418 29.1444 166.944L32.2301 167.868C28.3191 180.905 29.0933 192.061 34.5271 201.022C38.5805 207.708 43.8718 210.626 43.9229 210.655L42.3965 213.496Z" fill="#EB92AE"/>
<path d="M31.9091 171.224C36.0496 171.224 39.4061 167.867 39.4061 163.727C39.4061 159.586 36.0496 156.23 31.9091 156.23C27.7686 156.23 24.4121 159.586 24.4121 163.727C24.4121 167.867 27.7686 171.224 31.9091 171.224Z" fill="#7A213D"/>
<path d="M144.386 232.033C144.386 238.01 137.824 241.691 129.366 243.875C120.46 246.179 109.446 246.829 101.781 246.756C90.8078 246.65 69.6423 244.744 62.0066 237.791C60.2172 236.163 59.1729 234.253 59.1729 232.029C59.1729 225.554 61.8678 219.693 66.2316 215.446C70.5955 211.203 76.6208 208.581 83.2779 208.581H120.277C128.015 208.581 134.906 212.127 139.314 217.641C142.494 221.621 144.386 226.613 144.386 232.033Z" fill="#59001C"/>
<path d="M144.386 232.033C144.386 238.01 137.823 241.691 129.366 243.875C120.46 246.179 109.446 246.829 101.781 246.756C90.8075 246.65 69.6421 244.744 62.0063 237.791C83.7414 237.138 120.693 233.574 139.313 217.641C142.494 221.621 144.386 226.613 144.386 232.033Z" fill="#59001C"/>
<path d="M102.8 273.633C95.7777 273.633 90.3184 271.143 86.3599 267.933C79.2537 262.178 76.9969 254.093 79.2756 253.914C82.8178 253.643 91.2715 257.872 100.813 257.872C111.78 257.872 119.251 255.111 124.889 254.881C125.141 254.867 125.386 254.863 125.631 254.863C131.349 254.859 124.342 273.633 102.8 273.633Z" fill="#59001C"/>
<path d="M162.111 258.343C159.964 288.134 91.6657 297.975 59.7168 279.969C79.2353 283.208 137.342 290.321 147.796 262.327C156.787 238.251 145.671 206.131 138.554 189.687C153.519 202.724 164.525 224.919 162.111 258.343Z" fill="#E188A4"/>
<path d="M62.5876 204.221C64.3514 206.551 75.2043 201.676 82.4932 196.315C89.4789 191.173 96.6107 183.066 95.0368 180.773C93.6382 178.735 85.6263 181.639 80.587 184.319C69.3031 190.308 60.6631 201.683 62.5876 204.221Z" fill="#FFD2E0"/>
<path d="M46.7719 250.572C47.0312 258.529 51.8917 266.085 53.8599 265.57C55.9232 265.029 55.0833 255.524 54.1338 250.302C53.8599 248.801 52.1911 239.628 50.0439 239.668C48.3568 239.697 46.604 245.42 46.7719 250.572Z" fill="#FFD2E0"/>
<path d="M126.051 216.224C130.429 216.224 134.198 218.839 135.877 222.589C136.487 223.933 136.823 225.427 136.823 226.993C136.823 232.942 132.003 237.762 126.054 237.762C121.457 237.762 117.535 234.885 115.986 230.835C115.53 229.641 115.282 228.348 115.282 226.993C115.278 221.045 120.098 216.224 126.051 216.224ZM126.051 214.384C119.094 214.384 113.438 220.04 113.438 226.993C113.438 228.538 113.715 230.053 114.263 231.488C116.114 236.342 120.851 239.603 126.051 239.603C133.003 239.603 138.66 233.946 138.66 226.993C138.66 225.197 138.287 223.458 137.55 221.83C135.527 217.309 131.013 214.384 126.051 214.384Z" fill="#C26985"/>
<path d="M135.867 222.567C131.846 232.288 121.873 231.996 116.009 230.868C115.548 229.677 115.293 228.384 115.289 227.03C115.271 221.081 120.077 216.246 126.025 216.224C130.404 216.21 134.176 218.821 135.867 222.567Z" fill="#731A36"/>
<path d="M122.005 226.993C123.979 226.993 125.58 225.393 125.58 223.418C125.58 221.444 123.979 219.843 122.005 219.843C120.03 219.843 118.43 221.444 118.43 223.418C118.43 225.393 120.03 226.993 122.005 226.993Z" fill="#FFD2E0"/>
<path d="M78.2752 216.224C82.6536 216.224 86.4222 218.839 88.102 222.589C88.7118 223.933 89.0478 225.427 89.0478 226.993C89.0478 232.942 84.2275 237.762 78.2788 237.762C73.6813 237.762 69.7593 234.888 68.211 230.835C67.7545 229.641 67.5062 228.348 67.5062 226.993C67.5026 221.045 72.3229 216.224 78.2752 216.224ZM78.2752 214.384C71.3186 214.384 65.6621 220.04 65.6621 226.993C65.6621 228.538 65.9396 230.053 66.4874 231.488C68.3388 236.342 73.0751 239.603 78.2752 239.603C85.2281 239.603 90.8846 233.946 90.8846 226.993C90.8846 225.197 90.5121 223.458 89.7745 221.83C87.7514 217.309 83.2379 214.384 78.2752 214.384Z" fill="#C26985"/>
<path d="M88.0907 222.567C84.0702 232.288 74.0973 231.996 68.2326 230.868C67.7725 229.677 67.5169 228.384 67.5132 227.03C67.495 221.081 72.3007 216.246 78.2493 216.224C82.6277 216.206 86.3963 218.821 88.0907 222.567Z" fill="#731A36"/>
<path d="M74.2288 226.993C76.2033 226.993 77.8039 225.393 77.8039 223.418C77.8039 221.444 76.2033 219.843 74.2288 219.843C72.2544 219.843 70.6538 221.444 70.6538 223.418C70.6538 225.393 72.2544 226.993 74.2288 226.993Z" fill="#FFD2E0"/>
<path d="M86.7214 229.082C87.3057 229.476 86.5096 233.227 83.8439 234.662C81.4739 235.936 78.3371 235.005 78.264 234.311C78.2093 233.804 79.8379 233.665 82.5585 232.018C85.4178 230.287 86.3124 228.808 86.7214 229.082Z" fill="#FFD2E0"/>
<path d="M104.988 211.035C105.094 211.751 100.251 213.434 95.2412 213.898C87.1088 214.647 79.6556 212.072 79.7689 211.17C79.82 210.758 84.9616 210.706 95.2412 210.626C103.501 210.56 104.933 210.659 104.988 211.035Z" fill="#9B425E"/>
<path d="M32.1037 165.544C34.2164 164.854 35.3697 162.582 34.6796 160.469C33.9895 158.357 31.7174 157.203 29.6047 157.893C27.492 158.584 26.3387 160.856 27.0288 162.968C27.7189 165.081 29.991 166.234 32.1037 165.544Z" fill="#933A56"/>
<path d="M102.8 273.633C95.7777 273.633 90.3183 271.142 86.3599 267.933C95.8945 266.676 114.632 263.247 124.886 254.878C125.138 254.863 125.382 254.859 125.627 254.859C131.349 254.859 124.341 273.633 102.8 273.633Z" fill="#771E3A"/>
<path d="M102.955 428.462C70.8029 428.462 44.7388 421.705 44.7388 413.37C44.7388 405.034 70.8029 398.277 102.955 398.277C135.106 398.277 161.17 405.034 161.17 413.37C161.17 421.705 135.106 428.462 102.955 428.462Z" fill="#FFD8E4"/>
<path d="M169.109 306.564C170.741 313.773 179.147 312.604 190.45 307.426C203.946 301.236 223.111 279.596 219.13 262.327C219.13 262.324 219.13 262.324 219.13 262.324C218.765 260.75 218.214 259.216 217.447 257.73C208.244 239.935 171.402 289.456 169.595 297.577C168.736 301.426 168.612 304.381 169.109 306.564Z" fill="#EB92AE"/>
<path d="M169.109 306.564C170.741 313.773 179.147 312.604 190.45 307.426C203.946 301.236 223.111 279.596 219.13 262.327C213.182 277.19 199.133 301.039 169.109 306.564Z" fill="#E188A4"/>
<path d="M199.517 264.752C196.321 268.228 191.585 274.473 192.699 275.66C193.838 276.872 201.113 272.837 206.061 266.936C209.438 262.904 212.353 257.259 211.242 256.302C209.986 255.214 203.683 260.22 199.517 264.752Z" fill="#FFD2E0"/>
<path d="M47.1053 325.484C47.1053 355.548 68.1976 390.864 101.71 390.864C122.477 390.864 139.563 378.149 149.554 361.154C155.697 350.717 159.162 338.667 159.162 326.952C159.162 296.149 125.544 297.617 104.24 297.617C80.8728 297.617 53.1379 295.828 47.9671 317.589C47.3974 319.933 47.1053 322.555 47.1053 325.484Z" fill="#EB92AE"/>
<path d="M47.105 325.484C47.105 355.548 68.1974 390.864 101.709 390.864C122.477 390.864 139.563 378.149 149.554 361.154C128.743 370.951 69.4572 391.24 47.9668 317.589C47.3972 319.933 47.105 322.555 47.105 325.484Z" fill="#E188A4"/>
<path d="M147.556 315.007C151.909 322.106 148.831 332.207 141.356 336.172C133.453 340.365 122.706 336.607 119.767 328.274C116.977 320.36 122.352 311.487 130.057 309C136.24 307.006 143.938 309.106 147.556 315.007Z" fill="#FFD2E0"/>
<path d="M0.735982 347.296C1.07194 361.114 4.29278 369.549 13.4623 365.16C15.0362 364.404 16.789 363.272 18.7317 361.727C25.2391 356.538 53.5838 301.711 33.5541 301.244C28.3759 301.123 23.6615 303.062 19.5168 306.276C7.61948 315.511 0.443844 335.289 0.735982 347.296Z" fill="#EB92AE"/>
<path d="M0.735506 347.296C1.07146 361.114 4.2923 369.549 13.4618 365.16C10.4929 357.853 7.86369 340.996 19.5127 306.276C7.61902 315.511 0.443368 335.289 0.735506 347.296Z" fill="#E188A4"/>
<path d="M27.7365 327.467C24.0337 336.052 18.5159 350.998 20.1008 351.736C21.5322 352.397 28.9343 341.592 32.9147 329.103C35.1313 322.146 36.5189 313.944 35.3686 313.561C33.9408 313.082 28.8868 324.797 27.7365 327.467Z" fill="#FFD2E0"/>
<defs>
<clipPath id="clip0_485_10545">
<rect width="581.033" height="432.758" fill="white" transform="translate(23.6353)"/>
</clipPath>
</defs>
</svg>
