<svg width="24" height="24" viewBox="0 0 24 24" fill="none" xmlns="http://www.w3.org/2000/svg">
<path d="M9 22H15C20 22 22 20 22 15V9C22 4 20 2 15 2H9C4 2 2 4 2 9V15C2 20 4 22 9 22Z" stroke="#8E8E8E" stroke-width="1.5" stroke-linecap="round" stroke-linejoin="round"/>
<path d="M18.3811 15.2702V7.58023C18.3811 6.81023 17.7611 6.25024 17.0011 6.31024H16.9611C15.6211 6.42024 13.5911 7.11025 12.4511 7.82025L12.3411 7.89026C12.1611 8.00026 11.8511 8.00026 11.6611 7.89026L11.5011 7.79025C10.3711 7.08025 8.3411 6.41023 7.0011 6.30023C6.2411 6.24023 5.62109 6.81025 5.62109 7.57025V15.2702C5.62109 15.8802 6.12108 16.4602 6.73108 16.5302L6.91107 16.5602C8.29107 16.7402 10.4311 17.4502 11.6511 18.1202L11.6811 18.1302C11.8511 18.2302 12.1311 18.2302 12.2911 18.1302C13.5111 17.4502 15.6611 16.7502 17.0511 16.5602L17.2611 16.5302C17.8811 16.4602 18.3811 15.8902 18.3811 15.2702Z" stroke="#8E8E8E" stroke-width="1.5" stroke-linecap="round" stroke-linejoin="round"/>
<path d="M12 8.10059V17.6606" stroke="#8E8E8E" stroke-width="1.5" stroke-linecap="round" stroke-linejoin="round"/>
</svg>
