<svg width="25" height="24" viewBox="0 0 25 24" fill="none" xmlns="http://www.w3.org/2000/svg">
<path d="M11.5 2H9.5C4.5 2 2.5 4 2.5 9V15C2.5 20 4.5 22 9.5 22H15.5C20.5 22 22.5 20 22.5 15V13" stroke="#646363" stroke-width="1.5" stroke-linecap="round" stroke-linejoin="round"/>
<path d="M16.5379 3.01928L8.65793 10.8993C8.35793 11.1993 8.05793 11.7893 7.99793 12.2193L7.56793 15.2293C7.40793 16.3193 8.17793 17.0793 9.26793 16.9293L12.2779 16.4993C12.6979 16.4393 13.2879 16.1393 13.5979 15.8393L21.4779 7.95928C22.8379 6.59928 23.4779 5.01928 21.4779 3.01928C19.4779 1.01928 17.8979 1.65928 16.5379 3.01928Z" stroke="#646363" stroke-width="1.5" stroke-miterlimit="10" stroke-linecap="round" stroke-linejoin="round"/>
<path d="M15.4062 4.15039C16.0763 6.54039 17.9463 8.41039 20.3463 9.09039" stroke="#646363" stroke-width="1.5" stroke-miterlimit="10" stroke-linecap="round" stroke-linejoin="round"/>
</svg>
