<svg width="191" height="227" viewBox="0 0 191 227" fill="none" xmlns="http://www.w3.org/2000/svg">
<path d="M129.121 179.267L38.5336 184.52C32.5687 184.867 26.9213 180.207 25.9193 174.116L0.152958 17.283C-0.849051 11.19 3.17735 5.97074 9.14219 5.62385L99.7295 0.370225C105.694 0.023337 111.342 4.68383 112.344 10.7742L138.11 167.607C139.11 173.701 135.086 178.92 129.121 179.267Z" fill="#A14864"/>
<path d="M118.419 10.4222L144.186 167.255C145.188 173.348 141.161 178.568 135.196 178.912L44.6091 184.166C38.6443 184.512 32.9968 179.855 31.9948 173.762L6.22848 16.9283C5.22909 10.8379 9.25287 5.61604 15.2177 5.2718L105.805 0.0181747C111.767 -0.328714 117.417 4.33175 118.419 10.4222Z" fill="#B25975"/>
<path d="M118.419 10.4222L118.766 12.5353C116.408 75.3062 61.6538 112.474 24.8758 130.44L6.22848 16.9283C5.22909 10.8379 9.25287 5.61604 15.2177 5.2718L105.805 0.0181747C111.767 -0.328714 117.417 4.33175 118.419 10.4222Z" fill="#CE7591"/>
<path d="M112.198 14.8708L134.15 148.489C135.016 153.761 131.532 158.276 126.373 158.575L46.6422 163.199C41.48 163.498 36.5932 159.47 35.725 154.196L13.7726 20.5773C12.907 15.3077 16.3904 10.7903 21.5526 10.491L101.283 5.86498C106.445 5.56841 111.332 9.59867 112.198 14.8708Z" fill="#FFD5E2"/>
<path d="M112.196 14.8709L115.515 35.0619C94.8239 105.385 31.254 126.971 31.254 126.971L13.7765 20.58C12.9109 15.3105 16.3943 10.793 21.5565 10.4937L101.287 5.86769C106.444 5.56847 111.331 9.59873 112.196 14.8709Z" fill="#FFE5ED"/>
<path d="M93.1559 175.718C95.6084 173.228 95.3645 168.969 92.6111 166.206C89.8576 163.442 85.6374 163.22 83.1848 165.711C80.7323 168.201 80.9762 172.46 83.7297 175.224C86.4831 177.987 90.7034 178.209 93.1559 175.718Z" fill="#DE85A1"/>
<path d="M87.3111 165.791C89.9709 165.638 92.4995 167.722 92.9455 170.439C93.3914 173.155 91.5893 175.491 88.9295 175.647C86.2698 175.801 83.7411 173.717 83.2952 171C82.8493 168.283 84.6514 165.945 87.3111 165.791ZM86.9282 163.456C83.0015 163.683 80.3522 167.121 81.0105 171.13C81.6689 175.141 85.3884 178.208 89.3151 177.98C93.2419 177.752 95.8912 174.315 95.2328 170.306C94.5718 166.294 90.8549 163.228 86.9282 163.456Z" fill="#9C435F"/>
<path d="M72.7036 169.125L40.537 170.992C39.6242 171.045 38.7612 170.332 38.6091 169.4C38.4569 168.468 39.0707 167.671 39.9836 167.618L72.1502 165.751C73.063 165.698 73.926 166.411 74.0781 167.343C74.2303 168.275 73.6164 169.072 72.7036 169.125Z" fill="#CE7591"/>
<path d="M133.316 165.608L101.826 167.435C100.913 167.488 100.05 166.776 99.8981 165.844C99.746 164.912 100.36 164.115 101.273 164.062L132.762 162.235C133.675 162.182 134.538 162.894 134.69 163.826C134.843 164.758 134.229 165.555 133.316 165.608Z" fill="#CE7591"/>
<path d="M125.108 153.793L47.2291 158.31C44.7345 158.456 42.3764 156.507 41.9567 153.962C41.537 151.415 43.221 149.233 45.7129 149.09L123.592 144.573C126.086 144.427 128.444 146.376 128.864 148.921C129.284 151.468 127.6 153.65 125.108 153.793Z" fill="#FFF6F9"/>
<path d="M73.8317 26.1673C74.1858 28.3228 73.8054 30.314 72.9031 31.7969C72.0034 33.2745 70.5791 34.241 68.8505 34.339L35.1599 36.2932L25.3182 42.9741C25.5254 42.6325 26.4461 38.7877 27.1779 35.6312C25.1319 34.3708 23.5083 31.9531 23.0414 29.1145C22.6873 26.959 23.0676 24.9624 23.9673 23.4822C24.8696 22.0046 26.2914 21.0381 28.02 20.9401L66.2825 18.7211C69.7423 18.5198 73.1208 21.851 73.8317 26.1673Z" fill="#FFA9C4"/>
<path d="M66.0994 28.5821L30.7327 30.6344C29.4868 30.7058 28.3064 29.734 28.0965 28.4603C27.8867 27.1866 28.7287 26.0957 29.9746 26.0242L65.3414 23.972C66.5873 23.9005 67.7677 24.8723 67.9776 26.146C68.1874 27.4197 67.3454 28.5107 66.0994 28.5821Z" fill="#FFC7D9"/>
<path d="M79.5816 105.099C79.9357 107.254 80.8066 109.174 81.9319 110.538C83.0545 111.899 84.4264 112.701 85.7851 112.622L112.239 111.086L121.739 116.644C121.48 116.329 119.657 112.646 118.177 109.616C119.384 108.168 119.929 105.623 119.463 102.784C119.108 100.629 118.238 98.7065 117.115 97.3428C115.992 95.9817 114.62 95.1794 113.262 95.2588L83.2171 97.0012C80.5023 97.1601 78.8734 100.783 79.5816 105.099Z" fill="#FFA9C4"/>
<path d="M86.4515 106.669L113.765 105.086C114.87 105.022 115.615 104.056 115.431 102.927L115.345 102.403C115.158 101.275 114.114 100.412 113.007 100.475L85.6934 102.059C84.5891 102.123 83.8442 103.089 84.0278 104.217L84.1143 104.741C84.3006 105.869 85.3472 106.733 86.4515 106.669Z" fill="#FFC7D9"/>
<path d="M73.6914 82.8665C74.1059 85.398 73.9118 87.7203 73.2587 89.4335C72.6081 91.1441 71.4986 92.2457 70.0874 92.3252L42.6082 93.9193L34.9384 101.535C35.0879 101.14 35.6177 96.6599 36.0348 92.9819C34.2879 91.4672 32.8137 88.6021 32.2681 85.2682C31.851 82.7367 32.0478 80.4118 32.6983 78.6959C33.3514 76.9853 34.4584 75.8837 35.8696 75.8043L67.0761 73.993C69.8959 73.8315 72.8573 77.8009 73.6914 82.8665Z" fill="#FFA9C4"/>
<path d="M66.7182 82.0055L38.2711 83.6552C37.1458 83.7214 36.0782 82.8423 35.8893 81.6904L35.8159 81.2429C35.627 80.0936 36.3877 79.1086 37.513 79.0424L65.9601 77.3927C67.0854 77.3265 68.153 78.2056 68.3418 79.3575L68.4153 79.805C68.6041 80.9542 67.8435 81.9393 66.7182 82.0055Z" fill="#FFC7D9"/>
<path d="M58.3477 90.0951L39.1679 91.2073C38.2289 91.2629 37.3423 90.5294 37.1849 89.5708L36.9986 88.4295C36.8413 87.4709 37.4734 86.65 38.4125 86.5971L57.5923 85.4849C58.5313 85.4293 59.418 86.1628 59.5753 87.1214L59.7642 88.2627C59.919 89.2186 59.2841 90.0395 58.3477 90.0951Z" fill="#FFC7D9"/>
<path d="M109.188 61.5946C110.935 66.0035 113.367 72.1045 113.579 72.5335C113.812 72.9969 103.635 67.918 97.1088 64.6292L74.5689 65.9373C69.2126 66.2471 64.1422 62.0686 63.2425 56.5952L62.2956 50.8331C61.3959 45.3623 65.0104 40.6754 70.3667 40.3656L99.1391 38.6973C104.498 38.3875 109.568 42.5687 110.468 48.0395L111.415 53.8015C111.916 56.852 111.014 59.6563 109.188 61.5946Z" fill="#FFA9C4"/>
<path d="M103.177 49.2819L69.8558 51.2149C68.6098 51.2864 67.4294 50.3146 67.2196 49.0409C67.0097 47.7672 67.8517 46.6762 69.0977 46.6047L102.418 44.6717C103.664 44.6002 104.845 45.572 105.055 46.8457C105.264 48.1167 104.422 49.2077 103.177 49.2819Z" fill="#FFC7D9"/>
<path d="M87.1596 59.7516L71.3425 60.6678C70.1307 60.7393 68.9844 59.7913 68.7824 58.5547L68.2709 55.4406C68.069 54.204 68.8847 53.1448 70.0966 53.0733L85.9136 52.1571C87.1255 52.0856 88.2718 53.0336 88.4737 54.2702L88.9852 57.3843C89.1898 58.6209 88.3714 59.6828 87.1596 59.7516Z" fill="#FFC7D9"/>
<path d="M104.793 58.7296L94.1434 59.3466C92.9315 59.4181 91.7852 58.4701 91.5833 57.2335L91.0717 54.1194C90.8697 52.8828 91.6856 51.8236 92.8974 51.7521L103.547 51.1351C104.759 51.0636 105.905 52.0116 106.107 53.2482L106.619 56.3623C106.823 57.5989 106.005 58.6608 104.793 58.7296Z" fill="#FFC7D9"/>
<path d="M122.038 131.976L124.213 140.034L113.896 133.377L99.7972 134.195C96.9826 134.359 94.3202 132.161 93.8481 129.291L93.3943 126.524C92.9221 123.651 94.8212 121.188 97.6331 121.027L117.13 119.896C119.945 119.732 122.607 121.93 123.079 124.803L123.533 127.57C123.824 129.344 123.211 130.962 122.038 131.976Z" fill="#FFA9C4"/>
<path d="M99.3265 129.609L118.22 128.513C119.466 128.441 120.308 127.35 120.098 126.076C119.889 124.803 118.708 123.828 117.462 123.902L98.5684 124.999C97.3224 125.07 96.4804 126.161 96.6903 127.435C96.9001 128.709 98.0805 129.68 99.3265 129.609Z" fill="#FFC7D9"/>
<path d="M188.405 150.292C188.405 172.093 173.254 197.702 149.183 197.702C134.265 197.702 121.992 188.482 114.815 176.158C110.403 168.59 107.914 159.852 107.914 151.357C107.914 129.021 132.062 130.085 147.365 130.085C164.15 130.085 184.072 128.788 187.786 144.567C188.193 146.267 188.405 148.171 188.405 150.292Z" fill="#EB92AE"/>
<path d="M188.404 150.292C188.404 172.093 173.254 197.702 149.182 197.702C134.264 197.702 121.991 188.482 114.814 176.158C129.763 183.263 172.349 197.975 187.785 144.567C188.192 146.267 188.404 148.171 188.404 150.292Z" fill="#E188A4"/>
<path d="M128.746 138.712C125.62 143.86 127.831 151.185 133.2 154.06C138.877 157.1 146.596 154.375 148.708 148.333C150.712 142.594 146.851 136.16 141.316 134.356C136.878 132.908 131.346 134.431 128.746 138.712Z" fill="#FFD2E0"/>
<path d="M106.833 152.88C118.296 154.633 125.735 153.189 123.445 144.896C123.051 143.471 122.372 141.843 121.378 139.997C118.039 133.806 76.8802 102.099 73.5725 118.734C72.72 123.034 73.6302 127.252 75.6841 131.182C81.5781 142.46 96.8679 151.357 106.833 152.88Z" fill="#EB92AE"/>
<path d="M106.832 152.879C118.295 154.632 125.734 153.189 123.444 144.896C116.976 146.296 102.667 146.01 75.6836 131.182C81.5776 142.459 96.8674 151.357 106.832 152.879Z" fill="#E188A4"/>
<path d="M94.3897 127.445C100.942 131.799 112.486 138.599 113.323 137.383C114.078 136.287 106.23 128.523 96.496 123.365C91.0742 120.492 84.4981 118.127 84.0155 119.03C83.4122 120.153 92.349 126.09 94.3897 127.445Z" fill="#FFD2E0"/>
<path d="M190.76 101.609C189.218 123.211 140.159 130.348 117.21 117.29C110.833 113.663 106.474 108.475 105.708 101.609C102.182 70.0236 122.894 41.1074 146.693 41.1074C155.32 41.1074 165.45 44.4412 173.839 51.8239C184.591 61.2746 192.497 77.3718 190.76 101.609Z" fill="#EB92AE"/>
<path d="M120.637 105.626C118.497 104.921 117.104 103.536 116.246 102.061C114.707 99.4135 114.896 96.4689 115.609 96.6383C116.719 96.9031 118.4 100.42 121.306 101.376C124.648 102.475 127.659 101.047 129.404 101.535C129.482 101.556 129.556 101.577 129.632 101.603C131.376 102.175 127.203 107.784 120.637 105.626Z" fill="#7A213D"/>
<path d="M190.76 101.609C189.217 123.211 140.158 130.348 117.209 117.29C131.229 119.639 172.967 124.797 180.477 104.498C186.935 87.0395 178.951 63.7477 173.838 51.8237C184.59 61.2745 192.496 77.3717 190.76 101.609Z" fill="#E188A4"/>
<path d="M157.086 85.7868C156.189 90.0262 151.541 91.7528 145.935 92.1659C140.031 92.6028 133.061 91.5806 128.287 90.4949C121.454 88.9432 108.53 84.7435 104.808 78.7855C103.935 77.39 103.57 75.8939 103.903 74.3183C104.874 69.7267 107.219 65.0423 110.576 62.6168C113.936 60.1965 118.309 60.0376 122.467 60.9353L145.56 65.9135C150.392 66.9542 154.158 70.3966 156.081 74.9009C157.469 78.15 157.899 81.9445 157.086 85.7868Z" fill="#59001C"/>
<path d="M157.086 85.7868C156.189 90.0263 151.541 91.7528 145.936 92.1659C140.031 92.6028 133.062 91.5807 128.288 90.495C121.455 88.9432 108.531 84.7435 104.809 78.7855C118.472 81.2482 142.069 83.6896 156.082 74.9009C157.469 78.15 157.899 81.9446 157.086 85.7868Z" fill="#59001C"/>
<path d="M137.259 66.2341C137.217 66.7558 133.944 67.2986 130.746 66.9517C125.558 66.3877 121.293 63.5596 121.497 62.9347C121.592 62.6487 124.808 63.3054 131.237 64.6294C136.404 65.6966 137.283 65.9587 137.259 66.2341Z" fill="#9B425E"/>
<path d="M122.553 72.0464C122.553 75.9548 119.413 79.1245 115.541 79.1245C112.548 79.1245 109.994 77.2338 108.986 74.5699C108.69 73.7861 108.527 72.9361 108.527 72.0464C108.527 68.1379 111.667 64.9683 115.541 64.9683C118.393 64.9683 120.845 66.6868 121.939 69.1521C122.333 70.0339 122.553 71.0136 122.553 72.0464Z" fill="#59001C"/>
<path d="M115.539 64.9654C118.39 64.9654 120.843 66.684 121.937 69.1493C122.333 70.0337 122.553 71.0135 122.553 72.0462C122.553 75.9546 119.413 79.1243 115.542 79.1243C112.549 79.1243 109.994 77.2336 108.987 74.5697C108.69 73.7859 108.528 72.9359 108.528 72.0462C108.525 68.1351 111.662 64.9654 115.539 64.9654ZM115.539 63.6309C110.941 63.6309 107.203 67.4043 107.203 72.0436C107.203 73.0736 107.387 74.0852 107.749 75.0437C108.971 78.2823 112.103 80.4562 115.539 80.4562C120.135 80.4562 123.873 76.6829 123.873 72.0436C123.873 70.844 123.626 69.6842 123.141 68.5985C121.803 65.5824 118.821 63.6309 115.539 63.6309Z" fill="#C26985"/>
<path d="M121.934 69.1442C119.317 75.5339 112.819 75.3353 109 74.5938C108.701 73.81 108.536 72.96 108.533 72.0703C108.52 68.1618 111.649 64.9816 115.526 64.9683C118.375 64.9551 120.833 66.6816 121.934 69.1442Z" fill="#731A36"/>
<path d="M115.182 70.2806C115.478 69.0168 114.703 67.7502 113.451 67.4518C112.199 67.1534 110.944 67.9361 110.649 69.1999C110.353 70.4638 111.128 71.7302 112.38 72.0286C113.632 72.3271 114.887 71.5445 115.182 70.2806Z" fill="#FFD2E0"/>
<path d="M121.04 73.421C121.42 73.6805 120.901 76.1458 119.167 77.0885C117.625 77.9279 115.581 77.3136 115.534 76.8581C115.5 76.5245 116.557 76.4345 118.33 75.3514C120.193 74.2128 120.775 73.241 121.04 73.421Z" fill="#FFD2E0"/>
<path d="M148.957 79.1245C148.957 83.033 145.817 86.2026 141.946 86.2026C138.953 86.2026 136.398 84.3119 135.391 81.648C135.094 80.8642 134.932 80.0143 134.932 79.1245C134.932 75.2161 138.071 72.0464 141.946 72.0464C144.797 72.0464 147.25 73.765 148.343 76.2302C148.737 77.1147 148.957 78.0945 148.957 79.1245Z" fill="#59001C"/>
<path d="M141.943 72.0465C144.794 72.0465 147.247 73.7651 148.34 76.2303C148.737 77.1148 148.957 78.0946 148.957 79.1273C148.957 83.0384 145.817 86.2054 141.945 86.2054C138.953 86.2054 136.398 84.3147 135.39 81.6508C135.094 80.867 134.931 80.017 134.931 79.1273C134.929 75.2162 138.069 72.0465 141.943 72.0465ZM141.945 70.7119C137.347 70.7119 133.609 74.4853 133.609 79.1246C133.609 80.1547 133.793 81.1662 134.155 82.1248C135.377 85.3633 138.509 87.5373 141.945 87.5373C146.541 87.5373 150.279 83.7639 150.279 79.1246C150.279 77.9251 150.032 76.7653 149.547 75.6796C148.209 72.6635 145.224 70.7119 141.945 70.7119Z" fill="#C26985"/>
<path d="M148.334 76.2146C145.716 82.6042 139.222 82.4135 135.403 81.6695C135.103 80.8856 134.938 80.0356 134.936 79.1459C134.922 75.2374 138.052 72.0572 141.929 72.044C144.777 72.036 147.233 73.7546 148.334 76.2146Z" fill="#731A36"/>
<path d="M141.589 77.3636C141.884 76.0997 141.109 74.8333 139.857 74.5348C138.605 74.2364 137.35 75.019 137.055 76.2828C136.759 77.5467 137.534 78.8132 138.786 79.1116C140.038 79.4101 141.293 78.6274 141.589 77.3636Z" fill="#FFD2E0"/>
<path d="M147.442 80.5016C147.822 80.7611 147.303 83.2264 145.569 84.1691C144.027 85.0085 141.984 84.3942 141.936 83.9387C141.902 83.6051 142.959 83.5151 144.733 82.432C146.595 81.2908 147.177 80.3216 147.442 80.5016Z" fill="#FFD2E0"/>
<path d="M150.656 49.0722C150.628 48.8736 149.956 44.1601 152.246 38.3372C154.342 33.0094 159.42 25.7009 171.725 21.1543L172.52 23.3469C163.339 26.7389 157.256 32.0349 154.442 39.0839C152.34 44.3428 152.939 48.6829 152.946 48.7253L150.656 49.0722Z" fill="#EB92AE"/>
<path d="M180.086 22.124C180.51 19.1522 178.467 16.3963 175.523 15.9684C172.579 15.5406 169.849 17.6029 169.426 20.5747C169.002 23.5464 171.045 26.3024 173.988 26.7302C176.932 27.1581 179.662 25.0958 180.086 22.124Z" fill="#7A213D"/>
<path d="M175.549 22.8063C177.144 22.747 178.39 21.3933 178.331 19.7828C178.272 18.1723 176.931 16.9148 175.336 16.9742C173.741 17.0335 172.495 18.3871 172.554 19.9976C172.612 21.6081 173.953 22.8656 175.549 22.8063Z" fill="#9C435F"/>
<path d="M160.391 50.2665C161.152 54.8846 152.782 61.0518 144.75 61.8012C137.618 62.4685 128.914 59.034 128.466 54.6145C127.988 49.9329 136.826 44.523 144.75 43.9378C151.195 43.4638 159.685 45.982 160.391 50.2665Z" fill="#FFD2E0"/>
<path d="M147.561 226.041C170.656 226.041 189.378 221.141 189.378 215.097C189.378 209.053 170.656 204.153 147.561 204.153C124.466 204.153 105.744 209.053 105.744 215.097C105.744 221.141 124.466 226.041 147.561 226.041Z" fill="#FFD8E4"/>
</svg>
