<svg width="106" height="31" viewBox="0 0 106 31" fill="none" xmlns="http://www.w3.org/2000/svg">
<path d="M6.808 24.32C5.89067 24.32 4.92 24.224 3.896 24.032C2.872 23.84 1.95467 23.5093 1.144 23.04C0.802667 22.8267 0.557333 22.5813 0.408 22.304C0.28 22.0053 0.226667 21.7173 0.248 21.44C0.290667 21.1413 0.397333 20.8853 0.568 20.672C0.76 20.4587 0.994667 20.32 1.272 20.256C1.57067 20.192 1.89067 20.2453 2.232 20.416C3.08533 20.8213 3.88533 21.1093 4.632 21.28C5.37867 21.4293 6.11467 21.504 6.84 21.504C7.864 21.504 8.62133 21.3333 9.112 20.992C9.624 20.6293 9.88 20.16 9.88 19.584C9.88 19.0933 9.70933 18.72 9.368 18.464C9.048 18.1867 8.55733 17.984 7.896 17.856L4.696 17.248C3.37333 16.992 2.36 16.512 1.656 15.808C0.973333 15.0827 0.632 14.1547 0.632 13.024C0.632 12 0.909333 11.1147 1.464 10.368C2.04 9.62133 2.82933 9.04533 3.832 8.64C4.83467 8.23467 5.98667 8.032 7.288 8.032C8.22667 8.032 9.10133 8.13867 9.912 8.352C10.744 8.544 11.544 8.85333 12.312 9.28C12.632 9.45067 12.8453 9.67467 12.952 9.952C13.08 10.2293 13.112 10.5173 13.048 10.816C12.984 11.0933 12.856 11.3493 12.664 11.584C12.472 11.7973 12.2267 11.936 11.928 12C11.6507 12.0427 11.3307 11.9787 10.968 11.808C10.3067 11.4667 9.66667 11.2213 9.048 11.072C8.45067 10.9227 7.87467 10.848 7.32 10.848C6.27467 10.848 5.496 11.0293 4.984 11.392C4.49333 11.7547 4.248 12.2347 4.248 12.832C4.248 13.28 4.39733 13.6533 4.696 13.952C4.99467 14.2507 5.45333 14.4533 6.072 14.56L9.272 15.168C10.6587 15.424 11.704 15.8933 12.408 16.576C13.1333 17.2587 13.496 18.176 13.496 19.328C13.496 20.8853 12.888 22.112 11.672 23.008C10.456 23.8827 8.83467 24.32 6.808 24.32ZM23.7168 24.32C22.3301 24.32 21.1674 24.0853 20.2288 23.616C19.3114 23.1467 18.6288 22.464 18.1808 21.568C17.7328 20.6507 17.5088 19.52 17.5088 18.176V11.36H15.8448C15.3328 11.36 14.9381 11.232 14.6608 10.976C14.3834 10.6987 14.2447 10.3253 14.2447 9.856C14.2447 9.36533 14.3834 8.992 14.6608 8.736C14.9381 8.48 15.3328 8.352 15.8448 8.352H17.5088V5.44C17.5088 4.77867 17.6794 4.27733 18.0208 3.936C18.3834 3.59467 18.8848 3.424 19.5248 3.424C20.1648 3.424 20.6554 3.59467 20.9968 3.936C21.3381 4.27733 21.5088 4.77867 21.5088 5.44V8.352H24.9008C25.4128 8.352 25.8074 8.48 26.0848 8.736C26.3621 8.992 26.5008 9.36533 26.5008 9.856C26.5008 10.3253 26.3621 10.6987 26.0848 10.976C25.8074 11.232 25.4128 11.36 24.9008 11.36H21.5088V17.952C21.5088 18.976 21.7328 19.744 22.1808 20.256C22.6288 20.768 23.3541 21.024 24.3568 21.024C24.7194 21.024 25.0394 20.992 25.3168 20.928C25.5941 20.864 25.8394 20.8213 26.0528 20.8C26.3088 20.7787 26.5221 20.864 26.6928 21.056C26.8634 21.2267 26.9488 21.5893 26.9488 22.144C26.9488 22.5707 26.8741 22.9547 26.7248 23.296C26.5968 23.616 26.3514 23.84 25.9888 23.968C25.7114 24.0533 25.3488 24.128 24.9008 24.192C24.4528 24.2773 24.0581 24.32 23.7168 24.32ZM35.8098 24.32C34.1884 24.32 32.7804 23.9893 31.5858 23.328C30.3911 22.6667 29.4631 21.728 28.8018 20.512C28.1404 19.2747 27.8098 17.824 27.8098 16.16C27.8098 14.9013 27.9911 13.7813 28.3538 12.8C28.7378 11.7973 29.2818 10.944 29.9858 10.24C30.6898 9.51467 31.5324 8.97067 32.5138 8.608C33.4951 8.224 34.5938 8.032 35.8098 8.032C37.4311 8.032 38.8391 8.36267 40.0338 9.024C41.2284 9.68533 42.1564 10.624 42.8178 11.84C43.4791 13.056 43.8098 14.496 43.8098 16.16C43.8098 17.4187 43.6178 18.5493 43.2338 19.552C42.8711 20.5547 42.3378 21.4187 41.6338 22.144C40.9298 22.848 40.0871 23.392 39.1058 23.776C38.1244 24.1387 37.0258 24.32 35.8098 24.32ZM35.8098 21.28C36.5991 21.28 37.2924 21.088 37.8898 20.704C38.4871 20.32 38.9458 19.7547 39.2658 19.008C39.6071 18.24 39.7778 17.2907 39.7778 16.16C39.7778 14.4533 39.4151 13.184 38.6898 12.352C37.9644 11.4987 37.0044 11.072 35.8098 11.072C35.0204 11.072 34.3271 11.264 33.7298 11.648C33.1324 12.0107 32.6631 12.576 32.3218 13.344C32.0018 14.0907 31.8418 15.0293 31.8418 16.16C31.8418 17.8453 32.2044 19.1253 32.9298 20C33.6551 20.8533 34.6151 21.28 35.8098 21.28ZM49.1593 24.256C48.4979 24.256 47.9859 24.0853 47.6233 23.744C47.2819 23.3813 47.1113 22.8693 47.1113 22.208V10.112C47.1113 9.45067 47.2819 8.94933 47.6233 8.608C47.9646 8.26667 48.4446 8.096 49.0633 8.096C49.6819 8.096 50.1619 8.26667 50.5033 8.608C50.8446 8.94933 51.0153 9.45067 51.0153 10.112V12.128H50.6953C50.9939 10.848 51.5806 9.87733 52.4553 9.216C53.3299 8.55467 54.4926 8.16 55.9433 8.032C56.3913 7.98933 56.7433 8.10667 56.9993 8.384C57.2766 8.64 57.4366 9.04533 57.4793 9.6C57.5219 10.1333 57.3939 10.5707 57.0953 10.912C56.8179 11.232 56.3913 11.424 55.8153 11.488L55.1113 11.552C53.8099 11.68 52.8286 12.0853 52.1673 12.768C51.5059 13.4293 51.1753 14.368 51.1753 15.584V22.208C51.1753 22.8693 51.0046 23.3813 50.6633 23.744C50.3219 24.0853 49.8206 24.256 49.1593 24.256ZM64.5793 30.016C64.1099 30.016 63.7259 29.888 63.4273 29.632C63.1286 29.3973 62.9473 29.0773 62.8833 28.672C62.8406 28.2667 62.9153 27.84 63.1073 27.392L65.2833 22.56V24.224L59.4593 10.752C59.2673 10.2827 59.2033 9.84533 59.2673 9.44C59.3313 9.03467 59.5233 8.71467 59.8433 8.48C60.1846 8.224 60.6433 8.096 61.2193 8.096C61.7099 8.096 62.1046 8.21333 62.4033 8.448C62.7019 8.66133 62.9686 9.07733 63.2033 9.696L67.5233 20.48H66.5633L70.9793 9.664C71.2139 9.06667 71.4913 8.66133 71.8113 8.448C72.1313 8.21333 72.5579 8.096 73.0913 8.096C73.5606 8.096 73.9339 8.224 74.2113 8.48C74.4886 8.71467 74.6593 9.03467 74.7233 9.44C74.7873 9.824 74.7126 10.2507 74.4993 10.72L66.7233 28.48C66.4459 29.0773 66.1473 29.4827 65.8273 29.696C65.5073 29.9093 65.0913 30.016 64.5793 30.016ZM77.8438 24.16C77.1184 24.16 76.5318 23.936 76.0838 23.488C75.6571 23.04 75.4438 22.464 75.4438 21.76C75.4438 21.0773 75.6571 20.5227 76.0838 20.096C76.5318 19.648 77.1184 19.424 77.8438 19.424C78.5904 19.424 79.1664 19.648 79.5718 20.096C79.9984 20.5227 80.2118 21.0773 80.2118 21.76C80.2118 22.464 79.9984 23.04 79.5718 23.488C79.1664 23.936 78.5904 24.16 77.8438 24.16ZM88.9195 24.32C87.7888 24.32 86.7755 24.1067 85.8795 23.68C85.0048 23.232 84.3115 22.6347 83.7995 21.888C83.3088 21.1413 83.0635 20.2987 83.0635 19.36C83.0635 18.208 83.3622 17.3013 83.9595 16.64C84.5568 15.9573 85.5275 15.4667 86.8715 15.168C88.2155 14.8693 90.0182 14.72 92.2795 14.72H93.8795V17.024H92.3115C90.9888 17.024 89.9328 17.088 89.1435 17.216C88.3542 17.344 87.7888 17.568 87.4475 17.888C87.1275 18.1867 86.9675 18.6133 86.9675 19.168C86.9675 19.872 87.2128 20.448 87.7035 20.896C88.1942 21.344 88.8768 21.568 89.7515 21.568C90.4555 21.568 91.0742 21.408 91.6075 21.088C92.1622 20.7467 92.5995 20.288 92.9195 19.712C93.2395 19.136 93.3995 18.4747 93.3995 17.728V14.048C93.3995 12.9813 93.1648 12.2133 92.6955 11.744C92.2262 11.2747 91.4368 11.04 90.3275 11.04C89.7088 11.04 89.0368 11.1147 88.3115 11.264C87.6075 11.4133 86.8608 11.6693 86.0715 12.032C85.6662 12.224 85.3035 12.2773 84.9835 12.192C84.6848 12.1067 84.4502 11.936 84.2795 11.68C84.1088 11.4027 84.0235 11.104 84.0235 10.784C84.0235 10.464 84.1088 10.1547 84.2795 9.856C84.4502 9.536 84.7382 9.30133 85.1435 9.152C86.1248 8.74667 87.0635 8.45867 87.9595 8.288C88.8768 8.11733 89.7088 8.032 90.4555 8.032C91.9915 8.032 93.2502 8.26667 94.2315 8.736C95.2342 9.20533 95.9808 9.92 96.4715 10.88C96.9622 11.8187 97.2075 13.0347 97.2075 14.528V22.208C97.2075 22.8693 97.0475 23.3813 96.7275 23.744C96.4075 24.0853 95.9488 24.256 95.3515 24.256C94.7542 24.256 94.2848 24.0853 93.9435 23.744C93.6235 23.3813 93.4635 22.8693 93.4635 22.208V20.672H93.7195C93.5702 21.4187 93.2715 22.0693 92.8235 22.624C92.3968 23.1573 91.8528 23.5733 91.1915 23.872C90.5302 24.1707 89.7728 24.32 88.9195 24.32ZM103.252 24.224C102.612 24.224 102.121 24.032 101.78 23.648C101.438 23.264 101.268 22.7307 101.268 22.048V10.304C101.268 9.6 101.438 9.06667 101.78 8.704C102.121 8.32 102.612 8.128 103.252 8.128C103.892 8.128 104.382 8.32 104.724 8.704C105.086 9.06667 105.268 9.6 105.268 10.304V22.048C105.268 22.7307 105.097 23.264 104.756 23.648C104.414 24.032 103.913 24.224 103.252 24.224ZM103.252 5.152C102.505 5.152 101.918 4.97067 101.492 4.608C101.086 4.224 100.884 3.70133 100.884 3.04C100.884 2.35733 101.086 1.83467 101.492 1.472C101.918 1.10933 102.505 0.927999 103.252 0.927999C104.02 0.927999 104.606 1.10933 105.012 1.472C105.417 1.83467 105.62 2.35733 105.62 3.04C105.62 3.70133 105.417 4.224 105.012 4.608C104.606 4.97067 104.02 5.152 103.252 5.152Z" fill="#AA0136"/>
</svg>
