<svg width="41" height="40" viewBox="0 0 41 40" fill="none" xmlns="http://www.w3.org/2000/svg">
<g clip-path="url(#clip0_16_8370)">
<path d="M25.8826 10.2734H15.0779V29.6877H25.8826V10.2734Z" fill="#FF5F00"/>
<path d="M15.7638 19.9806C15.7638 16.036 17.6161 12.5373 20.463 10.2735C18.3707 8.62705 15.7295 7.63232 12.8483 7.63232C6.02244 7.63232 0.5 13.1548 0.5 19.9806C0.5 26.8064 6.02244 32.3289 12.8483 32.3289C15.7295 32.3289 18.3707 31.3341 20.463 29.6877C17.6161 27.4582 15.7638 23.9252 15.7638 19.9806Z" fill="#EB001B"/>
<path d="M40.4604 19.9806C40.4604 26.8064 34.938 32.3289 28.1121 32.3289C25.2308 32.3289 22.5897 31.3341 20.4973 29.6877C23.3786 27.4239 25.1965 23.9252 25.1965 19.9806C25.1965 16.036 23.3443 12.5373 20.4973 10.2735C22.5897 8.62705 25.2308 7.63232 28.1121 7.63232C34.938 7.63232 40.4604 13.189 40.4604 19.9806Z" fill="#F79E1B"/>
</g>
<defs>
<clipPath id="clip0_16_8370">
<rect width="40" height="40" fill="white" transform="translate(0.5)"/>
</clipPath>
</defs>
</svg>
