<svg width="30" height="34" viewBox="0 0 30 34" fill="none" xmlns="http://www.w3.org/2000/svg">
<path d="M21.6667 0.333496H8.33333C2.5 0.333496 0 3.66683 0 8.66683V25.3335C0 30.3335 2.5 33.6668 8.33333 33.6668H21.6667C27.5 33.6668 30 30.3335 30 25.3335V8.66683C30 3.66683 27.5 0.333496 21.6667 0.333496ZM16.7833 22.8168C15.9333 25.5335 12.95 26.9502 12.1167 26.9502C11.3 26.9335 8.35 25.5502 7.46667 22.8168C6.91667 21.1002 7.56667 18.9835 9.35 18.4002C10.3 18.1002 11.4667 18.3502 12.1167 19.2668C12.7333 18.3168 13.95 18.1002 14.8833 18.4002C16.6833 18.9835 17.3167 21.1002 16.7833 22.8168ZM25.8333 12.4168H22.5C19.9667 12.4168 17.9167 10.3668 17.9167 7.8335V4.50016C17.9167 3.81683 18.4833 3.25016 19.1667 3.25016C19.85 3.25016 20.4167 3.81683 20.4167 4.50016V7.8335C20.4167 8.9835 21.35 9.91683 22.5 9.91683H25.8333C26.5167 9.91683 27.0833 10.4835 27.0833 11.1668C27.0833 11.8502 26.5167 12.4168 25.8333 12.4168Z" fill="#0700E9"/>
</svg>
