<svg width="32" height="34" viewBox="0 0 32 34" fill="none" xmlns="http://www.w3.org/2000/svg">
<path d="M31.8337 15.6502V21.0668C31.8337 21.5668 31.1003 21.8002 30.7337 21.4502C29.9337 20.6668 28.9503 20.0668 27.817 19.7168C25.017 18.8502 21.767 19.7002 19.7503 21.8335C18.4003 23.2335 17.717 25.0168 17.7337 26.9502C17.7337 27.2668 17.5837 27.5502 17.3337 27.7335C16.0003 28.7502 15.167 30.3502 15.167 32.2002C15.167 32.3335 15.167 32.4668 15.1837 32.6002C15.217 33.1335 14.8337 33.6502 14.2837 33.6502H9.45032C4.31699 33.6502 0.166992 30.3168 0.166992 24.3668V9.61683C0.166992 3.66683 4.31699 0.333496 9.45032 0.333496H16.517C17.4337 0.333496 18.1837 1.0835 18.1837 2.00016V6.81683C18.1837 10.7835 21.3837 13.9835 25.3503 13.9835H30.167C31.0837 13.9835 31.8337 14.7335 31.8337 15.6502Z" fill="#1ADD13"/>
</svg>
