<svg width="32" height="34" viewBox="0 0 32 34" fill="none" xmlns="http://www.w3.org/2000/svg">
<path d="M30.167 13.9835H25.3503C21.4003 13.9835 18.1837 10.7668 18.1837 6.81683V2.00016C18.1837 1.0835 17.4337 0.333496 16.517 0.333496H9.45033C4.31699 0.333496 0.166992 3.66683 0.166992 9.61683V24.3835C0.166992 30.3335 4.31699 33.6668 9.45033 33.6668H22.5503C27.6837 33.6668 31.8337 30.3335 31.8337 24.3835V15.6502C31.8337 14.7335 31.0837 13.9835 30.167 13.9835ZM15.217 19.5502C14.967 19.8002 14.6503 19.9168 14.3337 19.9168C14.017 19.9168 13.7003 19.8002 13.4503 19.5502L12.2503 18.3502V25.3335C12.2503 26.0168 11.6837 26.5835 11.0003 26.5835C10.317 26.5835 9.75033 26.0168 9.75033 25.3335V18.3502L8.55033 19.5502C8.06699 20.0335 7.26699 20.0335 6.78366 19.5502C6.30032 19.0668 6.30032 18.2668 6.78366 17.7835L10.117 14.4502C10.2337 14.3502 10.3503 14.2668 10.4837 14.2002C10.517 14.1835 10.567 14.1668 10.6003 14.1502C10.7003 14.1168 10.8003 14.1002 10.917 14.0835C10.967 14.0835 11.0003 14.0835 11.0503 14.0835C11.1837 14.0835 11.317 14.1168 11.4503 14.1668C11.467 14.1668 11.467 14.1668 11.4837 14.1668C11.617 14.2168 11.7503 14.3168 11.8503 14.4168C11.867 14.4335 11.8837 14.4335 11.8837 14.4502L15.217 17.7835C15.7003 18.2668 15.7003 19.0668 15.217 19.5502Z" fill="#F2AF01"/>
</svg>
