<svg width="153" height="38" viewBox="0 0 153 38" fill="none" xmlns="http://www.w3.org/2000/svg">
<path d="M62.4401 6.37603L62.7012 8.92896L64.8004 10.3917L62.259 10.6539L60.8029 12.7627L60.5418 10.2097L58.4426 8.74704L60.984 8.48477L62.4401 6.37603Z" fill="#AA0136"/>
<path d="M61.4489 14.6025L61.9155 15.8693L63.1766 16.3381L61.9155 16.8068L61.4489 18.0736L60.9822 16.8068L59.7212 16.3381L60.9822 15.8693L61.4489 14.6025Z" fill="#AA0136"/>
<path d="M58.6845 11.8257L59.1511 13.0925L60.4121 13.5612L59.1511 14.03L58.6845 15.2967L58.2178 14.03L56.9568 13.5612L58.2178 13.0925L58.6845 11.8257Z" fill="#AA0136"/>
<mask id="path-4-inside-1_131_6183" fill="white">
<path fill-rule="evenodd" clip-rule="evenodd" d="M58.9942 28.0629C63.0903 30.1213 68.0719 28.4545 70.1211 24.3398C72.1702 20.2251 70.5109 15.2208 66.4148 13.1624C65.0639 12.4835 63.6167 12.2098 62.2102 12.2955C63.7855 14.6978 64.0779 17.855 62.7046 20.6127C61.3312 23.3703 58.6407 25.0285 55.7823 25.2027C56.5575 26.3848 57.6434 27.384 58.9942 28.0629Z"/>
</mask>
<path d="M62.2102 12.2955L62.1059 10.6338L59.2498 10.8078L60.8239 13.2082L62.2102 12.2955ZM55.7823 25.2027L55.6781 23.541L52.822 23.715L54.3961 26.1153L55.7823 25.2027ZM68.6358 23.5934C66.994 26.89 63.0072 28.2192 59.7353 26.5749L58.2532 29.5509C63.1734 32.0235 69.1499 30.0189 71.6064 25.0862L68.6358 23.5934ZM65.6738 14.6504C68.9457 16.2947 70.2775 20.2967 68.6358 23.5934L71.6064 25.0862C74.0629 20.1536 72.076 14.147 67.1559 11.6744L65.6738 14.6504ZM62.3144 13.9572C63.4371 13.8888 64.5918 14.1067 65.6738 14.6504L67.1559 11.6744C65.5361 10.8604 63.7964 10.5309 62.1059 10.6338L62.3144 13.9572ZM60.8239 13.2082C62.0862 15.1331 62.3183 17.6593 61.2192 19.8662L64.1899 21.3591C65.8375 18.0508 65.4848 14.2624 63.5965 11.3829L60.8239 13.2082ZM61.2192 19.8662C60.1201 22.0732 57.9685 23.4014 55.6781 23.541L55.8866 26.8643C59.3128 26.6556 62.5423 24.6675 64.1899 21.3591L61.2192 19.8662ZM59.7353 26.5749C58.6533 26.0311 57.7873 25.2335 57.1686 24.29L54.3961 26.1153C55.3277 27.536 56.6334 28.7369 58.2532 29.5509L59.7353 26.5749Z" fill="#AA0136" mask="url(#path-4-inside-1_131_6183)"/>
<path d="M3.57404 28.2216C3.01992 28.2216 2.5951 28.0739 2.29957 27.7784C2.00405 27.4644 1.85628 27.0211 1.85628 26.4485V15.9757C1.85628 15.4031 2.00405 14.9691 2.29957 14.6736C2.5951 14.378 3.01069 14.2303 3.54633 14.2303C4.08197 14.2303 4.49756 14.378 4.79309 14.6736C5.08861 14.9691 5.23638 15.4031 5.23638 15.9757V17.9982L4.93161 17.1671C5.30102 16.2435 5.87361 15.514 6.64937 14.9783C7.42513 14.4427 8.34865 14.1749 9.41994 14.1749C10.5097 14.1749 11.4055 14.4334 12.1074 14.9506C12.8093 15.4678 13.2987 16.262 13.5758 17.3333H13.1879C13.5573 16.3544 14.1668 15.5878 15.0165 15.0337C15.8661 14.4611 16.8451 14.1749 17.9533 14.1749C18.9876 14.1749 19.8373 14.378 20.5022 14.7844C21.1856 15.1907 21.6936 15.8095 22.026 16.6407C22.3585 17.4534 22.5247 18.4877 22.5247 19.7437V26.4485C22.5247 27.0211 22.3677 27.4644 22.0537 27.7784C21.7582 28.0739 21.3334 28.2216 20.7793 28.2216C20.2252 28.2216 19.8003 28.0739 19.5048 27.7784C19.2093 27.4644 19.0615 27.0211 19.0615 26.4485V19.8822C19.0615 18.8479 18.8861 18.0906 18.5351 17.6104C18.2026 17.1301 17.6301 16.89 16.8174 16.89C15.9123 16.89 15.2012 17.2132 14.684 17.8597C14.1668 18.4877 13.9083 19.3651 13.9083 20.4918V26.4485C13.9083 27.0211 13.7605 27.4644 13.465 27.7784C13.1694 28.0739 12.7446 28.2216 12.1905 28.2216C11.6364 28.2216 11.2023 28.0739 10.8883 27.7784C10.5928 27.4644 10.445 27.0211 10.445 26.4485V19.8822C10.445 18.8479 10.2696 18.0906 9.91864 17.6104C9.58617 17.1301 9.02282 16.89 8.22859 16.89C7.32354 16.89 6.61243 17.2132 6.09525 17.8597C5.57808 18.4877 5.31949 19.3651 5.31949 20.4918V26.4485C5.31949 27.6306 4.73767 28.2216 3.57404 28.2216ZM30.5581 28.2771C29.5792 28.2771 28.7018 28.0924 27.926 27.7229C27.1688 27.3351 26.5685 26.8179 26.1252 26.1714C25.7004 25.525 25.4879 24.7954 25.4879 23.9827C25.4879 22.9853 25.7465 22.2003 26.2637 21.6277C26.7809 21.0366 27.6213 20.6118 28.7849 20.3532C29.9486 20.0946 31.5093 19.9653 33.4672 19.9653H34.8525V21.9602H33.4949C32.3497 21.9602 31.4354 22.0156 30.752 22.1264C30.0686 22.2372 29.5792 22.4312 29.2836 22.7082C29.0066 22.9668 28.868 23.3362 28.868 23.8164C28.868 24.426 29.0805 24.9247 29.5053 25.3125C29.9301 25.7004 30.5211 25.8944 31.2784 25.8944C31.888 25.8944 32.4236 25.7558 32.8854 25.4788C33.3656 25.1833 33.7442 24.7861 34.0213 24.2874C34.2984 23.7887 34.4369 23.2161 34.4369 22.5697V19.3835C34.4369 18.46 34.2337 17.7951 33.8274 17.3887C33.421 16.9824 32.7376 16.7792 31.7771 16.7792C31.2415 16.7792 30.6597 16.8438 30.0317 16.9731C29.4222 17.1024 28.7757 17.3241 28.0923 17.6381C27.7413 17.8043 27.4273 17.8505 27.1503 17.7766C26.8917 17.7027 26.6885 17.555 26.5408 17.3333C26.393 17.0932 26.3191 16.8346 26.3191 16.5575C26.3191 16.2805 26.393 16.0127 26.5408 15.7541C26.6885 15.477 26.9379 15.2738 27.2888 15.1446C28.1385 14.7936 28.9512 14.5443 29.7269 14.3965C30.5211 14.2487 31.2415 14.1749 31.888 14.1749C33.2178 14.1749 34.3076 14.378 35.1572 14.7844C36.0253 15.1907 36.6718 15.8095 37.0966 16.6407C37.5215 17.4534 37.7339 18.5062 37.7339 19.7991V26.4485C37.7339 27.0211 37.5953 27.4644 37.3183 27.7784C37.0412 28.0739 36.6441 28.2216 36.1269 28.2216C35.6098 28.2216 35.2034 28.0739 34.9079 27.7784C34.6308 27.4644 34.4923 27.0211 34.4923 26.4485V25.1186H34.7139C34.5847 25.7651 34.3261 26.3284 33.9382 26.8087C33.5688 27.2704 33.0978 27.6306 32.5252 27.8892C31.9526 28.1478 31.2969 28.2771 30.5581 28.2771ZM47.5659 33.2641C46.5685 33.2641 45.5988 33.1717 44.6568 32.987C43.7333 32.8023 42.8929 32.516 42.1356 32.1281C41.7847 31.9434 41.5446 31.7218 41.4153 31.4632C41.3044 31.2046 41.2675 30.9368 41.3044 30.6597C41.3598 30.4012 41.4707 30.1703 41.6369 29.9671C41.8216 29.7639 42.0433 29.6254 42.3018 29.5515C42.5604 29.4776 42.8282 29.5146 43.1053 29.6623C43.918 30.0687 44.6845 30.3273 45.4049 30.4381C46.1437 30.5674 46.7717 30.632 47.2889 30.632C48.5264 30.632 49.4499 30.3273 50.0594 29.7178C50.6874 29.1267 51.0014 28.2401 51.0014 27.058V24.5645H51.2508C50.9737 25.5065 50.3919 26.2638 49.5053 26.8364C48.6372 27.3905 47.649 27.6675 46.5408 27.6675C45.3218 27.6675 44.2597 27.3905 43.3547 26.8364C42.4496 26.2638 41.7477 25.4695 41.249 24.4537C40.7503 23.4378 40.501 22.2557 40.501 20.9073C40.501 19.8915 40.6395 18.9772 40.9166 18.1645C41.2121 17.3333 41.6184 16.6222 42.1356 16.0311C42.6713 15.4401 43.3085 14.9876 44.0473 14.6736C44.8046 14.3411 45.6358 14.1749 46.5408 14.1749C47.686 14.1749 48.6834 14.4611 49.533 15.0337C50.4011 15.5878 50.9645 16.3267 51.2231 17.2502L50.946 17.9428V15.9757C50.946 15.4031 51.0938 14.9691 51.3893 14.6736C51.7033 14.378 52.1281 14.2303 52.6638 14.2303C53.2179 14.2303 53.6427 14.378 53.9382 14.6736C54.2338 14.9691 54.3815 15.4031 54.3815 15.9757V26.6424C54.3815 28.8404 53.7997 30.4935 52.6361 31.6017C51.4724 32.71 49.7824 33.2641 47.5659 33.2641ZM47.4828 25.0355C48.2032 25.0355 48.8219 24.8693 49.3391 24.5368C49.8563 24.2043 50.2534 23.7333 50.5304 23.1238C50.826 22.4958 50.9737 21.757 50.9737 20.9073C50.9737 19.6329 50.6597 18.6355 50.0317 17.9151C49.4037 17.1763 48.5541 16.8069 47.4828 16.8069C46.7625 16.8069 46.1437 16.9731 45.6265 17.3056C45.1094 17.6381 44.703 18.1091 44.4075 18.7186C44.1304 19.3281 43.9919 20.0577 43.9919 20.9073C43.9919 22.1818 44.3059 23.1884 44.9339 23.9273C45.5619 24.6661 46.4115 25.0355 47.4828 25.0355ZM80.937 28.2771C79.5148 28.2771 78.2773 27.9908 77.2244 27.4182C76.1716 26.8271 75.3589 25.996 74.7863 24.9247C74.2138 23.8534 73.9275 22.5974 73.9275 21.1567C73.9275 20.0669 74.0845 19.0972 74.3985 18.2476C74.7309 17.3795 75.2019 16.6499 75.8115 16.0588C76.421 15.4493 77.1598 14.9876 78.0279 14.6736C78.896 14.3411 79.8657 14.1749 80.937 14.1749C81.5465 14.1749 82.2022 14.258 82.9041 14.4242C83.6245 14.5904 84.2986 14.8675 84.9266 15.2554C85.2222 15.4401 85.4161 15.6617 85.5084 15.9203C85.6008 16.1789 85.6193 16.4467 85.5639 16.7238C85.5084 16.9824 85.3884 17.2132 85.2037 17.4164C85.0375 17.6011 84.825 17.7212 84.5665 17.7766C84.3079 17.8135 84.0216 17.7489 83.7076 17.5827C83.3012 17.3425 82.8856 17.1671 82.4608 17.0562C82.036 16.927 81.6297 16.8623 81.2418 16.8623C80.6322 16.8623 80.0966 16.9639 79.6348 17.1671C79.1731 17.3518 78.776 17.6288 78.4435 17.9982C78.1295 18.3492 77.8894 18.7925 77.7231 19.3281C77.5569 19.8638 77.4738 20.4825 77.4738 21.1844C77.4738 22.5512 77.797 23.6317 78.4435 24.426C79.1084 25.2017 80.0412 25.5896 81.2418 25.5896C81.6297 25.5896 82.0268 25.5342 82.4331 25.4234C82.8579 25.3125 83.2828 25.1371 83.7076 24.897C84.0216 24.7307 84.2986 24.6753 84.5387 24.7307C84.7973 24.7861 85.0097 24.9154 85.176 25.1186C85.3422 25.3033 85.4438 25.5342 85.4807 25.8112C85.5177 26.0698 85.4807 26.3284 85.3699 26.587C85.2776 26.8456 85.0929 27.058 84.8158 27.2242C84.2063 27.5936 83.5598 27.8615 82.8764 28.0277C82.193 28.1939 81.5465 28.2771 80.937 28.2771ZM93.5342 28.2771C92.74 28.2771 91.8996 28.1939 91.013 28.0277C90.1264 27.8615 89.3322 27.5752 88.6303 27.1688C88.3348 26.9841 88.1224 26.7717 87.9931 26.5316C87.8823 26.273 87.8361 26.0237 87.8546 25.7835C87.8915 25.525 87.9839 25.3033 88.1316 25.1186C88.2979 24.9339 88.501 24.8138 88.7411 24.7584C88.9997 24.703 89.2768 24.7492 89.5723 24.897C90.3111 25.2479 91.0038 25.4973 91.6502 25.645C92.2967 25.7743 92.9339 25.839 93.5619 25.839C94.4485 25.839 95.1042 25.6912 95.529 25.3957C95.9723 25.0817 96.194 24.6753 96.194 24.1766C96.194 23.7518 96.0462 23.4286 95.7507 23.2069C95.4736 22.9668 95.0488 22.7913 94.4762 22.6805L91.7057 22.1541C90.5605 21.9325 89.6831 21.5169 89.0736 20.9073C88.4826 20.2793 88.187 19.4759 88.187 18.4969C88.187 17.6104 88.4271 16.8438 88.9074 16.1974C89.4061 15.5509 90.0895 15.0522 90.9576 14.7013C91.8257 14.3503 92.8231 14.1749 93.9498 14.1749C94.7625 14.1749 95.5198 14.2672 96.2217 14.4519C96.942 14.6181 97.6347 14.886 98.2996 15.2554C98.5767 15.4031 98.7614 15.5971 98.8537 15.8372C98.9645 16.0773 98.9923 16.3267 98.9368 16.5853C98.8814 16.8254 98.7706 17.047 98.6044 17.2502C98.4381 17.4349 98.2257 17.555 97.9671 17.6104C97.727 17.6473 97.45 17.5919 97.136 17.4441C96.5634 17.1486 96.0093 16.9362 95.4736 16.8069C94.9565 16.6776 94.4578 16.613 93.9775 16.613C93.0725 16.613 92.3983 16.77 91.955 17.084C91.5302 17.398 91.3178 17.8135 91.3178 18.3307C91.3178 18.7186 91.4471 19.0418 91.7057 19.3004C91.9642 19.559 92.3614 19.7345 92.897 19.8268L95.6676 20.3532C96.8682 20.5749 97.7732 20.9812 98.3827 21.5723C99.0107 22.1633 99.3247 22.9576 99.3247 23.955C99.3247 25.3033 98.7983 26.3654 97.7455 27.1411C96.6927 27.8984 95.2889 28.2771 93.5342 28.2771ZM108.174 28.2771C106.973 28.2771 105.967 28.0739 105.154 27.6675C104.36 27.2612 103.769 26.6701 103.381 25.8944C102.993 25.1001 102.799 24.1212 102.799 22.9576V17.0562H101.358C100.915 17.0562 100.573 16.9454 100.333 16.7238C100.093 16.4837 99.973 16.1604 99.973 15.7541C99.973 15.3293 100.093 15.006 100.333 14.7844C100.573 14.5627 100.915 14.4519 101.358 14.4519H102.799V11.9307C102.799 11.3581 102.947 10.9241 103.242 10.6285C103.556 10.333 103.99 10.1852 104.544 10.1852C105.099 10.1852 105.523 10.333 105.819 10.6285C106.114 10.9241 106.262 11.3581 106.262 11.9307V14.4519H109.199C109.642 14.4519 109.984 14.5627 110.224 14.7844C110.464 15.006 110.584 15.3293 110.584 15.7541C110.584 16.1604 110.464 16.4837 110.224 16.7238C109.984 16.9454 109.642 17.0562 109.199 17.0562H106.262V22.7636C106.262 23.6502 106.456 24.3151 106.844 24.7584C107.232 25.2017 107.86 25.4234 108.728 25.4234C109.042 25.4234 109.319 25.3957 109.559 25.3403C109.799 25.2848 110.012 25.2479 110.196 25.2294C110.418 25.211 110.603 25.2848 110.751 25.4511C110.898 25.5988 110.972 25.9128 110.972 26.3931C110.972 26.7625 110.908 27.0949 110.778 27.3905C110.667 27.6675 110.455 27.8615 110.141 27.9723C109.901 28.0462 109.587 28.1108 109.199 28.1662C108.811 28.2401 108.469 28.2771 108.174 28.2771ZM118.644 28.2771C117.24 28.2771 116.021 27.9908 114.987 27.4182C113.953 26.8456 113.149 26.0329 112.576 24.9801C112.004 23.9088 111.718 22.6528 111.718 21.2121C111.718 20.1223 111.875 19.1526 112.189 18.303C112.521 17.4349 112.992 16.6961 113.602 16.0865C114.211 15.4586 114.941 14.9876 115.79 14.6736C116.64 14.3411 117.591 14.1749 118.644 14.1749C120.048 14.1749 121.267 14.4611 122.301 15.0337C123.336 15.6063 124.139 16.419 124.712 17.4718C125.284 18.5247 125.57 19.7714 125.57 21.2121C125.57 22.3019 125.404 23.2808 125.072 24.1489C124.758 25.017 124.296 25.7651 123.686 26.3931C123.077 27.0026 122.347 27.4736 121.498 27.8061C120.648 28.1201 119.697 28.2771 118.644 28.2771ZM118.644 25.645C119.327 25.645 119.928 25.4788 120.445 25.1463C120.962 24.8138 121.359 24.3244 121.636 23.6779C121.932 23.013 122.08 22.191 122.08 21.2121C122.08 19.7345 121.766 18.6355 121.138 17.9151C120.51 17.1763 119.678 16.8069 118.644 16.8069C117.961 16.8069 117.36 16.9731 116.843 17.3056C116.326 17.6196 115.92 18.1091 115.624 18.774C115.347 19.4205 115.209 20.2332 115.209 21.2121C115.209 22.6713 115.523 23.7795 116.151 24.5368C116.779 25.2756 117.61 25.645 118.644 25.645ZM130.202 28.2216C129.629 28.2216 129.186 28.0739 128.872 27.7784C128.577 27.4644 128.429 27.0211 128.429 26.4485V15.9757C128.429 15.4031 128.577 14.9691 128.872 14.6736C129.168 14.378 129.583 14.2303 130.119 14.2303C130.655 14.2303 131.07 14.378 131.366 14.6736C131.661 14.9691 131.809 15.4031 131.809 15.9757V17.7212H131.532C131.791 16.613 132.298 15.7726 133.056 15.2C133.813 14.6274 134.82 14.2857 136.076 14.1749C136.464 14.1379 136.768 14.2395 136.99 14.4796C137.23 14.7013 137.369 15.0522 137.406 15.5324C137.442 15.9942 137.332 16.3728 137.073 16.6684C136.833 16.9454 136.464 17.1117 135.965 17.1671L135.355 17.2225C134.229 17.3333 133.379 17.6842 132.806 18.2753C132.234 18.8479 131.948 19.6606 131.948 20.7134V26.4485C131.948 27.0211 131.8 27.4644 131.504 27.7784C131.209 28.0739 130.775 28.2216 130.202 28.2216ZM143.553 33.2087C143.146 33.2087 142.814 33.0978 142.555 32.8762C142.297 32.673 142.14 32.396 142.084 32.045C142.047 31.6941 142.112 31.3247 142.278 30.9368L144.162 26.7532V28.1939L139.12 16.5298C138.954 16.1235 138.898 15.7448 138.954 15.3939C139.009 15.043 139.175 14.7659 139.452 14.5627C139.748 14.3411 140.145 14.2303 140.644 14.2303C141.068 14.2303 141.41 14.3319 141.669 14.535C141.927 14.7197 142.158 15.0799 142.361 15.6156L146.102 24.9524H145.271L149.094 15.5878C149.297 15.0707 149.537 14.7197 149.814 14.535C150.091 14.3319 150.461 14.2303 150.922 14.2303C151.329 14.2303 151.652 14.3411 151.892 14.5627C152.132 14.7659 152.28 15.043 152.335 15.3939C152.391 15.7264 152.326 16.0958 152.142 16.5021L145.409 31.8788C145.169 32.396 144.91 32.7469 144.633 32.9316C144.356 33.1163 143.996 33.2087 143.553 33.2087Z" fill="#AA0136"/>
</svg>
