<svg width="25" height="24" viewBox="0 0 25 24" fill="none" xmlns="http://www.w3.org/2000/svg">
<path d="M14.3359 5C14.3359 3.9 13.4359 3 12.3359 3C11.2359 3 10.3359 3.9 10.3359 5C10.3359 6.1 11.2359 7 12.3359 7C13.4359 7 14.3359 6.1 14.3359 5Z" stroke="#787777" stroke-width="1.5"/>
<path d="M14.3359 19C14.3359 17.9 13.4359 17 12.3359 17C11.2359 17 10.3359 17.9 10.3359 19C10.3359 20.1 11.2359 21 12.3359 21C13.4359 21 14.3359 20.1 14.3359 19Z" stroke="#787777" stroke-width="1.5"/>
<path d="M14.3359 12C14.3359 10.9 13.4359 10 12.3359 10C11.2359 10 10.3359 10.9 10.3359 12C10.3359 13.1 11.2359 14 12.3359 14C13.4359 14 14.3359 13.1 14.3359 12Z" stroke="#787777" stroke-width="1.5"/>
</svg>
