<svg width="24" height="24" viewBox="0 0 24 24" fill="none" xmlns="http://www.w3.org/2000/svg">
<path d="M21.0799 8.58003V15.42C21.0799 16.54 20.4799 17.58 19.5099 18.15L13.5699 21.58C12.5999 22.14 11.3999 22.14 10.4199 21.58L4.47991 18.15C3.50991 17.59 2.90991 16.55 2.90991 15.42V8.58003C2.90991 7.46003 3.50991 6.41999 4.47991 5.84999L10.4199 2.42C11.3899 1.86 12.5899 1.86 13.5699 2.42L19.5099 5.84999C20.4799 6.41999 21.0799 7.45003 21.0799 8.58003Z" stroke="#787777" stroke-width="1.5" stroke-linecap="round" stroke-linejoin="round"/>
<path d="M11.9999 10.9998C13.2867 10.9998 14.3299 9.95662 14.3299 8.6698C14.3299 7.38298 13.2867 6.33984 11.9999 6.33984C10.7131 6.33984 9.66992 7.38298 9.66992 8.6698C9.66992 9.95662 10.7131 10.9998 11.9999 10.9998Z" stroke="#787777" stroke-width="1.5" stroke-linecap="round" stroke-linejoin="round"/>
<path d="M16 16.6599C16 14.8599 14.21 13.3999 12 13.3999C9.79 13.3999 8 14.8599 8 16.6599" stroke="#787777" stroke-width="1.5" stroke-linecap="round" stroke-linejoin="round"/>
</svg>
