<svg width="200" height="200" viewBox="0 0 200 200" fill="none" xmlns="http://www.w3.org/2000/svg">
<path fill-rule="evenodd" clip-rule="evenodd" d="M176.75 65.8267V133.752C176.75 158.918 161 176.668 135.833 176.668H63.7496C38.5829 176.668 22.9163 158.918 22.9163 133.752V65.8267C22.9163 40.66 38.6663 22.9183 63.7496 22.9183H135.833C161 22.9183 176.75 40.66 176.75 65.8267Z" stroke="#5E5D5D" stroke-width="4.87681" stroke-linecap="round" stroke-linejoin="round"/>
<path d="M44.011 136.924L56.7443 123.483C61.1693 118.791 68.5443 118.566 73.2443 122.983C73.386 123.124 81.0527 130.916 81.0527 130.916C85.6777 135.624 93.236 135.699 97.9443 131.083C98.2527 130.783 117.394 107.566 117.394 107.566C122.328 101.574 131.186 100.716 137.186 105.658C137.586 105.991 155.669 124.549 155.669 124.549" stroke="#5E5D5D" stroke-width="4.87681" stroke-linecap="round" stroke-linejoin="round"/>
<path fill-rule="evenodd" clip-rule="evenodd" d="M85.9379 76.1093C85.9379 84.1843 79.3963 90.726 71.3213 90.726C63.2463 90.726 56.7046 84.1843 56.7046 76.1093C56.7046 68.0343 63.2463 61.4927 71.3213 61.4927C79.3963 61.501 85.9379 68.0343 85.9379 76.1093Z" stroke="#5E5D5D" stroke-width="4.87681" stroke-linecap="round" stroke-linejoin="round"/>
</svg>
