<svg width="195" height="43" viewBox="0 0 195 43" fill="none" xmlns="http://www.w3.org/2000/svg">
<path d="M25.6822 42.3638C25.523 41.8799 15.9269 18.1047 11.1488 6.27759L8.95887 7.68878C13.6042 18.5079 23.0543 40.4284 23.6913 41.5574C24.4877 42.9686 25.8813 42.9686 25.6822 42.3638Z" fill="#FF383C"/>
<path d="M17.7187 33.2918C17.9958 32.8242 19.1123 31.679 19.9087 31.4774L21.5014 30.671C22.696 30.0662 23.6914 29.8646 24.2886 29.8646C25.2841 29.8646 27.2749 29.8646 27.8722 31.2758C28.4432 32.6248 27.8722 33.4934 27.2749 34.0982C26.9564 34.4208 26.4786 34.7702 26.2795 34.9046C26.1468 34.6358 25.8813 34.0176 25.8813 33.695C25.8813 33.2918 26.4786 33.2918 26.2795 32.0822C26.0804 30.8726 23.8905 31.2758 23.2932 31.4774C22.8154 31.6387 21.8996 32.2166 21.5014 32.4854L23.2932 36.3158C22.895 36.5174 22.0987 37.0358 21.5014 37.1222C21.4646 37.1275 19.9087 37.5254 18.9133 37.3238C17.9178 37.1221 17.3206 36.719 17.1215 35.9126C16.9224 35.1062 17.1215 34.2998 17.7187 33.2918Z" fill="#FF383C"/>
<path d="M13.7371 27.4455C14.1353 26.8407 15.1307 25.6311 16.9225 24.6231C17.4533 24.3543 18.8541 23.6323 20.3069 23.2119C21.7005 22.8088 23.4923 22.8087 24.6868 23.2119C25.4832 23.4808 26.1202 23.978 26.2795 24.6231C26.4786 25.4295 26.5133 26.0472 26.2795 26.6391C25.8813 27.6471 25.085 28.0503 24.4877 28.6551C24.4214 28.4535 24.2488 27.8487 24.0896 27.0423C23.8905 26.0343 24.4121 26.2563 24.2886 25.6311C24.0895 24.6231 22.895 24.6231 21.7005 24.8247C20.7449 24.986 19.4442 25.5639 18.9133 25.8327L21.1032 30.6711C20.6387 30.9399 19.5634 31.5851 18.9133 31.6791C17.5197 31.8807 17.6512 31.8807 16.3251 31.8807C15.3297 31.8807 13.538 31.4775 13.1398 30.0663C12.8213 28.9374 13.4495 27.8822 13.7371 27.4455Z" fill="#FF383C"/>
<path d="M3.58358 15.7528C3.98175 15.148 4.51687 14.0141 3.78266 12.5272C3.1854 11.3176 2.52215 11.3176 1.79179 11.3176C1.15471 11.3176 0.331813 11.5864 0 11.7208C0.0663625 11.452 0.0781058 10.9578 0.597263 9.90641C1.09498 8.89842 1.54147 8.3455 2.38905 7.48722C3.58358 6.27763 6.51374 4.16437 8.16259 3.25365C10.3526 2.04405 12.3434 1.43926 13.3389 1.23766C14.474 1.00778 15.1307 0.834472 16.9224 0.632862C18.1097 0.499278 19.5106 0.632862 21.5015 1.23765C23.1307 1.73259 24.3279 2.36484 24.8859 4.06004C25.2045 5.02771 25.2841 5.67286 25.085 6.68082C24.8859 7.89045 24.0896 9.10004 23.0942 10.3096C22.1929 11.4047 21.5015 11.9224 21.1033 12.3256L20.3069 9.50321C20.7051 9.10001 21.3024 8.06504 21.3024 7.08402C21.3024 6.07606 20.7425 5.71066 20.506 5.47123C20.1078 5.06806 19.325 4.81943 18.7142 4.66483C17.9179 4.46327 17.1215 4.46324 15.7279 4.66483C14.2136 4.88389 12.2107 5.67283 11.1489 6.07603L14.7325 14.9464C12.7416 16.3576 10.0203 17.212 8.95894 17.3656C7.56533 17.5672 6.55389 17.5936 4.97719 17.3656C3.58358 17.164 2.85359 16.828 2.58814 16.5592C2.78723 16.4248 3.33369 16.1323 3.58358 15.7528Z" fill="#FF383C"/>
<path d="M7.76445 23.212C7.16703 21.5992 7.36628 18.9784 12.1444 16.3576C13.4053 15.6856 15.7037 14.2622 17.5197 13.7368C18.9134 13.3337 21.3024 13.3336 22.2978 13.5352C23.2933 13.7368 25.0851 14.14 25.4832 15.9544C25.8814 17.7688 25.4832 18.7768 25.0851 19.3816C24.8057 19.806 23.9569 20.6584 23.4924 20.9944C23.2269 20.2552 22.7358 18.7365 22.8951 18.5752C23.0942 18.3736 23.6915 17.7688 22.2978 16.7608C20.9042 15.7528 19.3115 16.156 18.3161 16.3576C17.5197 16.5189 16.1261 17.0968 15.5289 17.3656L17.9179 23.8168C17.3207 24.2872 15.624 25.4802 12.9407 25.6312C9.35706 25.8328 8.23349 24.4782 7.76445 23.212Z" fill="#FF383C"/>
<circle cx="191.486" cy="26.937" r="3.51351" fill="#FF383C"/>
<path d="M44.0424 36.661H39.2068V12.6749H43.6902L44.0424 16.0054V36.661ZM54.9307 21.4816C54.9307 23.1575 54.6691 24.6626 54.1461 25.997C53.6337 27.3313 52.8758 28.3881 51.8724 29.1674C50.8796 29.936 49.652 30.3202 48.1896 30.3202C46.7698 30.3202 45.601 29.936 44.6829 29.1674C43.7756 28.3881 43.071 27.342 42.5693 26.029C42.0676 24.716 41.7047 23.2642 41.4805 21.6737V21.1773C41.694 19.48 42.0516 17.9696 42.5533 16.6459C43.0657 15.3116 43.7756 14.2654 44.6829 13.5075C45.601 12.7389 46.7645 12.3547 48.1736 12.3547C49.636 12.3547 50.8689 12.7229 51.8724 13.4595C52.8758 14.1854 53.6337 15.2102 54.1461 16.5338C54.6691 17.8468 54.9307 19.384 54.9307 21.1453V21.4816ZM50.095 21.1453C50.095 20.2059 49.9883 19.3733 49.7748 18.6474C49.572 17.9109 49.2357 17.3344 48.766 16.9181C48.2963 16.4911 47.6719 16.2776 46.8926 16.2776C46.2948 16.2776 45.7824 16.3737 45.3554 16.5658C44.9391 16.7473 44.5922 17.0195 44.3146 17.3825C44.0478 17.7454 43.845 18.1937 43.7062 18.7275C43.5781 19.2505 43.5034 19.859 43.482 20.5529V22.3142C43.5247 23.1041 43.6582 23.8087 43.8823 24.4278C44.1172 25.0469 44.4801 25.538 44.9711 25.9009C45.4622 26.2532 46.1133 26.4293 46.9246 26.4293C47.7146 26.4293 48.339 26.2051 48.798 25.7568C49.2571 25.3085 49.588 24.7107 49.7908 23.9634C49.9936 23.2055 50.095 22.3782 50.095 21.4816V21.1453ZM56.9642 21.1773C56.9642 19.4907 57.2845 17.9856 57.9249 16.6619C58.5654 15.3276 59.4995 14.2761 60.7271 13.5075C61.9547 12.7389 63.4438 12.3547 65.1944 12.3547C66.9664 12.3547 68.4662 12.7389 69.6938 13.5075C70.9321 14.2761 71.8661 15.3276 72.496 16.6619C73.1364 17.9856 73.4567 19.4907 73.4567 21.1773V21.5136C73.4567 23.1895 73.1364 24.6947 72.496 26.029C71.8661 27.3633 70.9374 28.4148 69.7098 29.1834C68.4823 29.9413 66.9878 30.3202 65.2265 30.3202C63.4651 30.3202 61.9653 29.9413 60.7271 29.1834C59.4995 28.4148 58.5654 27.3633 57.9249 26.029C57.2845 24.6947 56.9642 23.1895 56.9642 21.5136V21.1773ZM61.8159 21.5136C61.8159 22.4209 61.9226 23.2482 62.1361 23.9955C62.3603 24.7427 62.7179 25.3351 63.2089 25.7728C63.7106 26.2105 64.3832 26.4293 65.2265 26.4293C66.0591 26.4293 66.7209 26.2105 67.212 25.7728C67.7137 25.3351 68.0713 24.7427 68.2848 23.9955C68.5089 23.2482 68.621 22.4209 68.621 21.5136V21.1773C68.621 20.2913 68.5089 19.4747 68.2848 18.7275C68.0713 17.9696 67.7137 17.3664 67.212 16.9181C66.7209 16.4698 66.0484 16.2456 65.1944 16.2456C64.3618 16.2456 63.6946 16.4698 63.1929 16.9181C62.7019 17.3664 62.3496 17.9696 62.1361 18.7275C61.9226 19.4747 61.8159 20.2913 61.8159 21.1773V21.5136ZM84.7452 12.6749H87.7875L86.8588 18.103L83.3041 30H80.7582L81.1745 25.2924L84.7452 12.6749ZM82.0712 25.2604L82.2473 30H79.2691L74.9138 12.6749H79.5733L82.0712 25.2604ZM93.3918 12.6749H98.0513L93.712 30H90.7337L90.9419 25.0362L93.3918 12.6749ZM91.7905 25.2284L92.2229 30H89.6609L86.1062 18.135L85.2096 12.6749H88.2198L91.7905 25.2284ZM108.363 30.3202C106.538 30.3202 104.974 29.9413 103.672 29.1834C102.38 28.4255 101.387 27.4114 100.693 26.1411C100.01 24.8708 99.6685 23.4671 99.6685 21.9299V21.3054C99.6685 19.5761 99.9941 18.039 100.645 16.6939C101.307 15.3382 102.246 14.2761 103.463 13.5075C104.68 12.7389 106.132 12.3547 107.819 12.3547C109.495 12.3547 110.904 12.7069 112.046 13.4115C113.188 14.116 114.053 15.1087 114.64 16.3897C115.227 17.66 115.52 19.1545 115.52 20.8731V22.9226H101.702V19.6722H110.765V19.2879C110.765 18.6901 110.658 18.1617 110.445 17.7027C110.231 17.2437 109.906 16.8861 109.468 16.6299C109.041 16.3737 108.48 16.2456 107.787 16.2456C106.997 16.2456 106.362 16.4698 105.881 16.9181C105.401 17.3664 105.049 17.9696 104.824 18.7275C104.611 19.4854 104.504 20.3447 104.504 21.3054V21.9299C104.504 22.8159 104.67 23.5952 105.001 24.2677C105.331 24.9402 105.806 25.4686 106.426 25.8529C107.045 26.2265 107.792 26.4133 108.667 26.4133C109.489 26.4133 110.258 26.2638 110.973 25.9649C111.688 25.6554 112.297 25.175 112.798 24.5239L115.136 27.1979C114.592 27.9771 113.748 28.6923 112.606 29.3435C111.475 29.9947 110.06 30.3202 108.363 30.3202ZM122.886 30H118.05V12.6749H122.598L122.886 16.6619V30ZM127.946 17.2223C127.711 17.1903 127.433 17.1636 127.113 17.1423C126.793 17.1103 126.505 17.0942 126.249 17.0942C125.405 17.0942 124.711 17.2277 124.167 17.4945C123.623 17.7507 123.217 18.135 122.95 18.6474C122.683 19.1598 122.539 19.795 122.518 20.5529L121.573 20.1365C121.573 18.6314 121.765 17.2917 122.149 16.1175C122.534 14.9433 123.1 14.0253 123.847 13.3634C124.594 12.6909 125.501 12.3547 126.569 12.3547C126.814 12.3547 127.071 12.3707 127.337 12.4027C127.615 12.4347 127.839 12.4881 128.01 12.5628L127.946 17.2223ZM140.275 5.40541H145.143V30H140.772L140.275 26.1411V5.40541ZM129.403 21.2094C129.403 19.448 129.665 17.9055 130.188 16.5819C130.721 15.2475 131.49 14.2121 132.493 13.4755C133.507 12.7283 134.74 12.3547 136.192 12.3547C137.548 12.3547 138.679 12.7443 139.587 13.5235C140.505 14.2921 141.225 15.3489 141.748 16.6939C142.282 18.0283 142.65 19.5441 142.853 21.2414V21.6417C142.65 23.2536 142.282 24.716 141.748 26.029C141.225 27.342 140.505 28.3881 139.587 29.1674C138.679 29.936 137.537 30.3202 136.16 30.3202C134.73 30.3202 133.507 29.9413 132.493 29.1834C131.49 28.4148 130.721 27.3687 130.188 26.045C129.665 24.7213 129.403 23.2215 129.403 21.5456V21.2094ZM134.239 21.5456C134.239 22.4423 134.34 23.2589 134.543 23.9955C134.746 24.732 135.077 25.3191 135.536 25.7568C135.995 26.1838 136.614 26.3973 137.393 26.3973C138.162 26.3973 138.791 26.2265 139.282 25.8849C139.773 25.5326 140.147 25.0469 140.403 24.4278C140.659 23.8087 140.809 23.0934 140.852 22.2822V20.6169C140.83 19.923 140.74 19.3093 140.579 18.7755C140.43 18.2311 140.216 17.7774 139.939 17.4145C139.672 17.0409 139.325 16.758 138.898 16.5658C138.482 16.3737 137.991 16.2776 137.425 16.2776C136.656 16.2776 136.037 16.4965 135.568 16.9341C135.098 17.3611 134.756 17.9482 134.543 18.6955C134.34 19.432 134.239 20.27 134.239 21.2094V21.5456ZM153.469 30H148.634V12.6749H153.181L153.469 16.6619V30ZM158.529 17.2223C158.294 17.1903 158.017 17.1636 157.696 17.1423C157.376 17.1103 157.088 17.0942 156.832 17.0942C155.988 17.0942 155.295 17.2277 154.75 17.4945C154.206 17.7507 153.8 18.135 153.533 18.6474C153.266 19.1598 153.122 19.795 153.101 20.5529L152.156 20.1365C152.156 18.6314 152.348 17.2917 152.733 16.1175C153.117 14.9433 153.683 14.0253 154.43 13.3634C155.177 12.6909 156.084 12.3547 157.152 12.3547C157.397 12.3547 157.654 12.3707 157.921 12.4027C158.198 12.4347 158.422 12.4881 158.593 12.5628L158.529 17.2223ZM165.798 30H160.947V12.6749H165.798V30ZM160.659 8.20752C160.659 7.48164 160.904 6.88919 161.395 6.43018C161.886 5.96049 162.543 5.72565 163.365 5.72565C164.187 5.72565 164.838 5.96049 165.318 6.43018C165.809 6.88919 166.055 7.48164 166.055 8.20752C166.055 8.92273 165.809 9.51518 165.318 9.98487C164.838 10.4546 164.187 10.6894 163.365 10.6894C162.543 10.6894 161.886 10.4546 161.395 9.98487C160.904 9.51518 160.659 8.92273 160.659 8.20752ZM174.605 30H169.753V5.40541H174.605V30ZM183.412 30H178.56V5.40541H183.412V30Z" fill="black"/>
</svg>
