<svg width="60" height="16" viewBox="0 0 60 16" fill="none" xmlns="http://www.w3.org/2000/svg">
<path d="M5.12 12.16C4.65067 12.16 4.18133 12.1227 3.712 12.048C3.24267 11.984 2.8 11.8827 2.384 11.744C1.968 11.5947 1.59467 11.4133 1.264 11.2C1.072 11.072 0.938667 10.9173 0.864 10.736C0.789333 10.5547 0.762667 10.3787 0.784 10.208C0.816 10.0267 0.885333 9.872 0.992 9.744C1.10933 9.60533 1.25333 9.52 1.424 9.488C1.59467 9.456 1.78133 9.504 1.984 9.632C2.45333 9.90933 2.94933 10.112 3.472 10.24C3.99467 10.368 4.544 10.432 5.12 10.432C5.96267 10.432 6.576 10.2933 6.96 10.016C7.344 9.728 7.536 9.36 7.536 8.912C7.536 8.53867 7.39733 8.24533 7.12 8.032C6.85333 7.81867 6.38933 7.64267 5.728 7.504L3.968 7.136C2.95467 6.92267 2.19733 6.56533 1.696 6.064C1.20533 5.552 0.96 4.88 0.96 4.048C0.96 3.52533 1.06667 3.05067 1.28 2.624C1.49333 2.19733 1.792 1.82933 2.176 1.52C2.57067 1.21067 3.03467 0.976 3.568 0.815999C4.112 0.645333 4.70933 0.559999 5.36 0.559999C6 0.559999 6.608 0.639999 7.184 0.799999C7.76 0.959999 8.27733 1.19467 8.736 1.504C8.90667 1.62133 9.01867 1.76533 9.072 1.936C9.136 2.10667 9.152 2.27733 9.12 2.448C9.088 2.608 9.01333 2.74667 8.896 2.864C8.77867 2.98133 8.62933 3.05067 8.448 3.072C8.27733 3.09333 8.08 3.04 7.856 2.912C7.46133 2.688 7.06133 2.528 6.656 2.432C6.25067 2.336 5.81333 2.288 5.344 2.288C4.85333 2.288 4.432 2.35733 4.08 2.496C3.728 2.63467 3.456 2.832 3.264 3.088C3.08267 3.33333 2.992 3.62667 2.992 3.968C2.992 4.352 3.12 4.66133 3.376 4.896C3.632 5.12 4.06933 5.296 4.688 5.424L6.432 5.792C7.488 6.016 8.272 6.368 8.784 6.848C9.30667 7.328 9.568 7.968 9.568 8.768C9.568 9.28 9.46133 9.744 9.248 10.16C9.04533 10.576 8.74667 10.9333 8.352 11.232C7.968 11.5307 7.504 11.76 6.96 11.92C6.416 12.08 5.80267 12.16 5.12 12.16ZM14.6396 12.16C13.9463 12.16 13.365 12.0427 12.8956 11.808C12.437 11.5733 12.0956 11.232 11.8716 10.784C11.6476 10.3253 11.5356 9.76 11.5356 9.088V5.68H10.7036C10.4476 5.68 10.2503 5.616 10.1116 5.488C9.97296 5.34933 9.90362 5.16267 9.90362 4.928C9.90362 4.68267 9.97296 4.496 10.1116 4.368C10.2503 4.24 10.4476 4.176 10.7036 4.176H11.5356V2.72C11.5356 2.38933 11.621 2.13867 11.7916 1.968C11.973 1.79733 12.2236 1.712 12.5436 1.712C12.8636 1.712 13.109 1.79733 13.2796 1.968C13.4503 2.13867 13.5356 2.38933 13.5356 2.72V4.176H15.2316C15.4876 4.176 15.685 4.24 15.8236 4.368C15.9623 4.496 16.0316 4.68267 16.0316 4.928C16.0316 5.16267 15.9623 5.34933 15.8236 5.488C15.685 5.616 15.4876 5.68 15.2316 5.68H13.5356V8.976C13.5356 9.488 13.6476 9.872 13.8716 10.128C14.0956 10.384 14.4583 10.512 14.9596 10.512C15.141 10.512 15.301 10.496 15.4396 10.464C15.5783 10.432 15.701 10.4107 15.8076 10.4C15.9356 10.3893 16.0423 10.432 16.1276 10.528C16.213 10.6133 16.2556 10.7947 16.2556 11.072C16.2556 11.2853 16.2183 11.4773 16.1436 11.648C16.0796 11.808 15.957 11.92 15.7756 11.984C15.637 12.0267 15.4556 12.064 15.2316 12.096C15.0076 12.1387 14.8103 12.16 14.6396 12.16ZM20.6861 12.16C19.8755 12.16 19.1715 11.9947 18.5741 11.664C17.9768 11.3333 17.5128 10.864 17.1821 10.256C16.8515 9.63733 16.6861 8.912 16.6861 8.08C16.6861 7.45067 16.7768 6.89067 16.9581 6.4C17.1501 5.89867 17.4221 5.472 17.7741 5.12C18.1261 4.75733 18.5475 4.48533 19.0381 4.304C19.5288 4.112 20.0781 4.016 20.6861 4.016C21.4968 4.016 22.2008 4.18133 22.7981 4.512C23.3955 4.84267 23.8595 5.312 24.1901 5.92C24.5208 6.528 24.6861 7.248 24.6861 8.08C24.6861 8.70933 24.5901 9.27467 24.3981 9.776C24.2168 10.2773 23.9501 10.7093 23.5981 11.072C23.2461 11.424 22.8248 11.696 22.3341 11.888C21.8435 12.0693 21.2941 12.16 20.6861 12.16ZM20.6861 10.64C21.0808 10.64 21.4275 10.544 21.7261 10.352C22.0248 10.16 22.2541 9.87733 22.4141 9.504C22.5848 9.12 22.6701 8.64533 22.6701 8.08C22.6701 7.22667 22.4888 6.592 22.1261 6.176C21.7635 5.74933 21.2835 5.536 20.6861 5.536C20.2915 5.536 19.9448 5.632 19.6461 5.824C19.3475 6.00533 19.1128 6.288 18.9421 6.672C18.7821 7.04533 18.7021 7.51467 18.7021 8.08C18.7021 8.92267 18.8835 9.56267 19.2461 10C19.6088 10.4267 20.0888 10.64 20.6861 10.64ZM27.3609 12.128C27.0302 12.128 26.7742 12.0427 26.5929 11.872C26.4222 11.6907 26.3369 11.4347 26.3369 11.104V5.056C26.3369 4.72533 26.4222 4.47467 26.5929 4.304C26.7635 4.13333 27.0035 4.048 27.3129 4.048C27.6222 4.048 27.8622 4.13333 28.0329 4.304C28.2035 4.47467 28.2889 4.72533 28.2889 5.056V6.064H28.1289C28.2782 5.424 28.5715 4.93867 29.0089 4.608C29.4462 4.27733 30.0275 4.08 30.7529 4.016C30.9769 3.99467 31.1529 4.05333 31.2809 4.192C31.4195 4.32 31.4995 4.52267 31.5209 4.8C31.5422 5.06667 31.4782 5.28533 31.3289 5.456C31.1902 5.616 30.9769 5.712 30.6889 5.744L30.3369 5.776C29.6862 5.84 29.1955 6.04267 28.8649 6.384C28.5342 6.71467 28.3689 7.184 28.3689 7.792V11.104C28.3689 11.4347 28.2835 11.6907 28.1129 11.872C27.9422 12.0427 27.6915 12.128 27.3609 12.128ZM35.0709 15.008C34.8362 15.008 34.6442 14.944 34.4949 14.816C34.3455 14.6987 34.2549 14.5387 34.2229 14.336C34.2015 14.1333 34.2389 13.92 34.3349 13.696L35.4229 11.28V12.112L32.5109 5.376C32.4149 5.14133 32.3829 4.92267 32.4149 4.72C32.4469 4.51733 32.5429 4.35733 32.7029 4.24C32.8735 4.112 33.1029 4.048 33.3909 4.048C33.6362 4.048 33.8335 4.10667 33.9829 4.224C34.1322 4.33067 34.2655 4.53867 34.3829 4.848L36.5429 10.24H36.0629L38.2709 4.832C38.3882 4.53333 38.5269 4.33067 38.6869 4.224C38.8469 4.10667 39.0602 4.048 39.3269 4.048C39.5615 4.048 39.7482 4.112 39.8869 4.24C40.0255 4.35733 40.1109 4.51733 40.1429 4.72C40.1749 4.912 40.1375 5.12533 40.0309 5.36L36.1429 14.24C36.0042 14.5387 35.8549 14.7413 35.6949 14.848C35.5349 14.9547 35.3269 15.008 35.0709 15.008ZM41.7031 12.08C41.3405 12.08 41.0471 11.968 40.8231 11.744C40.6098 11.52 40.5031 11.232 40.5031 10.88C40.5031 10.5387 40.6098 10.2613 40.8231 10.048C41.0471 9.824 41.3405 9.712 41.7031 9.712C42.0765 9.712 42.3645 9.824 42.5671 10.048C42.7805 10.2613 42.8871 10.5387 42.8871 10.88C42.8871 11.232 42.7805 11.52 42.5671 11.744C42.3645 11.968 42.0765 12.08 41.7031 12.08ZM45.3284 12.128C45.0724 12.128 44.8644 12.0693 44.7044 11.952C44.555 11.8347 44.4644 11.68 44.4324 11.488C44.4004 11.2853 44.4377 11.0613 44.5444 10.816L48.7684 1.456C48.907 1.14667 49.0724 0.927999 49.2644 0.799999C49.467 0.661332 49.6964 0.591999 49.9524 0.591999C50.1977 0.591999 50.4164 0.661332 50.6084 0.799999C50.811 0.927999 50.9817 1.14667 51.1204 1.456L55.3604 10.816C55.4777 11.0613 55.5204 11.2853 55.4884 11.488C55.4564 11.6907 55.3657 11.8507 55.2164 11.968C55.067 12.0747 54.8697 12.128 54.6244 12.128C54.3257 12.128 54.091 12.0587 53.9204 11.92C53.7604 11.7707 53.6164 11.5467 53.4884 11.248L52.4484 8.832L53.3124 9.392H46.5604L47.4244 8.832L46.4004 11.248C46.2617 11.5573 46.1177 11.7813 45.9684 11.92C45.819 12.0587 45.6057 12.128 45.3284 12.128ZM49.9204 2.944L47.6804 8.272L47.2644 7.76H52.6084L52.2084 8.272L49.9524 2.944H49.9204ZM58.1466 12.128C57.816 12.128 57.56 12.0373 57.3786 11.856C57.208 11.664 57.1226 11.4027 57.1226 11.072V1.648C57.1226 1.30667 57.208 1.04533 57.3786 0.863999C57.56 0.682666 57.816 0.591999 58.1466 0.591999C58.4773 0.591999 58.728 0.682666 58.8986 0.863999C59.08 1.04533 59.1706 1.30667 59.1706 1.648V11.072C59.1706 11.4027 59.0853 11.664 58.9146 11.856C58.744 12.0373 58.488 12.128 58.1466 12.128Z" fill="#AA0136"/>
</svg>
