<svg width="210" height="272" viewBox="0 0 210 272" fill="none" xmlns="http://www.w3.org/2000/svg">
<path d="M133.585 114.523C133.585 114.523 146.265 121.358 150.123 133.855C152.998 143.175 154.096 162.338 154.607 169.779C155.119 177.212 157.388 201.076 157.388 201.076L137.006 202.45L130.946 164.749L133.585 114.523Z" fill="#CC675F"/>
<path d="M130.017 166.924L155.234 158.486C155.234 158.486 153.456 131.741 146.581 121.661C141.894 114.793 129.916 111.136 129.916 111.136L130.017 166.924Z" fill="#E0E0E0"/>
<path d="M90.0396 97.9119C89.3662 97.9119 56.3518 108.867 56.3518 108.867L56.3316 160.641L48.4736 219.081L67.9065 235.067C67.9065 235.067 134.535 215.937 135.215 215.418C135.895 214.9 131.356 194.012 131.356 193.339C131.356 192.666 131.579 182.114 131.579 182.114C131.579 182.114 135.396 177.212 137.194 169.785C138.992 162.358 137.194 150.46 137.194 150.46L129.922 111.15L125.074 109.716L90.0396 97.9119Z" fill="#E0E0E0"/>
<path d="M136.043 142.979C136.057 142.973 136.097 143.087 136.178 143.303C136.266 143.558 136.367 143.875 136.495 144.259C136.636 144.676 136.791 145.188 136.939 145.794C137.094 146.4 137.289 147.08 137.437 147.848C137.606 148.615 137.781 149.457 137.915 150.366C138.084 151.275 138.185 152.251 138.299 153.282C138.494 155.349 138.589 157.631 138.508 160.022C138.407 162.419 138.131 164.681 137.781 166.728C137.579 167.745 137.404 168.715 137.168 169.61C136.966 170.513 136.723 171.334 136.495 172.088C136.286 172.842 136.037 173.509 135.835 174.095C135.639 174.687 135.444 175.186 135.269 175.59C135.114 175.96 134.986 176.27 134.878 176.519C134.784 176.728 134.73 176.835 134.724 176.835C134.71 176.829 134.744 176.714 134.818 176.492C134.905 176.236 135.013 175.92 135.148 175.543C135.296 175.132 135.478 174.627 135.653 174.034C135.835 173.442 136.07 172.775 136.259 172.021C136.468 171.267 136.697 170.445 136.885 169.55C137.107 168.661 137.269 167.691 137.464 166.681C137.794 164.648 138.057 162.392 138.158 160.015C138.239 157.638 138.151 155.369 137.983 153.315C137.868 152.292 137.781 151.315 137.632 150.413C137.511 149.504 137.35 148.662 137.202 147.901C137.067 147.134 136.885 146.447 136.75 145.841C136.622 145.235 136.481 144.717 136.36 144.299C136.259 143.909 136.171 143.585 136.104 143.323C136.057 143.1 136.037 142.979 136.043 142.979Z" fill="#282828"/>
<path d="M72.5663 4.32965C70.8223 2.72034 68.2973 1.99986 65.9742 2.451C65.0248 2.63281 64.0013 2.98969 63.1461 2.55201C62.5334 2.23553 62.1765 1.58912 61.6984 1.09084C60.2372 -0.444403 57.4159 -0.336667 56.0827 1.30631C55.7527 1.71032 55.4968 2.19513 55.0524 2.46447C53.2546 3.56203 50.9652 0.202013 49.1808 1.31978C50.0225 1.63625 50.8575 2.07393 51.3625 2.81461C51.8675 3.5553 51.9281 4.65959 51.2951 5.29254C49.6522 6.93552 46.5682 3.70344 44.7098 5.09727C43.7065 5.85143 43.6795 7.6358 42.4877 8.01288C42.0231 8.15428 41.5316 8.02635 41.0467 7.99941C39.4172 7.92535 37.8753 9.35285 37.8214 10.9824C37.7743 12.3695 38.5823 14.0124 37.6059 15.009C36.9999 15.6217 36.0235 15.5948 35.1617 15.5207C35.2627 16.7866 35.6599 18.0323 36.3063 19.1232C34.1382 20.5641 33.5389 23.8905 35.0674 25.9913C34.0304 26.9206 32.9733 27.8902 32.3673 29.1494C31.7612 30.4085 31.7074 32.0313 32.6029 33.1019C32.8049 33.3443 33.0541 33.5598 33.182 33.8493C33.3234 34.1658 33.2965 34.5227 33.2493 34.8661C33.0675 36.1791 32.5827 37.472 32.7107 38.785C32.8386 40.1048 33.9092 41.4851 35.2223 41.2831C35.5253 41.236 35.8619 41.1148 36.1245 41.2629C36.3265 41.3774 36.4208 41.6131 36.4814 41.842C36.7171 42.7645 36.542 43.7341 36.4814 44.6836C36.4141 45.633 36.4814 46.6699 37.0874 47.4039C37.6935 48.1378 39.0065 48.3196 39.5519 47.5386C39.2758 49.0334 38.993 50.5282 38.7169 52.0231C38.5486 52.9119 38.4409 53.9758 39.121 54.5751C40.0098 55.3562 41.471 54.5953 42.0366 53.5583C42.6022 52.5146 42.6897 51.2622 43.2823 50.2387C43.5247 49.8212 43.8479 49.4441 44.0028 48.9795C44.124 48.6159 44.1442 48.1917 44.4202 47.9291C44.9791 47.4039 45.942 48.1648 45.9151 48.9324C45.8881 49.7 45.3158 50.3195 44.8714 50.9524C44.427 51.5787 44.097 52.454 44.528 53.087C44.7367 53.39 45.0936 53.5785 45.2956 53.8883C45.9959 54.9656 44.427 56.1642 44.3125 57.4436C44.2317 58.3862 44.9656 59.1875 45.6861 59.8137C46.5615 60.5746 48.1843 61.1268 48.6354 60.0629C48.7903 59.6925 48.696 59.2616 48.8105 58.8778C48.9384 58.4266 49.3222 58.1034 49.6522 57.7668C50.4669 56.9251 51.0258 55.841 51.2345 54.6963C50.339 55.9622 49.4165 57.6254 50.2043 58.9586C50.5342 59.5175 51.0999 59.8878 51.5779 60.3188C52.5206 61.1739 53.1469 62.3321 54.0761 63.2007C55.0053 64.0693 56.4732 64.608 57.5438 63.9145C57.2408 65.1601 57.8872 66.5675 59.0252 67.1465C60.1699 67.7256 61.6917 67.4159 62.5132 66.4328C62.7421 66.1634 62.9306 65.8402 63.2471 65.6921C63.5905 65.5305 63.9878 65.6046 64.3649 65.645C66.6206 65.9076 68.9773 64.7763 70.1894 62.8506C69.8055 62.7428 69.415 62.6351 69.0312 62.5274C71.2398 62.0897 73.5427 61.6116 75.3136 60.2245C77.0845 58.8307 78.1214 56.2248 77.0171 54.2586C76.5391 53.4035 75.6839 52.555 75.9869 51.6325C76.1957 50.9929 76.8825 50.6562 77.502 50.3936C80.0876 49.2893 82.68 48.1782 85.2657 47.074C86.5249 46.5353 87.8446 45.9495 88.6257 44.8317C89.4135 43.7139 89.3664 41.8959 88.1813 41.2158C88.7132 39.9499 89.6088 38.8389 90.74 38.0511C92.0059 37.169 93.5277 36.7111 94.834 35.8896C96.1403 35.0681 97.2917 33.6608 97.0897 32.1323C96.8877 30.6038 94.6926 29.5534 93.7028 30.7385C93.7634 28.4087 97.8775 27.9912 98.0796 25.6681C98.2412 23.7828 95.7902 22.968 94.4637 21.6146C94.6724 20.9479 95.3053 20.4901 95.5343 19.8302C96.0124 18.4498 94.531 17.1974 93.1708 16.652C91.8106 16.1133 90.1609 15.5813 89.7502 14.1808C89.326 12.7465 90.4707 11.016 89.6088 9.79053C89.1307 9.11044 88.087 8.9219 87.4002 9.39325C86.1612 6.79412 81.266 9.13064 79.6365 6.76045C79.5085 6.57191 79.4075 6.3497 79.421 6.12077C79.4345 5.92549 79.5287 5.74369 79.6432 5.58209C80.1752 4.81447 81.0438 4.36332 81.7441 3.74384C82.4443 3.12436 83.0032 2.1278 82.6127 1.27937C82.2221 0.430953 80.5724 0.565623 80.6532 1.50158C79.6499 0.71376 77.9194 1.27264 77.5693 2.49814C76.8757 1.75745 75.6098 1.85172 74.7749 2.4308C73.9399 3.00315 73.4214 3.93238 72.9434 4.8212" fill="#282828"/>
<path d="M61.8533 34.6641C62.5199 30.7924 65.22 27.5603 68.2434 25.0487C69.5093 23.9983 70.9098 23.0084 72.5259 22.6785C74.1419 22.3553 76.0206 22.8468 76.9094 24.2407L76.8017 26.9947C77.3336 31.3445 74.1217 35.1557 72.6875 39.2968C72.0613 41.0946 71.5832 43.2494 69.8729 44.0776C68.9706 44.5153 67.9 44.4614 66.9438 44.1719C63.1663 43.0474 61.1867 38.5359 61.8533 34.6641Z" fill="#8E012D"/>
<path d="M62.3112 54.858C59.7188 51.673 59.9343 46.5556 62.7826 43.5996C61.1194 41.6266 61.6109 38.5023 63.1866 36.462C64.7622 34.4218 67.1526 33.2098 69.469 32.0651C70.5935 26.1261 77.1047 21.7965 83.01 23.0556C85.9458 18.4768 92.4437 17.5948 97.7025 18.9684C98.9886 19.3051 100.275 19.7495 101.601 19.7091C102.578 19.6754 103.52 19.3859 104.483 19.231C109.776 18.3691 115.149 21.9648 117.358 26.8533C117.708 27.6344 118.004 28.4626 118.549 29.1225C119.263 29.9911 120.32 30.4827 121.229 31.1493C123.196 32.5835 124.482 34.9066 124.65 37.3307C124.791 39.3911 124.199 41.5997 125.115 43.4447C125.573 44.3739 126.381 45.1079 126.751 46.0775C127.808 48.8854 124.751 51.8683 125.411 54.7906C125.546 55.3899 125.835 55.9421 126.017 56.5212C126.387 57.713 126.313 59.0462 125.801 60.1909C125.404 61.073 124.751 61.8877 124.724 62.8506C124.704 63.5846 125.047 64.2714 125.209 64.9852C125.613 66.7291 122.01 73.6108 120.522 74.6073L75.1857 76.2571C71.7314 75.651 68.8562 72.621 68.4253 69.1397C68.3512 68.5607 68.331 67.9344 67.9539 67.4833C67.6374 67.0995 67.1391 66.9379 66.6947 66.7157C63.732 65.2276 63.2674 61.2279 63.4896 57.9217C63.5233 57.4571 63.5569 56.9858 63.429 56.5346C63.2405 55.8815 62.7354 55.3832 62.3112 54.858Z" fill="#282828"/>
<path d="M75.2394 54.5684C74.8825 46.5488 79.6633 37.1825 87.528 33.0414C92.4839 30.4288 96.4095 30.3076 99.0423 29.9238C104.941 29.0686 109.802 31.8765 109.802 31.8765C112.321 32.395 121.707 40.529 122.435 49.6193C123.243 59.7128 123.828 72.0755 122.751 79.6372C120.596 94.8415 109.008 96.9626 109.008 96.9626C109.008 96.9424 109.479 107.393 109.479 107.393L77.5894 107.689L75.2394 54.5684Z" fill="#CC675F"/>
<path d="M99.7694 77.9674C99.8165 77.1728 99.7694 75.4288 100.295 74.9036C101.345 73.8667 103.082 74.6276 104.927 75.1864C106.321 75.6106 107.957 75.9271 107.472 77.2065L106.368 79.3881C105.762 80.3578 105.399 81.388 104.267 81.5631C104.092 81.59 103.951 81.5227 103.776 81.5294C102.914 81.5698 101.863 80.8762 101.156 80.2904C100.463 79.7046 99.7155 78.9505 99.7694 77.9674Z" fill="#9D4841"/>
<path d="M116.967 62.5475C117.021 63.5778 116.193 64.4666 115.122 64.5407C114.051 64.6147 113.142 63.8471 113.088 62.8236C113.035 61.8001 113.863 60.9046 114.927 60.8305C116.004 60.7497 116.913 61.5241 116.967 62.5475Z" fill="#282828"/>
<path d="M119.114 55.4975C118.879 55.7534 117.384 54.6895 115.29 54.7299C113.202 54.7434 111.681 55.8409 111.452 55.5918C111.337 55.4773 111.58 55.0194 112.239 54.5212C112.893 54.0229 114.004 53.5381 115.31 53.5179C116.616 53.5044 117.721 53.9623 118.353 54.4471C119.007 54.9252 119.229 55.3763 119.114 55.4975Z" fill="#282828"/>
<path d="M107.143 72.2235C107.129 72.1023 108.429 71.8599 110.53 71.5502C111.061 71.4829 111.566 71.3684 111.654 71.0048C111.775 70.6142 111.54 70.0419 111.27 69.4291C110.745 68.143 110.2 66.7963 109.62 65.389C107.331 59.6319 105.661 54.8915 105.89 54.804C106.126 54.7164 108.166 59.3087 110.462 65.0658C111.014 66.4866 111.54 67.84 112.045 69.1329C112.26 69.7389 112.617 70.419 112.354 71.227C112.22 71.631 111.829 71.9273 111.486 72.0215C111.142 72.1293 110.846 72.1427 110.583 72.1629C108.469 72.3111 107.156 72.3448 107.143 72.2235Z" fill="#282828"/>
<path d="M109.001 96.9626C109.001 96.9626 98.813 97.7908 88.605 91.8855C88.605 91.8855 94.0053 102.343 109.156 100.673L109.001 96.9626Z" fill="#9D4841"/>
<path d="M118.138 47.6666C117.795 48.1851 116.186 47.8686 114.32 48.0572C112.448 48.1851 110.906 48.7642 110.489 48.313C110.3 48.0908 110.496 47.5925 111.135 47.0673C111.768 46.5421 112.866 46.0506 114.152 45.9428C115.438 45.8351 116.596 46.1381 117.303 46.5488C118.01 46.9529 118.286 47.4175 118.138 47.6666Z" fill="#282828"/>
<path d="M94.4501 63.5037C94.4703 64.5339 95.3523 65.3622 96.4297 65.3622C97.5003 65.3622 98.3555 64.5272 98.3353 63.5037C98.3151 62.4735 97.4263 61.6453 96.3557 61.6453C95.285 61.6453 94.4299 62.4802 94.4501 63.5037Z" fill="#282828"/>
<path d="M90.4907 56.7972C90.7466 57.0396 92.1606 55.868 94.248 55.7603C96.3354 55.6256 97.9245 56.6154 98.14 56.3461C98.2477 56.2249 97.9716 55.7805 97.2781 55.336C96.5913 54.8849 95.4466 54.4809 94.147 54.555C92.8474 54.6358 91.7768 55.1744 91.1708 55.6929C90.5648 56.2181 90.3695 56.6895 90.4907 56.7972Z" fill="#282828"/>
<path d="M89.7837 49.7875C90.2214 50.2387 91.8038 49.6596 93.743 49.5317C95.6755 49.3431 97.3387 49.6596 97.6888 49.1411C97.8437 48.892 97.5542 48.4274 96.8135 48.0166C96.0795 47.6059 94.881 47.3029 93.5477 47.4106C92.2145 47.5183 91.0833 48.0099 90.4369 48.5351C89.7904 49.067 89.5884 49.5653 89.7837 49.7875Z" fill="#282828"/>
<path d="M77.9864 68.8973C77.9662 67.7661 76.6128 65.1266 75.495 64.9717C72.5121 64.5542 67.1454 64.8842 67.2195 72.4526C67.3272 82.7953 77.6834 80.553 77.6969 80.2567C77.7171 80.0211 78.0605 72.796 77.9864 68.8973Z" fill="#CC675F"/>
<path d="M74.8154 76.506C74.7682 76.4723 74.6336 76.6339 74.3306 76.7753C74.0343 76.9167 73.5225 77.011 72.9839 76.8157C71.8863 76.4252 70.9503 74.7014 70.883 72.8362C70.8493 71.8935 71.0379 70.998 71.3611 70.2506C71.6708 69.4897 72.1556 68.9577 72.701 68.8567C73.2465 68.7221 73.637 69.052 73.7717 69.3415C73.9131 69.6311 73.8525 69.8398 73.9063 69.8533C73.9333 69.8802 74.1285 69.6782 74.041 69.254C73.9939 69.052 73.8727 68.8029 73.6303 68.6076C73.3811 68.4056 73.0175 68.3113 72.6337 68.3517C71.8391 68.4123 71.1254 69.153 70.7685 69.9745C70.3645 70.796 70.1356 71.806 70.176 72.8632C70.2635 74.9438 71.3476 76.8831 72.8492 77.3005C73.5764 77.4823 74.1824 77.2601 74.4922 77.011C74.8019 76.7551 74.849 76.5262 74.8154 76.506Z" fill="#9D4841"/>
<path d="M124.792 49.7202C122.677 48.4476 121.317 46.6969 121.405 44.2324C120.024 44.6701 118.59 42.9126 117.762 41.7275C116.934 40.5424 115.93 39.9566 115.971 38.5089C115.977 38.2261 115.991 37.9231 115.849 37.674C115.634 37.2834 115.136 37.1622 114.711 37.0343C112.496 36.3879 110.671 34.5294 110.065 32.3006C107.863 33.3107 105.412 33.7551 103.002 33.5935C101.958 35.1624 100.08 36.1387 98.1942 36.0916C96.3088 36.0445 94.484 34.9671 93.5211 33.3443C92.9151 34.6506 91.5886 35.5058 90.2015 35.8829C88.8144 36.2599 87.3532 36.2263 85.919 36.1926C86.5856 38.9601 84.8416 42.0912 82.1348 42.9732C81.7712 43.0944 81.3469 43.2089 81.1853 43.5591C81.017 43.9227 81.219 44.3401 81.3671 44.7105C82.3098 47.0605 80.7948 50.0704 78.3438 50.71C80.0608 51.9894 79.9329 55.0262 78.1216 56.1709C77.7512 56.4066 77.2664 56.6894 77.327 57.1203C77.354 57.2887 77.4617 57.4234 77.5627 57.558C78.3505 58.568 79.1384 59.6723 79.2528 60.945C79.3673 62.2176 78.5323 63.6653 77.253 63.7461C77.9331 64.3319 78.5727 65.0861 78.6064 65.9884C78.6401 66.8839 77.7445 67.8199 76.9028 67.5101C76.5459 67.3755 71.3814 66.453 71.1457 66.15C68.1493 62.2311 71.7517 57.7802 71.9604 52.8513C72.1624 47.9224 73.7987 43.1214 76.1891 38.8052C77.1924 36.9939 78.3303 35.2432 79.7713 33.7618C81.4143 32.0717 83.4006 30.7587 85.3803 29.4793C87.966 27.8094 90.6257 26.1395 93.6086 25.3786C99.1638 23.9646 104.995 25.8903 110.24 28.2067C112.234 29.0888 114.227 30.0382 115.917 31.4185C117.937 33.0683 119.438 35.2634 120.758 37.5124C122.657 40.7647 124.253 44.2863 124.684 48.0301" fill="#282828"/>
<path d="M126.757 46.0707C126.757 46.0707 126.65 45.6465 126.178 44.9731C125.956 44.6364 125.633 44.2392 125.337 43.7341C125.04 43.2224 124.798 42.576 124.724 41.8151C124.63 41.0542 124.677 40.1923 124.724 39.2564C124.771 38.3204 124.825 37.2767 124.582 36.1859C124.354 35.1018 123.896 33.9773 123.162 32.9538C122.798 32.4421 122.36 31.9505 121.862 31.5128C121.364 31.0684 120.785 30.6981 120.206 30.3277C119.633 29.9574 119.048 29.5534 118.61 29.0012C118.172 28.4491 117.889 27.769 117.593 27.0755C116.994 25.6816 116.139 24.3147 115.007 23.1229C113.883 21.9311 112.53 20.8604 110.94 20.113C110.159 19.7157 109.304 19.4531 108.436 19.2242C107.553 19.0491 106.638 18.9212 105.715 18.9683C105.251 18.975 104.786 19.0491 104.321 19.103C103.863 19.1838 103.406 19.2915 102.948 19.3791C102.039 19.5743 101.116 19.6215 100.187 19.4329C99.2578 19.2713 98.342 18.9481 97.3859 18.7326C96.4297 18.4902 95.4466 18.3556 94.4433 18.268C93.4468 18.1872 92.43 18.2142 91.4132 18.295C90.3965 18.396 89.3864 18.6047 88.3899 18.9077C86.4237 19.5474 84.5249 20.6921 83.2522 22.4428C83.1243 22.6179 83.0031 22.7862 82.8819 22.9613L83.0435 22.8939C79.9057 22.2341 76.6534 23.1364 74.1755 24.8601C71.6773 26.5772 69.8593 29.1898 69.3206 32.0313L69.4014 31.9236C68.1625 32.5363 66.9369 33.1558 65.8124 33.9032C64.688 34.6506 63.6645 35.5327 62.9036 36.6034C62.1494 37.6807 61.705 38.9399 61.6242 40.1991C61.5367 41.4515 61.8868 42.7443 62.6814 43.6735L62.6881 43.4985C61.2404 45.0068 60.5334 46.9864 60.4055 48.8516C60.2775 50.7235 60.7085 52.5416 61.5771 53.9691C61.7791 54.3394 62.0417 54.6559 62.2841 54.9791C62.54 55.2888 62.8026 55.5784 63.0113 55.8881C63.2201 56.1979 63.3615 56.5345 63.3951 56.8982C63.4355 57.255 63.4086 57.6119 63.3884 57.9688C63.3076 59.3963 63.3615 60.7228 63.5702 61.8877C63.7857 63.0526 64.1425 64.0761 64.6476 64.8572C65.1391 65.645 65.7451 66.1769 66.2905 66.5069C66.8292 66.8503 67.3073 66.9782 67.5699 67.16C67.846 67.3284 67.9402 67.4765 67.9537 67.463C67.9537 67.463 67.8662 67.3082 67.5901 67.1264C67.3275 66.9243 66.8494 66.7829 66.3309 66.4395C65.8057 66.1029 65.2199 65.5776 64.7486 64.7966C64.2637 64.0289 63.9203 63.0189 63.7251 61.8675C63.5298 60.7093 63.4827 59.3963 63.5769 57.9822C63.5971 57.6254 63.6375 57.2618 63.5904 56.878C63.5567 56.4941 63.3951 56.1103 63.1797 55.7871C62.9642 55.4572 62.6948 55.1609 62.4457 54.8579C62.21 54.5414 61.9542 54.2317 61.7656 53.8681C60.9239 52.4742 60.5199 50.7033 60.6479 48.8718C60.7758 47.0538 61.4761 45.1347 62.8766 43.6803L62.9574 43.5995L62.8834 43.5119C62.1427 42.6366 61.8195 41.4178 61.9003 40.2193C61.9811 39.014 62.412 37.8019 63.1393 36.7717C63.8732 35.7415 64.8765 34.8796 65.9808 34.1456C67.0851 33.4117 68.3038 32.7989 69.5428 32.1862L69.6102 32.1525L69.6236 32.0784C70.1488 29.3244 71.9197 26.7792 74.364 25.1025C76.7881 23.4192 79.9528 22.5438 82.9896 23.1902L83.0906 23.2104L83.158 23.1229C83.2792 22.9613 83.4004 22.7929 83.5216 22.6246C84.7471 20.9412 86.5853 19.8302 88.5044 19.204C89.474 18.9077 90.4638 18.699 91.4604 18.598C92.4569 18.5104 93.4535 18.4835 94.4366 18.5643C95.4197 18.6451 96.3893 18.7798 97.332 19.0154C98.2747 19.2309 99.1972 19.5474 100.153 19.7157C100.631 19.8033 101.116 19.8504 101.601 19.8369C102.086 19.8235 102.564 19.7427 103.022 19.6551C103.486 19.5609 103.938 19.4599 104.389 19.3791C104.84 19.3252 105.291 19.2511 105.742 19.2444C106.644 19.1973 107.533 19.3185 108.395 19.4868C109.244 19.709 110.079 19.9581 110.846 20.3487C112.402 21.0692 113.735 22.1196 114.839 23.2845C115.95 24.4494 116.799 25.7826 117.391 27.1563C117.694 27.8431 117.977 28.5501 118.448 29.1292C118.92 29.715 119.526 30.1257 120.105 30.4961C120.691 30.8664 121.256 31.2233 121.741 31.6542C122.232 32.0784 122.657 32.5565 123.014 33.0548C123.734 34.0514 124.192 35.1489 124.421 36.2061C124.663 37.27 124.623 38.2935 124.582 39.2294C124.542 40.1654 124.508 41.034 124.609 41.8084C124.697 42.5827 124.953 43.2493 125.263 43.7611C125.579 44.2728 125.902 44.6566 126.138 44.9933C126.374 45.3233 126.535 45.5926 126.629 45.7744C126.71 45.9697 126.751 46.0707 126.757 46.0707Z" fill="#8E012D"/>
<path d="M87.8242 20.6853C87.8377 20.7055 88.0936 20.5237 88.5919 20.2678C89.0901 20.0187 89.8443 19.6955 90.8341 19.5675C91.8105 19.4329 93.036 19.4867 94.2413 19.9985C95.4398 20.5035 96.6182 21.4394 97.3858 22.739C97.608 23.1094 97.7966 23.5066 97.9245 23.8972C98.0457 24.2877 98.0659 24.6985 97.8706 24.988L97.6282 25.3449L98.0457 25.2169C99.1837 24.8735 100.369 25.0688 101.251 25.5334C102.146 25.998 102.719 26.7454 103.042 27.4121C103.365 28.0854 103.453 28.6982 103.48 29.1089C103.5 29.5196 103.473 29.7486 103.5 29.7553C103.507 29.7553 103.527 29.7015 103.547 29.5937C103.567 29.486 103.587 29.3244 103.587 29.1089C103.594 28.6847 103.534 28.0517 103.224 27.3313C102.914 26.6242 102.328 25.8162 101.379 25.3045C100.45 24.7927 99.1971 24.5638 97.9582 24.9274L98.1265 25.1563C98.4026 24.7456 98.3554 24.2271 98.2275 23.8029C98.0928 23.372 97.8976 22.9679 97.6619 22.5707C96.8539 21.2105 95.6149 20.2341 94.3557 19.7224C93.0831 19.2039 91.8105 19.1702 90.8072 19.3386C89.7904 19.5069 89.0295 19.8638 88.538 20.1533C88.2956 20.3015 88.1138 20.4294 87.9993 20.5237C87.8781 20.6247 87.8175 20.6718 87.8242 20.6853Z" fill="#8E012D"/>
<path d="M71.2803 32.8798C71.2668 32.8932 71.3947 33.0279 71.6506 33.2434C71.9065 33.4521 72.297 33.7484 72.8357 34.0312C73.3744 34.3073 74.0747 34.5766 74.9096 34.6103C75.7311 34.6439 76.7007 34.4352 77.4616 33.7821L77.2327 33.7484C77.3337 33.8831 77.4414 34.0245 77.5424 34.1659C77.6569 34.3005 77.7848 34.4285 77.906 34.5631C78.6804 35.3375 79.6163 35.856 80.5186 36.1186C81.4209 36.3947 82.2828 36.4485 82.9898 36.3812C83.6968 36.3139 84.249 36.1253 84.6126 35.9772C84.9695 35.8088 85.158 35.6944 85.1445 35.6809C85.1243 35.6136 84.35 36.0782 82.9696 36.1657C82.2895 36.2061 81.4613 36.1253 80.6061 35.8492C79.7443 35.5799 78.8622 35.0749 78.1282 34.3477C78.0138 34.2197 77.8925 34.0985 77.7848 33.9706C77.6838 33.8359 77.5828 33.708 77.4885 33.5801L77.3808 33.4387L77.2529 33.5464C76.5728 34.1389 75.684 34.3477 74.9096 34.3342C74.1285 34.3207 73.4484 34.0918 72.9165 33.8427C71.8593 33.3376 71.3139 32.8326 71.2803 32.8798Z" fill="#8E012D"/>
<path d="M66.0082 42.5759C65.9947 42.5759 66.0082 42.6432 66.0352 42.7644C66.0756 42.8856 66.1361 43.0607 66.2775 43.2627C66.5402 43.66 67.1125 44.1448 67.9677 44.3401C68.8228 44.5421 69.8733 44.3535 70.9169 43.963C71.4422 43.7677 71.9808 43.5657 72.533 43.2896C73.0717 43.0136 73.6575 42.6163 73.9335 41.9631C73.9537 41.9025 73.974 41.8487 73.9942 41.7948L73.7517 41.8756C74.7618 42.6365 75.7987 43.2896 76.8559 43.66C77.8996 44.0438 78.9433 44.0842 79.7648 43.9024C80.593 43.7273 81.1923 43.3637 81.5357 43.054C81.7107 42.8991 81.832 42.7644 81.8993 42.6634C81.9734 42.5624 82.007 42.5086 81.9936 42.5018C81.9734 42.4816 81.8118 42.6836 81.4549 42.9597C81.098 43.2358 80.5122 43.5523 79.7176 43.6869C78.9298 43.8351 77.9467 43.7677 76.9434 43.3907C75.9401 43.027 74.9301 42.3806 73.9335 41.6265L73.7652 41.4985L73.6911 41.7005C73.6777 41.7477 73.6575 41.7948 73.6373 41.8419C73.4083 42.3874 72.8966 42.751 72.3848 43.0203C71.8664 43.2896 71.3142 43.4984 70.8092 43.7004C69.7924 44.0977 68.8026 44.2929 68.0081 44.1313C67.2068 43.9765 66.6479 43.5523 66.3718 43.2021C66.0823 42.8318 66.0351 42.5624 66.0082 42.5759Z" fill="#8E012D"/>
<path d="M54.2173 5.87152C54.2173 5.89172 54.3991 5.87825 54.7088 5.95232C55.0186 6.02639 55.4697 6.22839 55.8737 6.67281C56.2777 7.11048 56.6346 7.79057 56.6885 8.63226C56.7693 9.47394 56.5875 10.4301 56.3585 11.4603L56.3181 11.6287L56.4932 11.6219C57.6514 11.5613 58.9644 11.8711 60.0889 12.6454C61.2134 13.4063 62.0753 14.7261 62.1157 16.2277C62.1898 17.5946 61.6241 18.9278 60.6814 19.7021L60.338 19.9782L60.7825 19.9647C62.3783 19.9243 63.826 20.6516 64.735 21.6145C65.671 22.5841 66.0413 23.7826 66.1154 24.759C66.1895 25.7488 65.9942 26.5366 65.8124 27.0484C65.6238 27.5601 65.469 27.816 65.4892 27.8295C65.4959 27.8362 65.543 27.7756 65.6171 27.6477C65.6979 27.5265 65.7989 27.3379 65.9067 27.0821C66.1221 26.5703 66.3578 25.769 66.3039 24.7455C66.2568 23.7355 65.8865 22.4696 64.9168 21.4327C63.9741 20.4092 62.4658 19.6281 60.769 19.6617L60.87 19.9311C61.9069 19.0961 62.5062 17.6619 62.4322 16.2075C62.4052 15.4196 62.1696 14.6453 61.779 13.9921C61.3885 13.3322 60.8498 12.807 60.264 12.3963C59.0721 11.5815 57.6985 11.2785 56.4797 11.3593L56.6144 11.5142C56.8366 10.4772 57.005 9.49415 56.9039 8.61206C56.8231 7.72997 56.4259 7.00948 55.9882 6.5718C55.5438 6.11393 55.059 5.92539 54.729 5.87825C54.5607 5.85132 54.4328 5.84458 54.352 5.85805C54.2577 5.85805 54.2173 5.86479 54.2173 5.87152Z" fill="#8E012D"/>
<path d="M36.1987 28.6308C36.192 28.6375 36.2526 28.6712 36.3671 28.725C36.4816 28.7789 36.6566 28.8732 36.8856 28.954C37.3502 29.1291 38.0572 29.3243 38.9797 29.3849C39.8954 29.4388 41.0267 29.358 42.2185 28.9338C43.4103 28.5298 44.6695 27.7621 45.6593 26.5838L45.4304 26.5703C46.3731 28.0719 48.0565 29.4388 50.1438 29.6677C52.3524 29.9101 54.5072 28.6375 55.2411 26.8329L54.9718 26.8262C55.2411 27.5399 55.7125 28.1258 56.2511 28.5567C56.7898 28.9944 57.3824 29.2839 57.9614 29.4859C59.1398 29.8697 60.2441 29.8428 61.1127 29.7553C61.9948 29.661 62.6749 29.4994 63.1395 29.3849C63.6041 29.2705 63.8465 29.1897 63.8465 29.1762C63.8398 29.1627 63.5907 29.2031 63.1193 29.2907C62.6547 29.3715 61.9679 29.5061 61.0993 29.5735C60.2374 29.6341 59.16 29.6341 58.0422 29.2503C56.9447 28.8732 55.7394 28.0584 55.2411 26.7185L55.1132 26.375L54.9718 26.7117C54.285 28.3749 52.2447 29.5802 50.1775 29.3513C48.2113 29.1358 46.5886 27.8362 45.6728 26.402L45.5651 26.2336L45.4371 26.3885C44.4877 27.5197 43.2891 28.2806 42.1377 28.6914C40.9863 29.1223 39.882 29.2233 38.9864 29.1964C37.1818 29.1291 36.2189 28.5634 36.1987 28.6308Z" fill="#8E012D"/>
<path d="M47.3296 43.5455C47.3228 43.5455 47.3498 43.6263 47.4575 43.7341C47.5652 43.8351 47.7673 43.9495 48.0501 43.9832C48.6089 44.0438 49.417 43.9428 50.326 43.559C51.2283 43.1752 52.2316 42.448 52.9117 41.31C53.5917 40.1855 53.9217 38.6772 53.5985 37.1824L53.5917 37.1487L53.3695 37.3238C54.7432 37.9837 56.2515 38.0645 57.5241 37.8153C58.8102 37.5729 59.8674 36.9871 60.6417 36.4013C61.4228 35.8087 61.9413 35.2027 62.2645 34.765C62.5877 34.3274 62.7291 34.058 62.7156 34.0513C62.6618 34.0042 62.0625 35.0882 60.5138 36.2195C59.7394 36.7716 58.7159 37.3103 57.477 37.5325C56.2515 37.7547 54.8105 37.6672 53.5109 37.041L53.2281 36.9063L53.2887 37.216L53.2955 37.243C53.5985 38.6503 53.3022 40.0845 52.6692 41.1551C52.0363 42.2392 51.0936 42.953 50.2385 43.3503C49.3766 43.7475 48.582 43.8755 48.0635 43.8553C47.5181 43.8283 47.343 43.5186 47.3296 43.5455Z" fill="#8E012D"/>
<path d="M76.8218 5.81104C76.7477 5.8245 77.4076 6.9692 77.347 8.97578C77.3066 9.96561 77.0574 11.1507 76.4043 12.2819C75.7511 13.4064 74.6738 14.4501 73.3136 15.0965C72.546 15.4601 71.738 15.6756 70.9636 15.7497L70.7751 15.7699L70.8357 15.9517C71.2195 17.1031 71.334 18.2613 71.2801 19.2848C71.2195 20.3083 71.004 21.2038 70.7414 21.9176C70.6135 22.2745 70.4788 22.5977 70.3374 22.8468C70.196 23.0959 69.994 23.2575 69.7987 23.2777C69.6035 23.2979 69.4553 23.2306 69.3813 23.1565C69.3072 23.0825 69.2937 23.0219 69.2803 23.0286C69.2735 23.0286 69.2668 23.0959 69.3409 23.1902C69.4082 23.2845 69.5765 23.3855 69.8055 23.3788C70.0411 23.3788 70.297 23.1902 70.4653 22.9209C70.6337 22.6515 70.7751 22.3418 70.9232 21.9782C71.2195 21.2577 71.4619 20.3419 71.5427 19.2915C71.6168 18.2411 71.5158 17.0493 71.1252 15.8507L70.9973 16.0527C71.812 15.9786 72.6537 15.7564 73.455 15.3726C74.8758 14.6925 75.9936 13.6017 76.6602 12.4166C77.3268 11.2248 77.5625 9.98581 77.5759 8.96905C77.5894 7.94556 77.3807 7.1308 77.1988 6.59212C77.0978 6.32278 77.017 6.12078 76.943 5.99284C76.8689 5.87837 76.8285 5.81104 76.8218 5.81104Z" fill="#8E012D"/>
<path d="M7.68213 233.983C7.68213 233.983 23.1086 254.358 35.9225 259.018C48.7296 263.677 116.408 259.018 116.408 259.018L113.068 226.704L57.4629 223.499L7.68213 233.983Z" fill="#282828"/>
<path d="M127.545 174.337C127.545 174.337 122.192 164.419 120.098 160.789C116.98 155.376 109.068 154.568 109.068 154.568L115.23 180.465L127.545 174.337Z" fill="#8E012D"/>
<path d="M100.174 98.693C108.759 98.9085 114.981 109.77 115.486 118.355C115.89 125.223 115.163 132.347 114.981 135.613C114.429 145.188 110.658 151.194 103.608 151.78C103.191 159.066 103.621 169.785 90.5652 171.193C83.3738 171.193 76.7279 165.483 76.3979 158.298V154.83C76.3979 154.83 75.9872 147.289 75.8054 141.498C75.7178 138.73 75.1792 129.586 75.0647 122.193C74.9233 112.84 77.1655 101.703 89.6023 99.3327C91.4877 98.9691 93.5751 98.8209 95.8443 98.7267C97.3997 98.6661 98.8407 98.6593 100.174 98.693Z" fill="#CC675F"/>
<path d="M76.0406 125.028C75.8521 124.94 68.3443 122.691 68.5328 130.367C68.7213 138.044 76.3908 136.273 76.3975 136.051C76.4043 135.828 76.0406 125.028 76.0406 125.028Z" fill="#CC675F"/>
<path d="M73.9804 133.202C73.9467 133.176 73.8457 133.297 73.6235 133.411C73.4081 133.519 73.031 133.593 72.627 133.458C71.8122 133.182 71.0918 131.91 71.0244 130.529C70.9907 129.829 71.1187 129.162 71.3544 128.603C71.5766 128.038 71.9267 127.634 72.3374 127.553C72.7414 127.452 73.0377 127.688 73.1387 127.903C73.2465 128.119 73.1993 128.267 73.2397 128.28C73.2599 128.3 73.4013 128.146 73.334 127.829C73.3003 127.681 73.2061 127.499 73.0175 127.358C72.829 127.21 72.5596 127.142 72.2701 127.183C71.6776 127.237 71.1591 127.795 70.9032 128.408C70.6137 129.021 70.4521 129.775 70.4925 130.563C70.58 132.112 71.4082 133.539 72.526 133.829C73.0714 133.957 73.5158 133.782 73.7447 133.593C73.9669 133.384 74.0073 133.209 73.9804 133.202Z" fill="#9D4841"/>
<path d="M110.799 126.718C110.846 127.667 110.079 128.482 109.089 128.543C108.106 128.603 107.264 127.896 107.224 126.947C107.177 125.997 107.944 125.183 108.934 125.115C109.924 125.055 110.759 125.769 110.799 126.718Z" fill="#282828"/>
<path d="M111.897 122.247C111.675 122.483 110.308 121.493 108.375 121.52C106.449 121.52 105.042 122.53 104.833 122.294C104.732 122.193 104.948 121.769 105.561 121.311C106.16 120.86 107.19 120.409 108.395 120.402C109.594 120.395 110.611 120.826 111.197 121.271C111.803 121.715 112.011 122.139 111.897 122.247Z" fill="#282828"/>
<path d="M95.1639 127.041C95.2043 127.991 94.4435 128.805 93.4536 128.866C92.4706 128.927 91.6289 128.22 91.5885 127.27C91.5481 126.321 92.3089 125.506 93.2988 125.439C94.2819 125.385 95.1168 126.099 95.1639 127.041Z" fill="#282828"/>
<path d="M95.4867 122.55C95.2645 122.786 93.8976 121.796 91.9651 121.823C90.0393 121.823 88.632 122.833 88.4233 122.597C88.3223 122.496 88.5377 122.072 89.1505 121.614C89.7498 121.163 90.78 120.712 91.9853 120.705C93.1906 120.698 94.2006 121.129 94.7864 121.574C95.3857 122.018 95.5944 122.442 95.4867 122.55Z" fill="#282828"/>
<path d="M95.4195 115.385C95.1569 115.884 93.4533 115.594 91.4939 115.749C89.5277 115.85 87.9251 116.348 87.5413 115.884C87.373 115.661 87.5952 115.197 88.2483 114.732C88.888 114.268 89.9721 113.843 91.2515 113.763C92.5308 113.682 93.7025 113.965 94.4432 114.342C95.1973 114.712 95.534 115.143 95.4195 115.385Z" fill="#282828"/>
<path d="M112.805 115.022C112.489 115.527 110.9 115.089 109.008 115.096C107.116 115.049 105.52 115.446 105.217 114.934C105.082 114.685 105.358 114.221 106.038 113.776C106.712 113.339 107.802 112.975 109.035 112.988C110.267 113.002 111.351 113.392 112.011 113.844C112.684 114.301 112.947 114.78 112.805 115.022Z" fill="#282828"/>
<path d="M103.621 151.787C103.621 151.787 95.2717 152.649 87.4878 149.154C87.4878 149.154 89.7772 155.915 103.473 155.349C103.507 154.11 103.628 152.696 103.621 151.787Z" fill="#9D4841"/>
<path d="M99.8099 126.839C99.9311 126.778 100.261 127.182 100.699 127.883C100.914 128.233 101.163 128.657 101.419 129.128C101.547 129.371 101.682 129.62 101.817 129.883C101.951 130.132 102.126 130.435 102.221 130.825C102.322 131.209 102.281 131.707 102.039 132.071C101.803 132.428 101.466 132.637 101.15 132.758C100.827 132.872 100.503 132.899 100.2 132.859C99.9177 132.818 99.6685 132.731 99.4598 132.63C98.6518 132.206 98.3487 131.781 98.4094 131.687C98.4767 131.559 98.975 131.795 99.6955 131.99C100.059 132.078 100.456 132.111 100.82 131.93C101.002 131.842 101.157 131.714 101.237 131.573C101.318 131.431 101.338 131.276 101.285 131.054C101.231 130.832 101.116 130.596 100.975 130.32C100.854 130.051 100.739 129.795 100.625 129.539C100.409 129.041 100.227 128.583 100.086 128.192C99.8032 127.405 99.6887 126.893 99.8099 126.839Z" fill="#282828"/>
<path d="M89.6554 104.794C94.4833 105.763 101.129 107.09 103.621 106.612C107.822 105.804 109.957 103.979 109.957 103.979L110.401 104.403C111.748 103.73 107.708 99.7771 104.395 98.417C99.392 96.3565 91.7428 95.0906 87.1236 96.269C81.5617 97.6897 76.9425 100.195 74.1481 104.767C71.3537 109.339 70.3033 114.672 70.4581 119.897C70.5053 121.493 70.4918 123.627 71.4278 124.981C71.4278 124.981 75.0437 124.408 75.0437 126.832C75.0437 127.674 75.1514 131.209 75.7843 131.822C77.3061 133.29 79.1713 131.909 80.0332 130.529C81.8647 127.58 82.0734 124.051 82.235 120.671C82.3495 118.267 82.4572 115.81 81.7098 113.507C81.3058 112.248 80.5853 109.204 82.235 107.292C82.2485 107.292 83.878 103.629 89.6554 104.794Z" fill="#282828"/>
<path d="M99.7292 137.667C99.7494 137.754 99.406 137.936 98.7933 138.003C98.1872 138.071 97.3051 137.983 96.45 137.559C95.5948 137.128 94.9956 136.475 94.6858 135.95C94.3693 135.418 94.3155 135.034 94.3963 135C94.5714 134.906 95.2716 136.192 96.7665 136.933C98.2546 137.687 99.7023 137.471 99.7292 137.667Z" fill="#282828"/>
<path d="M67.1254 153.881L76.3907 152.265C75.9867 152.373 90.7735 167.328 103.621 153.713L109.068 154.568C109.068 154.568 120.125 185.044 120.967 190.437C121.808 195.831 126.959 213.284 126.959 213.284C126.959 213.284 104.416 222.219 96.7394 221.856C89.0632 221.499 57.3955 225.606 57.3955 225.606L67.2399 170.654L67.1254 153.881Z" fill="#8E012D"/>
<path d="M163.267 198.78L167.872 189.851L182.45 183.225H192.672H200.133L191.238 191.003L163.267 198.78Z" fill="#E0E0E0"/>
<path d="M117.58 170.627L115.136 172.351L162.688 196.672C162.688 196.672 165.853 195.561 166.034 193.016C166.216 190.471 161.597 187.084 146.709 181.71C141.578 179.865 117.58 170.627 117.58 170.627Z" fill="#EBEBEB"/>
<path d="M162.688 192.491C162.688 192.491 163.961 188.774 168.701 186.033C173.448 183.293 180.303 181.077 189.157 180.869C198.012 180.66 203.392 178.862 203.392 178.862L204.449 182.027C204.449 182.027 191.797 185.084 188.208 184.666C184.626 184.242 170.647 188.821 167.873 193.723C165.098 198.625 163.745 199.642 163.745 199.642L159.631 196.672L162.688 192.491Z" fill="#EBEBEB"/>
<path d="M114.267 171.953L77.1113 203.379L121.741 225.599H128.555L170.148 207.627L208.145 181.407V179.428L168.801 192.403C168.094 192.639 167.515 193.157 167.239 193.851C166.93 194.639 166.189 195.628 164.452 195.756C161.496 195.979 160.654 193.056 160.654 193.056L114.267 171.953Z" fill="#F2D0DE"/>
<path d="M121.371 225.417C121.31 225.343 130.017 218.118 140.811 209.284C151.611 200.443 160.412 193.346 160.472 193.42C160.533 193.494 151.833 200.719 141.033 209.56C130.239 218.388 121.432 225.491 121.371 225.417Z" fill="#282828"/>
<path d="M128.468 225.552C128.407 225.478 137.181 218.623 148.063 210.254C158.944 201.877 167.812 195.15 167.873 195.231C167.933 195.305 159.159 202.16 148.278 210.536C137.397 218.906 128.529 225.633 128.468 225.552Z" fill="#282828"/>
<path d="M118.307 220.495C119.182 219.916 159.933 209.823 173.912 206.618C187.884 203.413 195.452 200.214 203.896 209.527C212.34 218.839 209.135 221.755 203.896 233.686C198.658 245.625 178.275 255.227 165.758 257.846C153.24 260.466 122.966 257.846 122.966 257.846V237.76L118.307 220.495Z" fill="#282828"/>
<path d="M119.344 242.46C119.337 242.454 119.378 242.406 119.465 242.305C119.566 242.191 119.694 242.05 119.849 241.868C120.213 241.47 120.718 240.918 121.357 240.218C122.677 238.791 124.589 236.73 127.054 234.286C129.525 231.848 132.535 228.987 136.184 226.185C139.814 223.371 144.123 220.624 149.032 218.583C153.941 216.53 158.89 215.331 163.415 214.543C167.953 213.782 172.081 213.412 175.542 213.176C179.01 212.947 181.817 212.846 183.757 212.779C184.706 212.752 185.454 212.732 185.992 212.718C186.235 212.718 186.423 212.712 186.571 212.712C186.699 212.712 186.767 212.718 186.767 212.718C186.767 212.725 186.699 212.732 186.571 212.745C186.423 212.759 186.228 212.772 185.992 212.786C185.46 212.813 184.713 212.86 183.763 212.914C181.824 213.021 179.023 213.163 175.562 213.419C172.101 213.688 167.987 214.079 163.469 214.853C158.964 215.661 154.042 216.86 149.167 218.9C144.285 220.927 140.002 223.647 136.38 226.435C132.737 229.215 129.72 232.05 127.229 234.454C124.751 236.878 122.805 238.912 121.458 240.306C120.798 240.992 120.28 241.524 119.903 241.915C119.735 242.083 119.6 242.218 119.492 242.326C119.405 242.42 119.351 242.467 119.344 242.46Z" fill="#8E012D"/>
<path d="M47.7129 209.823C47.7129 209.823 62.1428 220.63 71.7515 220.583C71.7515 220.583 74.9499 220.536 77.3538 219.196C79.7576 217.856 85.7505 215.095 85.7505 215.095C85.7505 215.095 97.3725 213.472 97.2984 210.247C97.2984 210.247 99.7225 209.217 99.6484 207.681C99.5743 206.139 98.3287 205.628 97.2244 205.702C96.1268 205.776 82.2625 206.288 82.2625 206.288C82.2625 206.288 95.2447 205.331 95.7632 204.598C95.8507 204.476 95.9046 204.335 95.945 204.18C96.1807 203.21 95.5208 202.254 94.5579 201.978C93.3189 201.628 91.043 201.177 87.2924 201.015C83.6294 200.86 80.431 200.894 80.431 200.894C80.431 200.894 75.1183 199.009 73.684 199.123C70.6674 199.359 55.1601 200.483 55.1601 200.483" fill="#CC675F"/>
<path d="M55.1666 200.49C55.1666 200.49 55.3215 200.463 55.6245 200.436C55.9409 200.409 56.3854 200.369 56.9644 200.315C58.1563 200.221 59.88 200.079 62.0819 199.904C64.304 199.729 67.0041 199.521 70.115 199.278C70.8961 199.218 71.7041 199.157 72.5323 199.096C72.9498 199.069 73.3605 199.022 73.805 199.009C74.2561 199.009 74.687 199.09 75.1247 199.184C76.862 199.568 78.6396 200.14 80.4846 200.773L80.4374 200.766C84.8344 200.941 89.7634 200.49 94.9212 201.945C95.5609 202.234 96.0726 202.854 96.1534 203.588C96.1871 203.951 96.14 204.322 95.9312 204.658C95.7562 204.88 95.5676 204.894 95.406 204.961C95.2377 205.008 95.0694 205.055 94.901 205.089C93.5611 205.365 92.2009 205.52 90.8138 205.682C88.0463 205.991 85.198 206.241 82.2824 206.463L82.2622 206.119C85.528 205.991 88.9486 205.857 92.4366 205.715C93.46 205.675 94.4768 205.635 95.4936 205.594C95.9986 205.574 96.5036 205.554 97.0086 205.534C97.5136 205.493 98.0725 205.52 98.5708 205.742C99.0691 205.944 99.4865 206.375 99.6751 206.88C99.7761 207.136 99.8165 207.399 99.83 207.661C99.83 207.937 99.7895 208.22 99.6683 208.463C99.4461 208.961 99.0623 209.325 98.6718 209.641C98.2678 209.951 97.8436 210.2 97.3789 210.409L97.4867 210.247C97.48 210.907 97.0759 211.452 96.6383 211.823C96.1938 212.206 95.6956 212.496 95.1906 212.752C94.1738 213.25 93.1166 213.607 92.0662 213.924C89.9586 214.536 87.8578 214.954 85.7906 215.27L85.8377 215.257C83.0568 216.55 80.3769 217.802 77.8787 219.102C76.66 219.829 75.293 220.26 73.9598 220.495C73.2932 220.617 72.6266 220.691 71.9667 220.724C71.3001 220.724 70.6604 220.65 70.014 220.623C67.4687 220.314 65.1861 219.533 63.1256 218.731C61.0584 217.923 59.2336 216.994 57.5974 216.139C54.3384 214.381 51.8806 212.779 50.2242 211.648C49.396 211.082 48.7698 210.631 48.3523 210.321C48.1503 210.173 47.9954 210.052 47.8809 209.964C47.7799 209.883 47.7261 209.836 47.7261 209.836C47.7261 209.83 47.7867 209.87 47.8944 209.944C48.0156 210.025 48.1772 210.139 48.3792 210.281C48.8236 210.577 49.4566 211.008 50.2781 211.56C51.9547 212.658 54.4259 214.233 57.6849 215.964C59.3212 216.805 61.1459 217.721 63.2064 218.516C65.2601 219.304 67.536 220.071 70.0409 220.361C70.6671 220.388 71.3068 220.455 71.9465 220.455C72.5929 220.421 73.2461 220.341 73.8992 220.219C75.2122 219.984 76.5118 219.573 77.7238 218.846C80.2287 217.526 82.9019 216.274 85.6896 214.967L85.7098 214.96L85.7367 214.954C87.7837 214.637 89.8778 214.22 91.9585 213.607C92.9954 213.297 94.0391 212.94 95.029 212.456C95.5205 212.206 95.9986 211.93 96.4026 211.574C96.8133 211.23 97.1298 210.765 97.1298 210.267V210.153L97.2375 210.106C98.0658 209.708 98.9546 209.156 99.3451 208.335C99.4461 208.133 99.4731 207.911 99.4731 207.695C99.4529 207.466 99.4192 207.237 99.3384 207.022C99.1768 206.597 98.8469 206.254 98.4159 206.079C97.985 205.89 97.5136 205.864 97.0221 205.897C96.5171 205.917 96.012 205.938 95.507 205.958C94.497 205.998 93.4735 206.039 92.45 206.079C88.9621 206.214 85.5414 206.348 82.269 206.476L82.2488 206.133C85.1576 205.911 88.0059 205.668 90.7666 205.365C92.147 205.204 93.5139 205.049 94.8202 204.786C94.9818 204.752 95.1434 204.712 95.2983 204.665C95.4464 204.618 95.6148 204.557 95.6484 204.503C95.7966 204.268 95.8504 203.938 95.8168 203.648C95.7562 203.042 95.3252 202.51 94.7731 202.268C93.588 201.871 92.2817 201.675 91.0495 201.507C89.8038 201.352 88.5715 201.258 87.3662 201.204C84.9489 201.157 82.6326 201.11 80.4307 201.069H80.4038L80.3836 201.063C78.5453 200.423 76.7744 199.844 75.0641 199.46C74.6399 199.366 74.209 199.285 73.805 199.285C73.3875 199.298 72.9565 199.339 72.5458 199.366C71.7176 199.426 70.9095 199.48 70.1284 199.534C67.0108 199.749 64.3107 199.938 62.0886 200.093C59.8868 200.241 58.1563 200.356 56.9644 200.43C56.3854 200.463 55.9409 200.49 55.6245 200.51C55.3215 200.497 55.1666 200.49 55.1666 200.49Z" fill="#9D4841"/>
<path d="M97.514 210.395C97.514 210.422 97.2582 210.456 96.8003 210.489C96.2616 210.53 95.6152 210.577 94.8476 210.631C93.1979 210.745 90.9287 210.914 88.4171 211.122C85.9055 211.331 83.6296 211.506 81.9798 211.594C81.1516 211.641 80.485 211.668 80.0271 211.681C79.5625 211.695 79.3066 211.688 79.3066 211.661C79.3066 211.634 79.5558 211.594 80.0204 211.546C80.5591 211.493 81.2055 211.425 81.9664 211.351C83.6969 211.196 85.9257 210.994 88.3969 210.772C90.9085 210.563 93.1911 210.435 94.8476 210.382C95.6758 210.355 96.3424 210.341 96.807 210.348C97.2514 210.355 97.5073 210.368 97.514 210.395Z" fill="#9D4841"/>
<path d="M86.1747 214.92C86.1949 215.034 83.9661 215.398 81.239 215.822C79.8721 216.044 78.6466 216.273 77.7645 216.469C76.8824 216.657 76.337 216.792 76.3168 216.745C76.2831 216.651 78.4311 215.896 81.1851 215.479C82.5588 215.257 83.8045 215.109 84.7067 215.014C85.609 214.913 86.1679 214.873 86.1747 214.92Z" fill="#9D4841"/>
<path d="M104.826 81.5361C104.826 81.5563 104.584 81.6237 104.133 81.6304C103.682 81.6304 103.015 81.5563 102.275 81.2197C101.541 80.8897 100.712 80.2702 100.18 79.3073C99.6552 78.3579 99.4262 77.1055 99.7292 75.8733C99.8033 75.5635 99.9178 75.274 100.046 74.9979C100.18 74.7218 100.369 74.4255 100.699 74.2774C101.029 74.136 101.359 74.1966 101.628 74.2505C101.904 74.3111 102.167 74.3717 102.423 74.439C103.446 74.7016 104.348 75.0046 105.096 75.2672C105.843 75.5366 106.443 75.7722 106.853 75.9473C107.264 76.1224 107.48 76.2369 107.473 76.2571C107.453 76.3042 106.53 75.9743 105.015 75.5096C104.261 75.2807 103.352 75.0046 102.342 74.7622C102.086 74.7016 101.83 74.641 101.561 74.5939C101.305 74.5467 101.042 74.5131 100.834 74.6074C100.423 74.8026 100.221 75.4356 100.066 75.9743C99.7831 77.1122 99.9851 78.2771 100.456 79.1659C100.935 80.0615 101.682 80.6608 102.369 81.0042C103.062 81.3543 103.695 81.4621 104.126 81.5025C104.577 81.5294 104.826 81.5092 104.826 81.5361Z" fill="#282828"/>
<path d="M54.9512 109.709C54.9512 109.709 44.2853 111.487 40.1442 122.153C35.9964 132.818 25.2901 178.034 24.105 182.774C22.9199 187.515 21.7214 196.948 27.0139 201.083C32.8721 205.655 50.7159 211.91 50.7159 211.91L57.4022 200.355L46.7364 187.07C46.7364 187.07 56.7356 159.476 57.3282 155.032C57.914 150.581 54.9512 109.709 54.9512 109.709Z" fill="#CC675F"/>
<path d="M79.2994 200.517C79.2994 200.524 79.1648 200.504 78.9156 200.45C78.6328 200.389 78.2692 200.308 77.8046 200.207C76.808 199.972 75.4074 199.642 73.6635 199.238H73.6971C69.7311 199.547 63.9874 200.005 57.4155 200.517L57.328 200.524L57.2674 200.45C56.3584 199.325 55.4157 198.154 54.4528 196.962C51.6449 193.467 48.9986 190.174 46.7092 187.326L46.7294 187.346C45.1201 186 43.2752 185.239 41.5985 184.922C39.9084 184.606 38.3866 184.727 37.1746 184.983C35.9626 185.245 35.0535 185.636 34.4543 185.925C33.855 186.222 33.552 186.417 33.5385 186.397C33.5318 186.39 33.6058 186.336 33.7472 186.235C33.8886 186.134 34.1109 186 34.4071 185.838C34.9997 185.515 35.902 185.091 37.1275 184.801C38.3462 184.511 39.9017 184.363 41.6389 184.666C43.3627 184.969 45.2548 185.73 46.9247 187.104L46.9382 187.111L46.9449 187.124C49.241 189.959 51.9008 193.245 54.7221 196.733C55.685 197.931 56.6277 199.103 57.5367 200.227L57.3886 200.167C63.9672 199.702 69.7109 199.291 73.6837 199.015H73.7039L73.7174 199.022C75.4546 199.473 76.8417 199.83 77.8382 200.093C78.2894 200.214 78.653 200.315 78.9358 200.389C79.1715 200.463 79.2994 200.51 79.2994 200.517Z" fill="#9D4841"/>
<path d="M27.5928 150.649L55.9745 160.641L62.0414 152.265L57.3953 108.861C57.3953 108.861 45.7732 110.093 40.6019 121.048C35.1882 132.529 27.5928 150.649 27.5928 150.649Z" fill="#E0E0E0"/>
<path d="M27.5928 150.649C27.5995 150.635 27.7813 150.689 28.1382 150.797C28.522 150.918 29.0338 151.086 29.6734 151.295C31.0336 151.753 32.9526 152.393 35.3094 153.187C40.0834 154.824 46.6284 157.073 53.8535 159.55C54.9375 159.928 56.0014 160.298 57.0115 160.648L56.7825 160.769C58.439 154.11 59.9136 148.211 60.9775 143.935C62.0347 139.687 62.6407 137.108 62.6407 137.108C62.6474 137.108 62.6474 137.148 62.6407 137.229C62.6339 137.31 62.6272 137.431 62.6003 137.592C62.5464 137.902 62.4656 138.367 62.3377 138.959C62.0953 140.144 61.7047 141.862 61.2132 143.996C60.2234 148.258 58.7891 154.184 57.1327 160.863L57.0855 161.045L56.9037 160.985C55.8937 160.635 54.8231 160.264 53.7457 159.894C46.5341 157.376 40.0026 155.1 35.2353 153.436C32.8988 152.601 30.9932 151.921 29.6398 151.443C29.0068 151.208 28.5018 151.026 28.1247 150.884C27.7679 150.736 27.5928 150.662 27.5928 150.649Z" fill="#282828"/>
<path d="M153.772 209.318C160.358 207.762 166.559 213.513 165.105 220.125C165.058 220.334 165.004 220.549 164.943 220.765C162.741 228.569 146.615 243.039 143.369 245.113C140.123 247.18 117.203 255.018 117.203 255.018L114.826 233.484C114.826 233.484 138.561 218.563 145.046 213.425C147.921 211.149 151.113 209.951 153.772 209.318Z" fill="#CC675F" stroke="#9D4841" stroke-width="0.653546" stroke-miterlimit="10"/>
<path d="M175.797 240.945C173.602 238.353 170.741 238.649 167.401 239.484C164.728 240.15 159.758 241.006 157.045 241.484C151.496 242.46 145.032 240.379 140.245 237.41L129.646 250.81C134.427 250.796 139.194 252.399 142.999 255.287C145.47 257.166 147.564 260.102 150.668 260.021C152.755 259.967 155.456 259.294 156.997 257.887C159.011 256.048 162.606 255.294 165.361 255.193C171.865 254.951 173.825 253.638 175.912 250.924C178.073 248.116 177.144 242.541 175.797 240.945Z" fill="#CC675F"/>
<path d="M62.6475 222.502C63.6306 222.502 88.9957 213.297 98.032 212.718C104.429 212.307 112.94 218.92 123.478 225.552C136.224 233.572 149.57 241.901 149.375 242.197C149.018 242.729 139.941 255.907 139.941 255.907L104.193 237.989L91.6958 239.477C82.215 239.376 62.6475 222.502 62.6475 222.502Z" fill="#CC675F"/>
<path d="M62.6475 222.502C62.6475 222.502 62.7485 222.461 62.9505 222.387C63.1659 222.313 63.4622 222.219 63.846 222.091C64.6473 221.835 65.8122 221.465 67.2936 220.994C70.3102 220.051 74.6466 218.691 79.9997 217.014C82.6864 216.179 85.6289 215.263 88.7802 214.28C91.9651 213.378 95.4868 212.745 99.2239 212.725C99.6952 212.732 100.16 212.725 100.638 212.779C101.123 212.819 101.587 212.947 102.059 213.068C102.981 213.351 103.883 213.708 104.772 214.105C106.557 214.9 108.321 215.829 110.085 216.819C110.967 217.317 111.849 217.829 112.731 218.368C113.607 218.913 114.469 219.492 115.344 220.058C117.095 221.196 118.872 222.354 120.67 223.519C127.033 227.66 133.134 231.633 138.696 235.255L138.702 235.262L138.709 235.269C141.032 237.087 143.416 238.696 145.826 239.948C148.224 241.235 150.91 241.383 153.341 241.376C154.573 241.369 155.745 241.255 156.917 241.208C158.061 241.241 159.159 241.086 160.209 240.871C162.303 240.433 164.195 239.841 165.939 239.403C167.683 238.959 169.273 238.629 170.693 238.582C172.107 238.514 173.333 238.777 174.195 239.268C175.057 239.76 175.535 240.386 175.804 240.817C176.067 241.255 176.161 241.504 176.161 241.504C176.147 241.511 176.033 241.275 175.757 240.851C175.481 240.44 174.996 239.834 174.141 239.369C173.292 238.905 172.087 238.662 170.693 238.743C169.299 238.804 167.717 239.147 165.987 239.605C164.249 240.056 162.364 240.662 160.25 241.113C159.199 241.336 158.068 241.497 156.903 241.47C155.772 241.524 154.567 241.645 153.334 241.652C152.102 241.672 150.823 241.625 149.523 241.43C148.23 241.248 146.904 240.857 145.678 240.218C143.234 238.959 140.844 237.356 138.494 235.524L138.507 235.531C132.939 231.915 126.838 227.949 120.468 223.815C118.67 222.643 116.893 221.492 115.142 220.354C114.267 219.788 113.398 219.209 112.536 218.671C111.661 218.139 110.779 217.627 109.903 217.129C108.146 216.145 106.395 215.21 104.624 214.422C103.742 214.024 102.846 213.674 101.951 213.398C101.5 213.277 101.049 213.156 100.597 213.115C100.14 213.062 99.6683 213.068 99.2104 213.062C95.5137 213.068 92.0123 213.688 88.8475 214.57C85.6895 215.533 82.747 216.435 80.0603 217.256C74.6937 218.886 70.3439 220.213 67.3205 221.128C65.8257 221.573 64.6608 221.923 63.8528 222.165C63.4689 222.28 63.1659 222.36 62.9505 222.428C62.7552 222.482 62.6475 222.502 62.6475 222.502Z" fill="#9D4841"/>
<path d="M92.0053 190.646L71.1382 194.342L70.2157 173.677L64.8087 155.376C65.0309 155.174 55.5367 161.739 55.1192 173.139C54.8498 180.431 54.8633 189.185 55.0114 192.511C55.1528 195.837 55.4895 202.887 58.0146 205.204C60.5464 207.513 65.1117 208.766 69.603 208.045C74.781 207.21 81.4135 205.204 81.4135 205.204L95.702 200.786L92.0053 190.646Z" fill="#CC675F"/>
<path d="M92.0054 190.646C92.0054 190.646 92.0929 190.855 92.2613 191.286C92.4296 191.73 92.672 192.376 92.9885 193.218C93.6282 194.942 94.5709 197.48 95.7896 200.753L95.8233 200.834L95.7358 200.861C92.4431 201.891 88.3693 203.157 83.6559 204.631C81.3059 205.385 78.7606 206.126 76.047 206.806C74.6936 207.15 73.293 207.48 71.852 207.769C70.411 208.059 68.9162 208.362 67.3608 208.382C65.8121 208.416 64.2162 208.234 62.6541 207.796C61.0986 207.365 59.5566 206.665 58.2436 205.594C57.577 205.069 57.045 204.335 56.6882 203.554C56.3313 202.773 56.062 201.945 55.8465 201.11C55.4357 199.426 55.2001 197.682 55.0519 195.911C54.7556 192.37 54.7422 188.727 54.7422 185.01C54.7489 181.293 54.8028 177.489 54.9375 173.63C54.9846 169.893 56.0687 166.25 57.8396 163.126C58.7217 161.557 59.7654 160.103 60.9235 158.776C61.5026 158.11 62.1086 157.483 62.7349 156.884C63.0513 156.588 63.3745 156.298 63.7045 156.015L64.2095 155.605L64.4654 155.409L64.6 155.315L64.6674 155.268L64.701 155.241L64.7212 155.228C64.7145 155.228 64.7549 155.207 64.7751 155.207C64.7886 155.201 64.7886 155.201 64.8155 155.201C64.9232 155.1 65.0512 155.584 64.93 155.497L64.9771 155.322C66.8894 161.806 68.694 167.947 70.3639 173.63L70.3707 173.65V173.671C70.7073 181.495 71.0036 188.471 71.2527 194.336L71.1181 194.228C77.663 193.097 82.8882 192.188 86.4974 191.562C88.275 191.259 89.6554 191.023 90.6048 190.861C91.0627 190.787 91.4129 190.727 91.662 190.686C91.8909 190.659 92.0054 190.646 92.0054 190.646C92.0054 190.646 91.8775 190.68 91.6351 190.727C91.3792 190.774 91.0291 190.841 90.5644 190.929C89.615 191.104 88.2346 191.36 86.4435 191.69C82.8546 192.343 77.6563 193.285 71.1517 194.464L71.0238 194.491L71.0171 194.356C70.7477 188.484 70.4245 181.515 70.0609 173.691L70.0676 173.725C68.3843 168.048 66.5662 161.907 64.6472 155.43L64.7482 155.322C64.7212 155.335 64.802 155.463 64.8088 155.389C64.8088 155.382 64.8155 155.45 64.829 155.47C64.8626 155.564 64.8963 155.517 64.8828 155.531L64.8694 155.537L64.8424 155.558L64.7818 155.605L64.6539 155.699L64.4048 155.894L63.9132 156.298C63.59 156.574 63.2735 156.857 62.9571 157.153C62.3376 157.746 61.7383 158.365 61.1659 159.025C60.028 160.338 58.9978 161.773 58.1291 163.321C56.3784 166.405 55.3213 169.974 55.2741 173.664C55.1395 177.522 55.0856 181.313 55.0789 185.03C55.0789 188.747 55.0923 192.383 55.3819 195.905C55.53 197.662 55.7589 199.393 56.1562 201.049C56.5872 202.672 57.1461 204.355 58.4389 205.365C59.7048 206.402 61.2064 207.089 62.7281 207.513C64.2566 207.951 65.8188 208.126 67.3406 208.099C68.8691 208.086 70.3437 207.789 71.7847 207.507C73.2257 207.217 74.6195 206.894 75.9729 206.557C78.6798 205.884 81.2183 205.157 83.5751 204.416C88.302 202.968 92.3758 201.722 95.6752 200.712L95.6213 200.82C94.4497 197.548 93.5406 195.016 92.9212 193.292C92.6182 192.437 92.3892 191.784 92.2276 191.333C92.0795 190.888 92.0054 190.646 92.0054 190.646Z" fill="#9D4841"/>
<path d="M51.2275 187.064H73.0845L68.4788 153.719C68.4788 153.719 61.6645 153.16 57.8466 160.803C53.2207 170.055 51.2275 187.064 51.2275 187.064Z" fill="#8E012D"/>
<path d="M71.5493 194.349C71.556 194.41 71.0981 194.484 70.4113 194.74C69.7245 194.996 68.8154 195.474 67.994 196.228C67.1725 196.982 66.6136 197.844 66.3038 198.511C65.9874 199.171 65.8729 199.622 65.8123 199.608C65.7786 199.601 65.8056 199.123 66.0749 198.41C66.3375 197.696 66.8964 196.767 67.7583 195.972C68.6269 195.184 69.6033 194.713 70.3372 194.511C71.0712 194.302 71.5425 194.316 71.5493 194.349Z" fill="#9D4841"/>
<path d="M91.7629 190.498C91.7629 190.498 94.9883 187.4 96.7188 186.202C98.4493 185.003 100.826 181.354 100.826 181.354C100.826 181.354 102.133 182.256 101.85 183.623C101.56 184.99 99.1361 188.855 99.3853 189.501C99.6344 190.147 101.325 190.962 101.702 190.875C102.085 190.787 111.196 189.003 111.775 189.777C112.354 190.545 112.347 191.851 111.418 192.161C110.489 192.471 105.358 192.841 105.513 193.508C105.668 194.174 112.118 193.905 112.408 194.74C112.697 195.575 112.347 196.659 111.371 196.78C110.395 196.901 105.533 197.11 105.567 197.702C105.6 198.295 110.805 197.81 111.122 198.335C111.445 198.861 110.778 199.918 110.186 199.951C109.593 199.985 103.257 200.335 103.143 201.157C103.028 201.985 106.55 202.887 106.927 203.258C107.418 203.736 106.429 204.793 104.893 204.268C104.402 204.099 93.4463 201.379 92.2208 200.854C91.002 200.349 91.7629 190.498 91.7629 190.498Z" fill="#CC675F"/>
<path d="M51.2275 187.064C51.2275 187.05 51.3622 187.037 51.6248 187.03C51.9278 187.023 52.3049 187.01 52.7695 186.996C53.8132 186.983 55.2407 186.963 56.9847 186.942C60.5871 186.929 65.4824 186.909 70.8894 186.889C71.5493 186.889 72.1957 186.889 72.8084 186.889L72.6333 187.064C72.6535 182.101 72.6738 177.684 72.6872 174.452C72.7074 172.89 72.7276 171.624 72.7411 170.688C72.7546 170.277 72.7613 169.94 72.7747 169.671C72.7882 169.442 72.795 169.321 72.8084 169.321C72.8219 169.321 72.8286 169.442 72.8421 169.671C72.8488 169.94 72.8623 170.277 72.8758 170.688C72.8892 171.617 72.9094 172.89 72.9296 174.452C72.9431 177.684 72.9633 182.101 72.9835 187.064V187.239H72.8084C72.1957 187.239 71.5425 187.239 70.8894 187.239C65.4824 187.218 60.5871 187.198 56.9847 187.185C55.2407 187.165 53.8132 187.144 52.7695 187.131C52.3049 187.117 51.9211 187.104 51.6248 187.097C51.3622 187.091 51.2275 187.077 51.2275 187.064Z" fill="#282828"/>
<path d="M156.298 252.783C154.386 249.981 150.884 248.648 147.511 248.379C144.13 248.109 140.757 248.729 137.377 249.012C133.996 249.301 130.448 249.22 127.431 247.665C125.546 246.695 123.964 245.194 122.038 244.305C119.089 242.938 113.123 243.962 108.099 247.921C108.099 247.921 103.11 247.409 97.043 244.494L94.4775 261.792C108.214 263.772 125.553 266.243 140.919 270.135C143.013 270.667 148.352 272.034 150.514 272C152.675 271.966 156.13 272.263 157.49 270.586C158.964 268.768 159.328 265.967 159.429 263.63C159.577 260.149 158.257 255.651 156.298 252.783Z" fill="#8E012D"/>
<path d="M42.6154 209.823C42.6154 209.823 14.0855 190.026 4.77306 203.419C-4.53938 216.812 3.78324 230.232 7.68194 233.989C15.5399 241.558 43.2012 253.496 59.7925 258.445C76.3839 263.394 97.3453 263.105 97.3453 263.105L105.789 245.928C105.789 245.921 52.5136 218.266 42.6154 209.823Z" fill="#282828"/>
<path d="M71.6439 261.092C71.6439 261.105 71.4621 261.072 71.1187 261.011C70.7484 260.937 70.2501 260.829 69.6306 260.701C68.3378 260.425 66.4726 260.014 64.1765 259.476C59.5842 258.398 53.248 256.823 46.3933 254.594C42.9727 253.469 39.7473 252.264 36.8586 251.079C35.4244 250.46 34.0508 249.894 32.7983 249.288C31.5324 248.716 30.3743 248.136 29.3238 247.598C28.26 247.079 27.3375 246.541 26.516 246.09C25.6878 245.645 24.9942 245.228 24.4353 244.877C23.8966 244.541 23.4657 244.278 23.1425 244.076C22.8462 243.888 22.6981 243.787 22.7048 243.78C22.7115 243.766 22.8731 243.854 23.1762 244.016C23.5061 244.204 23.9505 244.447 24.5027 244.756C25.075 245.086 25.7753 245.483 26.6102 245.914C27.4385 246.345 28.3677 246.871 29.4383 247.369C30.4955 247.894 31.6536 248.46 32.9195 249.019C34.172 249.611 35.5456 250.163 36.9798 250.769C39.8685 251.934 43.0804 253.126 46.501 254.251C53.3423 256.473 59.6583 258.082 64.2303 259.227C66.4928 259.785 68.3378 260.237 69.6576 260.56C70.2703 260.715 70.7619 260.836 71.1322 260.93C71.4689 261.024 71.6439 261.078 71.6439 261.092Z" fill="#8E012D"/>
</svg>
