<svg width="410" height="630" viewBox="0 0 410 630" fill="none" xmlns="http://www.w3.org/2000/svg">
<path d="M111.181 287.03C107.51 283.835 104.569 280.049 102.428 275.926C97.4926 266.455 96.7304 255.187 100.802 245.157C104.944 234.975 113.557 227.333 123.974 224.081C126.922 223.154 130.015 222.576 133.198 222.404C143.316 263.273 111.181 287.03 111.181 287.03Z" fill="#EB92AE"/>
<path d="M111.181 287.03C107.509 283.835 104.568 280.049 102.428 275.926C106.137 268.266 109.834 260.122 113.442 251.515C117.412 242.032 120.906 232.86 123.98 224.087C126.928 223.16 130.021 222.582 133.204 222.41C125.861 243.95 118.517 265.49 111.181 287.03Z" fill="#E188A4"/>
<path d="M318.448 314.528C318.309 366.481 200.98 391.788 143.373 364.398C127.366 356.788 115.977 345.106 112.979 328.801C99.2076 253.809 144.441 181.128 201.933 177.139C222.774 175.691 247.801 181.967 269.29 198.228C296.839 219.05 318.614 256.241 318.448 314.528Z" fill="#EB92AE"/>
<path d="M284.522 271.01C285.24 281.383 274.302 288.561 259.889 293.376C244.707 298.451 225.677 300.903 212.369 301.697C193.313 302.834 156.357 302.084 142.268 290.936C138.965 288.326 136.926 285.137 136.653 281.281C135.872 270.044 139.848 259.551 146.905 251.655C153.962 243.766 164.106 238.488 175.661 237.687L239.867 233.228C253.295 232.294 265.676 237.624 273.99 246.656C279.987 253.167 283.868 261.603 284.522 271.01Z" fill="#59001C"/>
<path d="M284.522 271.01C285.24 281.383 274.302 288.561 259.889 293.376C244.707 298.451 225.677 300.903 212.369 301.697C193.313 302.834 156.357 302.084 142.268 290.936C179.91 287.182 243.596 276.543 273.99 246.656C279.987 253.167 283.868 261.603 284.522 271.01Z" fill="#59001C"/>
<path d="M318.448 314.528C318.309 366.481 200.98 391.788 143.374 364.398C177.636 367.669 279.32 373.005 294.088 323.167C306.786 280.309 283.627 225.904 269.29 198.228C296.839 219.05 318.614 256.241 318.448 314.528Z" fill="#E188A4"/>
<path d="M139.225 232.606C142.566 236.436 160.816 226.666 172.815 216.484C184.318 206.721 195.714 191.794 192.709 188.001C190.042 184.635 176.48 190.638 168.057 195.897C149.198 207.655 135.579 228.439 139.225 232.606Z" fill="#FFD2E0"/>
<path d="M117.368 314.947C118.778 328.725 128.122 341.251 131.476 340.114C134.995 338.926 132.39 322.538 130.11 313.581C129.456 311.009 125.448 295.294 121.732 295.624C118.803 295.884 116.459 306.029 117.368 314.947Z" fill="#FFD2E0"/>
<path d="M270.789 263.178C271.507 273.5 263.719 282.444 253.397 283.161C245.419 283.714 238.266 279.198 235.09 272.35C234.157 270.337 233.566 268.12 233.401 265.769C232.683 255.447 240.471 246.504 250.799 245.786C258.396 245.259 265.25 249.337 268.61 255.644C269.83 257.906 270.598 260.453 270.789 263.178Z" fill="#59001C"/>
<path d="M252.095 245.735C259.158 245.735 265.447 249.705 268.616 255.644C269.836 257.906 270.598 260.453 270.789 263.178C271.506 273.5 263.719 282.444 253.397 283.161C252.952 283.193 252.514 283.206 252.076 283.206C244.637 283.206 238.088 278.817 235.09 272.35C234.156 270.337 233.566 268.12 233.401 265.769C232.683 255.447 240.47 246.504 250.799 245.786C251.243 245.754 251.656 245.735 252.095 245.735ZM252.12 242.54C251.612 242.54 251.091 242.559 250.583 242.591C244.733 242.997 239.397 245.653 235.548 250.074C231.698 254.495 229.805 260.148 230.212 265.992C230.396 268.672 231.063 271.264 232.187 273.697C235.763 281.421 243.57 286.407 252.076 286.407C252.584 286.407 253.105 286.388 253.619 286.356C259.463 285.95 264.799 283.295 268.648 278.874C272.491 274.453 274.39 268.799 273.984 262.956C273.768 259.837 272.91 256.864 271.437 254.126C267.619 246.986 260.219 242.54 252.12 242.54Z" fill="#C26985"/>
<path d="M268.597 255.613C262.792 272.966 245.451 273.665 235.141 272.407C234.201 270.394 233.604 268.183 233.432 265.833C232.683 255.517 240.439 246.542 250.761 245.786C258.351 245.233 265.212 249.318 268.597 255.613Z" fill="#731A36"/>
<path d="M250.85 258.325C251.085 261.749 248.506 264.721 245.076 264.963C241.652 265.198 238.679 262.619 238.438 259.189C238.203 255.765 240.782 252.792 244.212 252.551C247.642 252.316 250.615 254.901 250.85 258.325Z" fill="#FFD2E0"/>
<path d="M267.003 267.084C268.064 267.694 267.136 274.3 262.684 277.114C258.726 279.611 253.168 278.372 252.959 277.184C252.806 276.308 255.607 275.876 260.13 272.687C264.894 269.333 266.266 266.659 267.003 267.084Z" fill="#FFD2E0"/>
<path d="M187.882 268.933C188.6 279.255 180.812 288.198 170.49 288.916C162.512 289.469 155.36 284.953 152.184 278.105C151.25 276.091 150.659 273.875 150.494 271.524C149.776 261.202 157.564 252.259 167.892 251.541C175.489 251.014 182.343 255.092 185.703 261.399C186.929 263.667 187.692 266.208 187.882 268.933Z" fill="#59001C"/>
<path d="M169.239 251.497C176.302 251.497 182.534 255.467 185.703 261.406C186.923 263.667 187.685 266.214 187.876 268.939C188.593 279.261 180.806 288.205 170.484 288.923C170.039 288.955 169.601 288.967 169.162 288.967C161.724 288.967 155.175 284.578 152.177 278.112C151.243 276.098 150.653 273.881 150.488 271.531C149.77 261.209 157.557 252.265 167.886 251.547C168.337 251.516 168.807 251.497 169.239 251.497ZM169.213 248.295C168.705 248.295 168.184 248.314 167.676 248.346C161.826 248.753 156.49 251.408 152.641 255.829C148.791 260.25 146.899 265.903 147.305 271.747C147.489 274.427 148.156 277.019 149.281 279.452C152.857 287.176 160.663 292.162 169.169 292.162C169.677 292.162 170.198 292.143 170.712 292.112C182.775 291.273 191.909 280.773 191.077 268.711C190.861 265.592 190.003 262.619 188.53 259.881C184.712 252.742 177.312 248.295 169.213 248.295Z" fill="#C26985"/>
<path d="M185.71 261.406C179.904 278.753 162.544 279.42 152.234 278.169C151.294 276.155 150.697 273.945 150.526 271.594C149.776 261.279 157.532 252.303 167.854 251.547C175.445 250.995 182.324 255.111 185.71 261.406Z" fill="#731A36"/>
<path d="M167.943 264.086C168.178 267.51 165.599 270.483 162.169 270.724C158.745 270.959 155.772 268.38 155.531 264.95C155.296 261.526 157.875 258.554 161.305 258.312C164.735 258.077 167.708 260.656 167.943 264.086Z" fill="#FFD2E0"/>
<path d="M184.096 272.846C185.157 273.455 184.229 280.062 179.777 282.876C175.819 285.372 170.261 284.133 170.052 282.945C169.899 282.069 172.7 281.637 177.223 278.448C181.987 275.088 183.359 272.414 184.096 272.846Z" fill="#FFD2E0"/>
<path d="M213.62 239.326C213.887 240.552 205.693 244.065 197.048 245.468C183.029 247.749 169.785 244.179 169.868 242.604C169.906 241.88 178.824 241.174 196.654 239.79C210.984 238.678 213.481 238.678 213.62 239.326Z" fill="#9B425E"/>
<path d="M101.596 251.928C101.202 251.655 91.8331 245.119 85.4112 231.532C79.5356 219.095 75.1398 198.139 87.52 168.926L92.6779 171.111C83.4357 192.912 82.6543 212.342 90.3466 228.871C96.0888 241.2 104.677 247.253 104.766 247.31L101.596 251.928Z" fill="#EB92AE"/>
<path d="M101.055 174.106C106.673 169.6 107.575 161.393 103.069 155.775C98.5637 150.156 90.3565 149.254 84.738 153.76C79.1196 158.266 78.2175 166.473 82.7232 172.091C87.2289 177.71 95.4362 178.612 101.055 174.106Z" fill="#7A213D"/>
<path d="M84.4894 160.694C84.7626 164.55 88.1101 167.453 91.9658 167.186C95.8215 166.913 98.7244 163.565 98.4576 159.709C98.1844 155.854 94.8369 152.951 90.9812 153.218C87.1255 153.484 84.2163 156.838 84.4894 160.694Z" fill="#9C435F"/>
<path d="M215.755 347.616C206.798 348.492 199.417 344.865 193.827 339.803C183.791 330.726 179.542 317.012 182.413 316.414C186.885 315.5 198.382 321.769 210.546 320.575C224.527 319.203 233.585 313.493 240.737 312.387C241.055 312.33 241.366 312.292 241.677 312.26C248.976 311.549 243.221 344.929 215.755 347.616Z" fill="#59001C"/>
<path d="M215.755 347.616C206.799 348.492 199.417 344.865 193.828 339.803C205.769 336.436 229.081 328.159 240.737 312.394C241.055 312.336 241.366 312.298 241.678 312.267C248.976 311.549 243.221 344.929 215.755 347.616Z" fill="#771E3A"/>
<path d="M313.437 181.535L291.789 175.164C288.753 174.268 287.012 171.086 287.908 168.05L297.017 137.115C297.912 134.079 301.094 132.339 304.131 133.234L325.779 139.605C328.815 140.501 330.555 143.683 329.66 146.72L320.551 177.654C319.662 180.697 316.473 182.431 313.437 181.535Z" fill="#F69DB9"/>
<path d="M365.047 101.372C362.151 111.211 355.125 118.777 346.213 122.95C343.298 124.316 341.1 126.857 340.192 129.944L336.412 142.781C334.665 148.72 328.434 152.119 322.495 150.372L301.063 144.064C295.124 142.317 291.726 136.086 293.472 130.147L297.252 117.309C298.16 114.222 297.69 110.894 295.982 108.169C290.754 99.8286 288.95 89.659 291.846 79.826C297.423 60.8715 318.334 50.3335 338.547 56.279C358.765 62.2309 370.631 82.4177 365.047 101.372Z" fill="#FFD5E2"/>
<path d="M338.546 56.2791C358.758 62.231 370.624 82.4178 365.047 101.372C362.15 111.212 355.125 118.777 346.213 122.95C343.297 124.316 341.1 126.857 340.191 129.944L336.412 142.781C334.665 148.72 328.434 152.119 322.494 150.372L301.063 144.064C295.124 142.318 291.725 136.086 293.472 130.147L297.251 117.31C298.16 114.222 297.69 110.894 295.981 108.169C290.753 99.8287 288.949 89.6591 291.846 79.8261C297.423 60.8716 318.334 50.3273 338.546 56.2791ZM339.543 52.8871C328.904 49.7556 317.743 50.702 308.113 55.555C298.407 60.4461 291.427 68.7101 288.447 78.8225C286.885 84.1328 286.523 89.6083 287.368 95.0965C288.181 100.375 290.074 105.406 292.983 110.049C294.158 111.923 294.476 114.21 293.859 116.312L290.08 129.15C287.787 136.95 292.259 145.163 300.059 147.456L321.491 153.764C329.291 156.057 337.504 151.585 339.797 143.785L343.577 130.947C344.199 128.839 345.705 127.098 347.706 126.158C352.667 123.833 356.98 120.632 360.524 116.636C364.208 112.482 366.87 107.686 368.432 102.376C371.411 92.2634 370.014 81.5348 364.513 72.1656C359.057 62.8662 350.189 56.0187 339.543 52.8871Z" fill="#FDA4C0"/>
<path d="M325.543 161.901L292.252 152.1C291.389 151.846 290.893 150.937 291.147 150.067C291.401 149.203 292.31 148.708 293.18 148.962L326.471 158.763C327.335 159.017 327.83 159.925 327.576 160.789C327.316 161.66 326.407 162.155 325.543 161.901Z" fill="#D37A96"/>
<path d="M323.416 169.142L290.124 159.341C289.261 159.087 288.765 158.179 289.019 157.308C289.273 156.444 290.182 155.949 291.052 156.203L324.343 166.004C325.207 166.258 325.702 167.167 325.448 168.037C325.188 168.901 324.28 169.396 323.416 169.142Z" fill="#D37A96"/>
<path d="M321.281 176.377L287.99 166.576C287.126 166.322 286.631 165.414 286.885 164.543C287.139 163.68 288.047 163.184 288.918 163.438L322.209 173.239C323.072 173.493 323.568 174.402 323.314 175.272C323.06 176.136 322.151 176.631 321.281 176.377Z" fill="#D37A96"/>
<path d="M349.49 110.743C361.002 99.2303 361.002 80.565 349.49 69.0525C337.977 57.54 319.312 57.54 307.799 69.0524C296.287 80.5649 296.287 99.2304 307.799 110.743C319.312 122.255 337.977 122.255 349.49 110.743Z" fill="#FFE5ED"/>
<path d="M324.356 104.517C314.485 101.614 309.613 93.9214 308.342 91.6093C307.967 90.9233 308.215 90.0657 308.901 89.691C309.587 89.3162 310.445 89.5639 310.819 90.25C311.975 92.3525 316.447 99.4159 325.537 101.919C333.966 104.244 340.865 101.252 343.437 99.8542C344.123 99.4795 344.981 99.7399 345.355 100.426C345.73 101.112 345.47 101.969 344.784 102.344C341.906 103.9 334.201 107.248 324.781 104.65C324.648 104.599 324.502 104.561 324.356 104.517Z" fill="white"/>
<path d="M300.212 137.306C299.462 137.084 299.036 136.302 299.252 135.553L304.08 119.152C304.302 118.402 305.084 117.977 305.833 118.193C306.583 118.415 307.008 119.196 306.792 119.946L301.965 136.347C301.742 137.103 300.961 137.528 300.212 137.306Z" fill="white"/>
<path d="M293.891 44.9725C293.415 44.8328 292.995 44.4898 292.773 44.0006L279.618 14.5589C279.218 13.6696 279.618 12.6215 280.514 12.2214C281.403 11.8212 282.451 12.2214 282.851 13.117L296.006 42.5587C296.406 43.448 296.006 44.4961 295.111 44.8963C294.71 45.0741 294.285 45.0868 293.891 44.9725Z" fill="#FDA4C0"/>
<path d="M329.641 35.7112C328.91 35.4953 328.377 34.8219 328.37 34.0279L328.205 1.78496C328.199 0.806743 328.986 0.0127379 329.965 0.00638581C330.943 3.37642e-05 331.737 0.787687 331.743 1.7659L331.908 34.0089C331.915 34.9871 331.127 35.7811 330.149 35.7874C329.977 35.7811 329.806 35.7557 329.641 35.7112Z" fill="#FDA4C0"/>
<path d="M355.404 43.4481C355.227 43.3973 355.049 43.3147 354.89 43.2004C354.09 42.6414 353.899 41.5362 354.458 40.7358L372.968 14.3304C373.527 13.53 374.632 13.3394 375.432 13.8984C376.233 14.4574 376.423 15.5627 375.864 16.363L357.355 42.7685C356.904 43.4037 356.109 43.6578 355.404 43.4481Z" fill="#FDA4C0"/>
<path d="M377.427 67.0013C376.919 66.8488 376.481 66.474 376.277 65.9405C375.928 65.0321 376.379 64.0094 377.294 63.6537L407.39 52.0676C408.298 51.7182 409.321 52.1692 409.676 53.0839C410.026 53.9923 409.575 55.0149 408.66 55.3707L378.564 66.9568C378.183 67.1029 377.789 67.1092 377.427 67.0013Z" fill="#FDA4C0"/>
<path d="M238.425 629.951C294.352 629.951 339.69 618.197 339.69 603.698C339.69 589.199 294.352 577.445 238.425 577.445C182.499 577.445 137.161 589.199 137.161 603.698C137.161 618.197 182.499 629.951 238.425 629.951Z" fill="#FFD8E4"/>
<path d="M111.804 397.39C122.704 404.219 115.952 417.348 100.948 432.923C83.0289 451.522 36.4874 470.547 10.425 454.088C10.4186 454.088 10.4186 454.088 10.4186 454.088C8.04298 452.589 5.84512 450.798 3.85057 448.683C-20.0712 423.345 82.4063 391.324 96.7746 393.026C103.584 393.827 108.5 395.319 111.804 397.39Z" fill="#EB92AE"/>
<path d="M111.803 397.39C122.703 404.219 115.951 417.348 100.948 432.923C83.0287 451.522 36.4872 470.547 10.4248 454.088C38.2468 452.863 85.4741 443.506 111.803 397.39Z" fill="#E188A4"/>
<path d="M25.6825 423.281C33.2288 420.035 46.1996 415.849 47.5082 418.358C48.8421 420.925 38.0373 430.548 25.5047 435.28C16.9485 438.507 6.00394 440.051 5.07019 437.675C4.00305 434.982 15.8432 427.512 25.6825 423.281Z" fill="#FFD2E0"/>
<path d="M330.104 438.767C330.104 491.064 293.415 552.494 235.122 552.494C198.998 552.494 169.277 530.377 151.898 500.814C141.214 482.66 135.186 461.698 135.186 441.321C135.186 387.741 193.663 390.295 230.72 390.295C271.367 390.295 319.611 387.182 328.605 425.034C329.596 429.112 330.104 433.679 330.104 438.767Z" fill="#EB92AE"/>
<path d="M330.105 438.768C330.105 491.064 293.415 552.495 235.122 552.495C198.998 552.495 169.277 530.377 151.898 500.814C188.098 517.857 291.224 553.149 328.605 425.034C329.596 429.112 330.105 433.68 330.105 438.768Z" fill="#E188A4"/>
<path d="M155.372 420.55C147.801 432.898 153.155 450.468 166.158 457.366C179.904 464.658 198.598 458.122 203.711 443.627C208.564 429.862 199.214 414.427 185.811 410.101C175.057 406.626 161.667 410.285 155.372 420.55Z" fill="#FFD2E0"/>
<path d="M376.862 358.96C361.337 377.318 347.769 385.232 340.134 369.282C338.826 366.545 337.682 363.096 336.736 358.884C333.579 344.757 354.972 239.548 382.623 260.758C389.769 266.24 394.044 274.008 396.153 282.888C402.2 308.379 390.36 343.01 376.862 358.96Z" fill="#EB92AE"/>
<path d="M376.862 358.96C361.337 377.318 347.769 385.233 340.134 369.283C352.127 362.619 374.073 342.648 396.159 282.895C402.2 308.379 390.36 343.011 376.862 358.96Z" fill="#E188A4"/>
<path d="M361.903 302.643C357.558 318.32 348.729 344.586 345.782 343.855C343.12 343.195 344.873 320.473 353.099 299.213C357.679 287.367 364.749 274.739 366.724 275.476C369.183 276.39 363.256 297.771 361.903 302.643Z" fill="#FFD2E0"/>
</svg>
