<svg width="56" height="56" viewBox="0 0 56 56" fill="none" xmlns="http://www.w3.org/2000/svg">
<rect width="56" height="56" rx="8" fill="#EC9410"/>
<g clip-path="url(#clip0_710_20030)">
<rect width="32" height="32" transform="translate(12 12)" fill="#EC9410"/>
<path d="M20.0013 29.3333C17.068 29.3333 14.668 31.7333 14.668 34.6667C14.668 37.6 17.068 40 20.0013 40C22.9346 40 25.3346 37.6 25.3346 34.6667C25.3346 31.7333 22.9346 29.3333 20.0013 29.3333ZM28.0013 16C25.068 16 22.668 18.4 22.668 21.3333C22.668 24.2667 25.068 26.6667 28.0013 26.6667C30.9346 26.6667 33.3346 24.2667 33.3346 21.3333C33.3346 18.4 30.9346 16 28.0013 16ZM36.0013 29.3333C33.068 29.3333 30.668 31.7333 30.668 34.6667C30.668 37.6 33.068 40 36.0013 40C38.9346 40 41.3346 37.6 41.3346 34.6667C41.3346 31.7333 38.9346 29.3333 36.0013 29.3333Z" fill="white"/>
</g>
<defs>
<clipPath id="clip0_710_20030">
<rect width="32" height="32" fill="white" transform="translate(12 12)"/>
</clipPath>
</defs>
</svg>
