<svg width="40" height="40" viewBox="0 0 40 40" fill="none" xmlns="http://www.w3.org/2000/svg">
<rect width="40" height="40" rx="8" fill="#F7F8F8"/>
<path d="M26.1394 29.6198C25.2594 29.8798 24.2194 29.9998 22.9994 29.9998H16.9994C15.7794 29.9998 14.7394 29.8798 13.8594 29.6198C14.0794 27.0198 16.7494 24.9697 19.9994 24.9697C23.2494 24.9697 25.9194 27.0198 26.1394 29.6198Z" stroke="#787777" stroke-width="1.5" stroke-linecap="round" stroke-linejoin="round"/>
<path d="M23 10H17C12 10 10 12 10 17V23C10 26.78 11.14 28.85 13.86 29.62C14.08 27.02 16.75 24.97 20 24.97C23.25 24.97 25.92 27.02 26.14 29.62C28.86 28.85 30 26.78 30 23V17C30 12 28 10 23 10ZM20 22.17C18.02 22.17 16.42 20.56 16.42 18.58C16.42 16.6 18.02 15 20 15C21.98 15 23.58 16.6 23.58 18.58C23.58 20.56 21.98 22.17 20 22.17Z" stroke="#787777" stroke-width="1.5" stroke-linecap="round" stroke-linejoin="round"/>
<path d="M23.5819 18.58C23.5819 20.56 21.9819 22.17 20.0019 22.17C18.0219 22.17 16.4219 20.56 16.4219 18.58C16.4219 16.6 18.0219 15 20.0019 15C21.9819 15 23.5819 16.6 23.5819 18.58Z" stroke="#787777" stroke-width="1.5" stroke-linecap="round" stroke-linejoin="round"/>
</svg>
