<svg width="40" height="40" viewBox="0 0 40 40" fill="none" xmlns="http://www.w3.org/2000/svg">
<path d="M38.3307 4.99918C36.7347 6.12498 34.9676 6.98603 33.0974 7.54918C32.0936 6.39503 30.7596 5.577 29.2758 5.20572C27.792 4.83445 26.2299 4.92784 24.8009 5.47327C23.3718 6.0187 22.1448 6.98985 21.2857 8.25538C20.4266 9.5209 19.9769 11.0197 19.9974 12.5492V14.2158C17.0685 14.2918 14.1662 13.6422 11.5491 12.3249C8.93197 11.0076 6.68126 9.06357 4.9974 6.66585C4.9974 6.66585 -1.66927 21.6658 13.3307 28.3325C9.89828 30.6625 5.80932 31.8307 1.66406 31.6658C16.6641 39.9992 34.9974 31.6658 34.9974 12.4992C34.9959 12.0349 34.9512 11.5718 34.8641 11.1158C36.5651 9.43834 37.7654 7.32037 38.3307 4.99918V4.99918Z" stroke="white" stroke-width="2" stroke-linecap="round" stroke-linejoin="round"/>
</svg>
