<svg width="20" height="20" viewBox="0 0 20 20" fill="none" xmlns="http://www.w3.org/2000/svg">
<path d="M12.6991 18.5581H12.5908C8.89078 18.5581 7.10745 17.0997 6.79912 13.8331C6.76578 13.4914 7.01578 13.1831 7.36578 13.1497C7.70745 13.1164 8.01578 13.3747 8.04912 13.7164C8.29078 16.3331 9.52412 17.3081 12.5991 17.3081H12.7075C16.0991 17.3081 17.2991 16.1081 17.2991 12.7164V7.28307C17.2991 3.89141 16.0991 2.69141 12.7075 2.69141H12.5991C9.50745 2.69141 8.27412 3.68307 8.04912 6.34974C8.00745 6.69141 7.72412 6.94974 7.36578 6.91641C7.01578 6.89141 6.76578 6.58307 6.79078 6.24141C7.07412 2.92474 8.86578 1.44141 12.5908 1.44141H12.6991C16.7908 1.44141 18.5408 3.19141 18.5408 7.28307V12.7164C18.5408 16.8081 16.7908 18.5581 12.6991 18.5581Z" fill="#D90E0E"/>
<path d="M12.4013 10.625H1.66797C1.3263 10.625 1.04297 10.3417 1.04297 10C1.04297 9.65833 1.3263 9.375 1.66797 9.375H12.4013C12.743 9.375 13.0263 9.65833 13.0263 10C13.0263 10.3417 12.7513 10.625 12.4013 10.625Z" fill="#D90E0E"/>
<path d="M10.5409 13.4172C10.3826 13.4172 10.2242 13.3589 10.0992 13.2339C9.85755 12.9922 9.85755 12.5922 10.0992 12.3505L12.4492 10.0005L10.0992 7.65052C9.85755 7.40885 9.85755 7.00885 10.0992 6.76719C10.3409 6.52552 10.7409 6.52552 10.9826 6.76719L13.7742 9.55885C14.0159 9.80052 14.0159 10.2005 13.7742 10.4422L10.9826 13.2339C10.8576 13.3589 10.6992 13.4172 10.5409 13.4172Z" fill="#D90E0E"/>
</svg>
