<svg width="18" height="19" viewBox="0 0 18 19" fill="none" xmlns="http://www.w3.org/2000/svg">
<path d="M9 5C9.19891 5 9.38968 5.07902 9.53033 5.21967C9.67098 5.36032 9.75 5.55109 9.75 5.75V8.75H12.75C12.9489 8.75 13.1397 8.82902 13.2803 8.96967C13.421 9.11032 13.5 9.30109 13.5 9.5C13.5 9.69891 13.421 9.88968 13.2803 10.0303C13.1397 10.171 12.9489 10.25 12.75 10.25H9.75V13.25C9.75 13.4489 9.67098 13.6397 9.53033 13.7803C9.38968 13.921 9.19891 14 9 14C8.80109 14 8.61032 13.921 8.46967 13.7803C8.32902 13.6397 8.25 13.4489 8.25 13.25V10.25H5.25C5.05109 10.25 4.86032 10.171 4.71967 10.0303C4.57902 9.88968 4.5 9.69891 4.5 9.5C4.5 9.30109 4.57902 9.11032 4.71967 8.96967C4.86032 8.82902 5.05109 8.75 5.25 8.75H8.25V5.75C8.25 5.55109 8.32902 5.36032 8.46967 5.21967C8.61032 5.07902 8.80109 5 9 5Z" fill="white"/>
<path d="M0 9.5C-1.76116e-08 8.3181 0.232792 7.14778 0.685084 6.05585C1.13738 4.96392 1.80031 3.97177 2.63604 3.13604C3.47177 2.30031 4.46392 1.63738 5.55585 1.18508C6.64778 0.732792 7.8181 0.5 9 0.5C10.1819 0.5 11.3522 0.732792 12.4442 1.18508C13.5361 1.63738 14.5282 2.30031 15.364 3.13604C16.1997 3.97177 16.8626 4.96392 17.3149 6.05585C17.7672 7.14778 18 8.3181 18 9.5C18 11.8869 17.0518 14.1761 15.364 15.864C13.6761 17.5518 11.3869 18.5 9 18.5C6.61305 18.5 4.32387 17.5518 2.63604 15.864C0.948211 14.1761 3.55683e-08 11.8869 0 9.5ZM9 2C7.01088 2 5.10322 2.79018 3.6967 4.1967C2.29018 5.60322 1.5 7.51088 1.5 9.5C1.5 11.4891 2.29018 13.3968 3.6967 14.8033C5.10322 16.2098 7.01088 17 9 17C10.9891 17 12.8968 16.2098 14.3033 14.8033C15.7098 13.3968 16.5 11.4891 16.5 9.5C16.5 7.51088 15.7098 5.60322 14.3033 4.1967C12.8968 2.79018 10.9891 2 9 2Z" fill="white"/>
</svg>
