<svg width="182" height="182" viewBox="0 0 182 182" fill="none" xmlns="http://www.w3.org/2000/svg">
<path d="M73.644 97C73.116 97 72.72 96.88 72.456 96.64C72.216 96.376 72.096 96.028 72.096 95.596C72.096 95.332 72.156 95.08 72.276 94.84C72.42 94.576 72.612 94.312 72.852 94.048L80.916 85.408C82.14 84.088 83.016 82.876 83.544 81.772C84.096 80.644 84.372 79.504 84.372 78.352C84.372 76.912 83.928 75.82 83.04 75.076C82.176 74.308 80.904 73.924 79.224 73.924C78.144 73.924 77.124 74.092 76.164 74.428C75.204 74.764 74.28 75.28 73.392 75.976C73.08 76.216 72.792 76.324 72.528 76.3C72.288 76.276 72.072 76.18 71.88 76.012C71.688 75.844 71.556 75.628 71.484 75.364C71.412 75.1 71.412 74.836 71.484 74.572C71.58 74.308 71.772 74.068 72.06 73.852C72.996 73.084 74.124 72.472 75.444 72.016C76.764 71.536 78.108 71.296 79.476 71.296C81.18 71.296 82.62 71.56 83.796 72.088C84.972 72.616 85.86 73.396 86.46 74.428C87.06 75.436 87.36 76.672 87.36 78.136C87.36 79.144 87.192 80.14 86.856 81.124C86.544 82.084 86.052 83.068 85.38 84.076C84.732 85.084 83.88 86.128 82.824 87.208L75.156 95.308V94.48H87.288C87.744 94.48 88.08 94.588 88.296 94.804C88.536 94.996 88.656 95.296 88.656 95.704C88.656 96.136 88.536 96.46 88.296 96.676C88.08 96.892 87.744 97 87.288 97H73.644ZM101.386 97.324C98.4819 97.324 96.2739 96.208 94.7619 93.976C93.2499 91.744 92.4939 88.516 92.4939 84.292C92.4939 81.46 92.8299 79.084 93.5019 77.164C94.1739 75.22 95.1699 73.756 96.4899 72.772C97.8339 71.788 99.4659 71.296 101.386 71.296C104.314 71.296 106.522 72.4 108.01 74.608C109.522 76.792 110.278 80.008 110.278 84.256C110.278 87.088 109.942 89.476 109.27 91.42C108.598 93.364 107.602 94.84 106.282 95.848C104.962 96.832 103.33 97.324 101.386 97.324ZM101.386 94.768C103.402 94.768 104.89 93.916 105.85 92.212C106.834 90.484 107.326 87.832 107.326 84.256C107.326 80.656 106.834 78.028 105.85 76.372C104.89 74.692 103.402 73.852 101.386 73.852C99.3939 73.852 97.9059 74.692 96.9219 76.372C95.9379 78.052 95.4459 80.68 95.4459 84.256C95.4459 87.832 95.9379 90.484 96.9219 92.212C97.9059 93.916 99.3939 94.768 101.386 94.768Z" fill="#181818"/>
<path d="M81.4695 115.108C80.9495 115.108 80.4935 114.984 80.1015 114.736C79.7175 114.488 79.4175 114.14 79.2015 113.692C78.9935 113.236 78.8895 112.7 78.8895 112.084C78.8895 111.46 78.9935 110.924 79.2015 110.476C79.4175 110.02 79.7175 109.672 80.1015 109.432C80.4935 109.184 80.9495 109.06 81.4695 109.06C81.9975 109.06 82.4495 109.192 82.8255 109.456C83.2015 109.72 83.4535 110.076 83.5815 110.524H83.4495V106.948C83.4495 106.788 83.4895 106.668 83.5695 106.588C83.6575 106.5 83.7815 106.456 83.9415 106.456C84.0935 106.456 84.2095 106.5 84.2895 106.588C84.3775 106.668 84.4215 106.788 84.4215 106.948V114.58C84.4215 114.74 84.3815 114.864 84.3015 114.952C84.2215 115.04 84.1015 115.084 83.9415 115.084C83.7895 115.084 83.6695 115.04 83.5815 114.952C83.5015 114.864 83.4615 114.74 83.4615 114.58V113.44L83.5935 113.608C83.4655 114.064 83.2095 114.428 82.8255 114.7C82.4495 114.972 81.9975 115.108 81.4695 115.108ZM81.6735 114.328C82.0335 114.328 82.3495 114.24 82.6215 114.064C82.8935 113.888 83.1015 113.632 83.2455 113.296C83.3975 112.96 83.4735 112.556 83.4735 112.084C83.4735 111.356 83.3095 110.8 82.9815 110.416C82.6615 110.032 82.2255 109.84 81.6735 109.84C81.3055 109.84 80.9855 109.928 80.7135 110.104C80.4495 110.272 80.2415 110.524 80.0895 110.86C79.9455 111.188 79.8735 111.596 79.8735 112.084C79.8735 112.804 80.0375 113.36 80.3655 113.752C80.6935 114.136 81.1295 114.328 81.6735 114.328ZM88.4816 115.108C88.0816 115.108 87.7216 115.032 87.4016 114.88C87.0896 114.72 86.8416 114.504 86.6576 114.232C86.4736 113.96 86.3816 113.656 86.3816 113.32C86.3816 112.888 86.4896 112.548 86.7056 112.3C86.9296 112.052 87.2936 111.876 87.7976 111.772C88.3096 111.668 89.0056 111.616 89.8856 111.616H90.4256V112.252H89.8976C89.2496 112.252 88.7376 112.284 88.3616 112.348C87.9936 112.404 87.7336 112.504 87.5816 112.648C87.4376 112.792 87.3656 112.996 87.3656 113.26C87.3656 113.588 87.4776 113.856 87.7016 114.064C87.9336 114.272 88.2456 114.376 88.6376 114.376C88.9576 114.376 89.2376 114.3 89.4776 114.148C89.7256 113.996 89.9176 113.788 90.0536 113.524C90.1976 113.26 90.2696 112.956 90.2696 112.612V111.244C90.2696 110.748 90.1696 110.392 89.9696 110.176C89.7696 109.952 89.4416 109.84 88.9856 109.84C88.7056 109.84 88.4256 109.876 88.1456 109.948C87.8656 110.02 87.5696 110.136 87.2576 110.296C87.1456 110.352 87.0496 110.372 86.9696 110.356C86.8896 110.332 86.8256 110.288 86.7776 110.224C86.7296 110.16 86.7016 110.088 86.6936 110.008C86.6856 109.92 86.7016 109.836 86.7416 109.756C86.7896 109.676 86.8616 109.612 86.9576 109.564C87.3096 109.388 87.6576 109.26 88.0016 109.18C88.3456 109.1 88.6736 109.06 88.9856 109.06C89.4896 109.06 89.9056 109.144 90.2336 109.312C90.5616 109.472 90.8056 109.72 90.9656 110.056C91.1256 110.384 91.2056 110.808 91.2056 111.328V114.58C91.2056 114.74 91.1656 114.864 91.0856 114.952C91.0136 115.04 90.9056 115.084 90.7616 115.084C90.6096 115.084 90.4936 115.04 90.4136 114.952C90.3336 114.864 90.2936 114.74 90.2936 114.58V113.644H90.4016C90.3376 113.948 90.2136 114.208 90.0296 114.424C89.8536 114.64 89.6336 114.808 89.3696 114.928C89.1056 115.048 88.8096 115.108 88.4816 115.108ZM94.6463 117.244C94.5263 117.244 94.4303 117.212 94.3583 117.148C94.2863 117.084 94.2423 116.996 94.2263 116.884C94.2183 116.78 94.2383 116.672 94.2863 116.56L95.1143 114.7V115.12L92.8103 109.768C92.7623 109.648 92.7463 109.536 92.7623 109.432C92.7783 109.328 92.8263 109.244 92.9063 109.18C92.9863 109.116 93.0983 109.084 93.2423 109.084C93.3703 109.084 93.4703 109.112 93.5423 109.168C93.6143 109.224 93.6783 109.324 93.7343 109.468L95.7023 114.292H95.3783L97.3703 109.468C97.4343 109.324 97.5023 109.224 97.5743 109.168C97.6463 109.112 97.7503 109.084 97.8863 109.084C98.0143 109.084 98.1103 109.116 98.1743 109.18C98.2463 109.244 98.2863 109.328 98.2943 109.432C98.3103 109.528 98.2943 109.636 98.2463 109.756L95.1743 116.86C95.1103 117.004 95.0383 117.104 94.9583 117.16C94.8863 117.216 94.7823 117.244 94.6463 117.244ZM101.765 115.108C101.405 115.108 101.041 115.064 100.673 114.976C100.313 114.888 99.9772 114.736 99.6652 114.52C99.5852 114.464 99.5292 114.4 99.4972 114.328C99.4652 114.248 99.4532 114.172 99.4612 114.1C99.4772 114.02 99.5092 113.952 99.5572 113.896C99.6132 113.84 99.6772 113.808 99.7492 113.8C99.8292 113.784 99.9172 113.8 100.013 113.848C100.325 114.04 100.625 114.176 100.913 114.256C101.209 114.328 101.501 114.364 101.789 114.364C102.245 114.364 102.589 114.28 102.821 114.112C103.053 113.944 103.169 113.716 103.169 113.428C103.169 113.204 103.093 113.028 102.941 112.9C102.789 112.764 102.549 112.66 102.221 112.588L101.129 112.348C100.625 112.244 100.249 112.064 100.001 111.808C99.7612 111.552 99.6412 111.22 99.6412 110.812C99.6412 110.452 99.7332 110.144 99.9172 109.888C100.109 109.624 100.377 109.42 100.721 109.276C101.065 109.132 101.465 109.06 101.921 109.06C102.273 109.06 102.605 109.108 102.917 109.204C103.237 109.292 103.525 109.436 103.781 109.636C103.861 109.692 103.913 109.76 103.937 109.84C103.969 109.912 103.973 109.988 103.949 110.068C103.933 110.14 103.897 110.204 103.841 110.26C103.785 110.308 103.717 110.336 103.637 110.344C103.557 110.352 103.473 110.328 103.385 110.272C103.145 110.112 102.901 109.996 102.653 109.924C102.405 109.844 102.161 109.804 101.921 109.804C101.473 109.804 101.133 109.892 100.901 110.068C100.669 110.244 100.553 110.476 100.553 110.764C100.553 110.988 100.625 111.172 100.769 111.316C100.913 111.46 101.137 111.564 101.441 111.628L102.533 111.856C103.053 111.968 103.441 112.148 103.697 112.396C103.961 112.636 104.093 112.964 104.093 113.38C104.093 113.908 103.881 114.328 103.457 114.64C103.033 114.952 102.469 115.108 101.765 115.108Z" fill="#787777"/>
<path d="M144.083 91C144.083 60.8453 121.155 37.9167 91 37.9167V22.75C128.693 22.75 159.25 53.3066 159.25 91H144.083Z" fill="#AA0136"/>
<path d="M91 144.083C121.155 144.083 144.083 121.155 144.083 91L159.25 91C159.25 128.693 128.693 159.25 91 159.25V144.083Z" fill="#AA0136"/>
<path d="M37.9167 91C37.9167 121.155 60.8453 144.083 91 144.083V159.25C53.3066 159.25 22.75 128.693 22.75 91H37.9167Z" fill="#AA0136"/>
<path d="M91 37.9167C60.8453 37.9167 37.9167 60.8453 37.9167 91H22.75C22.75 53.3066 53.3066 22.75 91 22.75V37.9167Z" fill="#AA0136"/>
</svg>
