<svg width="182" height="182" viewBox="0 0 182 182" fill="none" xmlns="http://www.w3.org/2000/svg">
<path d="M84.048 103.252C83.592 103.252 83.232 103.12 82.968 102.856C82.704 102.592 82.572 102.22 82.572 101.74V97.564H72.24C71.76 97.564 71.376 97.456 71.088 97.24C70.824 97 70.692 96.664 70.692 96.232C70.692 95.968 70.752 95.704 70.872 95.44C70.992 95.152 71.208 94.792 71.52 94.36L82.5 78.376C82.716 78.04 82.956 77.788 83.22 77.62C83.484 77.452 83.796 77.368 84.156 77.368C84.54 77.368 84.864 77.488 85.128 77.728C85.416 77.968 85.56 78.352 85.56 78.88V95.044H88.188C88.644 95.044 88.992 95.152 89.232 95.368C89.472 95.584 89.592 95.896 89.592 96.304C89.592 96.712 89.472 97.024 89.232 97.24C88.992 97.456 88.644 97.564 88.188 97.564H85.56V101.74C85.56 102.22 85.428 102.592 85.164 102.856C84.9 103.12 84.528 103.252 84.048 103.252ZM82.572 95.044V81.076H83.436L73.356 95.836V95.044H82.572ZM101.386 103.324C99.4899 103.324 97.8579 103.048 96.4899 102.496C95.1459 101.944 94.1139 101.14 93.3939 100.084C92.6979 99.028 92.3499 97.756 92.3499 96.268C92.3499 95.092 92.5899 94.048 93.0699 93.136C93.5499 92.2 94.2219 91.444 95.0859 90.868C95.9499 90.292 96.9459 89.932 98.0739 89.788V90.328C96.5139 89.992 95.2659 89.26 94.3299 88.132C93.4179 86.98 92.9619 85.624 92.9619 84.064C92.9619 82.624 93.2979 81.412 93.9699 80.428C94.6659 79.42 95.6499 78.652 96.9219 78.124C98.1939 77.572 99.6819 77.296 101.386 77.296C103.114 77.296 104.602 77.572 105.85 78.124C107.122 78.652 108.106 79.42 108.802 80.428C109.498 81.412 109.846 82.624 109.846 84.064C109.846 85.096 109.63 86.056 109.198 86.944C108.79 87.808 108.202 88.528 107.434 89.104C106.666 89.68 105.766 90.076 104.734 90.292V89.788C106.438 90.028 107.806 90.736 108.838 91.912C109.894 93.064 110.422 94.516 110.422 96.268C110.422 97.756 110.062 99.028 109.342 100.084C108.646 101.14 107.614 101.944 106.246 102.496C104.902 103.048 103.282 103.324 101.386 103.324ZM101.386 100.876C103.426 100.876 104.962 100.48 105.994 99.688C107.05 98.896 107.578 97.696 107.578 96.088C107.578 94.504 107.05 93.328 105.994 92.56C104.962 91.768 103.426 91.372 101.386 91.372C99.3699 91.372 97.8339 91.768 96.7779 92.56C95.7219 93.328 95.1939 94.504 95.1939 96.088C95.1939 97.696 95.7219 98.896 96.7779 99.688C97.8339 100.48 99.3699 100.876 101.386 100.876ZM101.386 88.924C102.562 88.924 103.558 88.744 104.374 88.384C105.214 88 105.862 87.46 106.318 86.764C106.774 86.068 107.002 85.252 107.002 84.316C107.002 82.876 106.498 81.76 105.49 80.968C104.506 80.152 103.138 79.744 101.386 79.744C99.6339 79.744 98.2659 80.152 97.2819 80.968C96.2979 81.76 95.8059 82.876 95.8059 84.316C95.8059 85.756 96.2979 86.884 97.2819 87.7C98.2659 88.516 99.6339 88.924 101.386 88.924Z" fill="#181818"/>
<path d="M144.083 91C144.083 60.8453 121.155 37.9167 91 37.9167V22.75C128.693 22.75 159.25 53.3066 159.25 91H144.083Z" fill="#AA0136"/>
<path d="M91 144.083C121.155 144.083 144.083 121.155 144.083 91L159.25 91C159.25 128.693 128.693 159.25 91 159.25V144.083Z" fill="#AA0136"/>
<path d="M37.9167 91C37.9167 121.155 60.8453 144.083 91 144.083V159.25C53.3066 159.25 22.75 128.693 22.75 91H37.9167Z" fill="#AA0136"/>
<path d="M91 37.9167C60.8453 37.9167 37.9167 60.8453 37.9167 91H22.75C22.75 53.3066 53.3066 22.75 91 22.75V37.9167Z" fill="#AA0136"/>
</svg>
