<svg width="182" height="182" viewBox="0 0 182 182" fill="none" xmlns="http://www.w3.org/2000/svg">
<path d="M58.644 97C58.116 97 57.72 96.88 57.456 96.64C57.216 96.376 57.096 96.028 57.096 95.596C57.096 95.332 57.156 95.08 57.276 94.84C57.42 94.576 57.612 94.312 57.852 94.048L65.916 85.408C67.14 84.088 68.016 82.876 68.544 81.772C69.096 80.644 69.372 79.504 69.372 78.352C69.372 76.912 68.928 75.82 68.04 75.076C67.176 74.308 65.904 73.924 64.224 73.924C63.144 73.924 62.124 74.092 61.164 74.428C60.204 74.764 59.28 75.28 58.392 75.976C58.08 76.216 57.792 76.324 57.528 76.3C57.288 76.276 57.072 76.18 56.88 76.012C56.688 75.844 56.556 75.628 56.484 75.364C56.412 75.1 56.412 74.836 56.484 74.572C56.58 74.308 56.772 74.068 57.06 73.852C57.996 73.084 59.124 72.472 60.444 72.016C61.764 71.536 63.108 71.296 64.476 71.296C66.18 71.296 67.62 71.56 68.796 72.088C69.972 72.616 70.86 73.396 71.46 74.428C72.06 75.436 72.36 76.672 72.36 78.136C72.36 79.144 72.192 80.14 71.856 81.124C71.544 82.084 71.052 83.068 70.38 84.076C69.732 85.084 68.88 86.128 67.824 87.208L60.156 95.308V94.48H72.288C72.744 94.48 73.08 94.588 73.296 94.804C73.536 94.996 73.656 95.296 73.656 95.704C73.656 96.136 73.536 96.46 73.296 96.676C73.08 96.892 72.744 97 72.288 97H58.644ZM79.7619 97.252C79.2819 97.252 78.9219 97.12 78.6819 96.856C78.4419 96.592 78.3219 96.22 78.3219 95.74V72.844C78.3219 72.364 78.4419 72.004 78.6819 71.764C78.9219 71.5 79.2819 71.368 79.7619 71.368C80.2179 71.368 80.5779 71.5 80.8419 71.764C81.1059 72.004 81.2379 72.364 81.2379 72.844V83.392H80.7699C81.2739 82 82.0899 80.956 83.2179 80.26C84.3699 79.54 85.6899 79.18 87.1779 79.18C88.5699 79.18 89.7219 79.432 90.6339 79.936C91.5699 80.44 92.2659 81.208 92.7219 82.24C93.1779 83.248 93.4059 84.532 93.4059 86.092V95.74C93.4059 96.22 93.2739 96.592 93.0099 96.856C92.7699 97.12 92.4219 97.252 91.9659 97.252C91.4859 97.252 91.1139 97.12 90.8499 96.856C90.6099 96.592 90.4899 96.22 90.4899 95.74V86.272C90.4899 84.64 90.1659 83.452 89.5179 82.708C88.8939 81.94 87.8859 81.556 86.4939 81.556C84.8859 81.556 83.6019 82.06 82.6419 83.068C81.7059 84.052 81.2379 85.372 81.2379 87.028V95.74C81.2379 96.748 80.7459 97.252 79.7619 97.252ZM100.259 97.252C99.7789 97.252 99.4069 97.12 99.1429 96.856C98.9029 96.592 98.7829 96.22 98.7829 95.74V80.728C98.7829 80.248 98.9029 79.888 99.1429 79.648C99.3829 79.384 99.7309 79.252 100.187 79.252C100.643 79.252 100.991 79.384 101.231 79.648C101.495 79.888 101.627 80.248 101.627 80.728V83.644H101.267C101.651 82.228 102.383 81.136 103.463 80.368C104.543 79.6 105.875 79.192 107.459 79.144C107.819 79.12 108.107 79.204 108.323 79.396C108.539 79.564 108.659 79.864 108.683 80.296C108.707 80.704 108.611 81.028 108.395 81.268C108.179 81.508 107.843 81.652 107.387 81.7L106.811 81.772C105.179 81.916 103.919 82.444 103.031 83.356C102.167 84.244 101.735 85.468 101.735 87.028V95.74C101.735 96.22 101.603 96.592 101.339 96.856C101.099 97.12 100.739 97.252 100.259 97.252ZM117.413 97.324C116.333 97.324 115.241 97.192 114.137 96.928C113.057 96.664 112.049 96.208 111.113 95.56C110.873 95.392 110.705 95.2 110.609 94.984C110.513 94.744 110.477 94.516 110.501 94.3C110.549 94.06 110.645 93.856 110.789 93.688C110.957 93.52 111.149 93.424 111.365 93.4C111.605 93.352 111.869 93.4 112.157 93.544C113.093 94.12 113.993 94.528 114.857 94.768C115.745 94.984 116.621 95.092 117.485 95.092C118.853 95.092 119.885 94.84 120.581 94.336C121.277 93.832 121.625 93.148 121.625 92.284C121.625 91.612 121.397 91.084 120.941 90.7C120.485 90.292 119.765 89.98 118.781 89.764L115.505 89.044C113.993 88.732 112.865 88.192 112.121 87.424C111.401 86.656 111.041 85.66 111.041 84.436C111.041 83.356 111.317 82.432 111.869 81.664C112.445 80.872 113.249 80.26 114.281 79.828C115.313 79.396 116.513 79.18 117.881 79.18C118.937 79.18 119.933 79.324 120.869 79.612C121.829 79.876 122.693 80.308 123.461 80.908C123.701 81.076 123.857 81.28 123.929 81.52C124.025 81.736 124.037 81.964 123.965 82.204C123.917 82.42 123.809 82.612 123.641 82.78C123.473 82.924 123.269 83.008 123.029 83.032C122.789 83.056 122.537 82.984 122.273 82.816C121.553 82.336 120.821 81.988 120.077 81.772C119.333 81.532 118.601 81.412 117.881 81.412C116.537 81.412 115.517 81.676 114.821 82.204C114.125 82.732 113.777 83.428 113.777 84.292C113.777 84.964 113.993 85.516 114.425 85.948C114.857 86.38 115.529 86.692 116.441 86.884L119.717 87.568C121.277 87.904 122.441 88.444 123.209 89.188C124.001 89.908 124.397 90.892 124.397 92.14C124.397 93.724 123.761 94.984 122.489 95.92C121.217 96.856 119.525 97.324 117.413 97.324Z" fill="#181818"/>
<path d="M70.4186 117.244C70.2586 117.244 70.1386 117.2 70.0586 117.112C69.9786 117.032 69.9386 116.912 69.9386 116.752V109.576C69.9386 109.416 69.9786 109.296 70.0586 109.216C70.1386 109.128 70.2546 109.084 70.4066 109.084C70.5666 109.084 70.6866 109.128 70.7666 109.216C70.8546 109.296 70.8986 109.416 70.8986 109.576V110.716L70.7666 110.548C70.8946 110.092 71.1466 109.732 71.5226 109.468C71.9066 109.196 72.3626 109.06 72.8906 109.06C73.4106 109.06 73.8626 109.184 74.2466 109.432C74.6386 109.672 74.9386 110.02 75.1466 110.476C75.3626 110.924 75.4706 111.46 75.4706 112.084C75.4706 112.7 75.3626 113.236 75.1466 113.692C74.9386 114.14 74.6426 114.488 74.2586 114.736C73.8746 114.984 73.4186 115.108 72.8906 115.108C72.3626 115.108 71.9106 114.976 71.5346 114.712C71.1586 114.44 70.9026 114.08 70.7666 113.632H70.9106V116.752C70.9106 116.912 70.8666 117.032 70.7786 117.112C70.6906 117.2 70.5706 117.244 70.4186 117.244ZM72.6866 114.328C73.0546 114.328 73.3706 114.24 73.6346 114.064C73.9066 113.888 74.1146 113.632 74.2586 113.296C74.4106 112.96 74.4866 112.556 74.4866 112.084C74.4866 111.356 74.3226 110.8 73.9946 110.416C73.6746 110.032 73.2386 109.84 72.6866 109.84C72.3266 109.84 72.0106 109.928 71.7386 110.104C71.4666 110.272 71.2546 110.524 71.1026 110.86C70.9586 111.188 70.8866 111.596 70.8866 112.084C70.8866 112.804 71.0506 113.36 71.3786 113.752C71.7066 114.136 72.1426 114.328 72.6866 114.328ZM79.9627 115.108C79.3467 115.108 78.8147 114.988 78.3667 114.748C77.9267 114.5 77.5827 114.152 77.3347 113.704C77.0947 113.256 76.9747 112.72 76.9747 112.096C76.9747 111.488 77.0947 110.96 77.3347 110.512C77.5747 110.056 77.9027 109.7 78.3187 109.444C78.7427 109.188 79.2307 109.06 79.7827 109.06C80.1747 109.06 80.5267 109.128 80.8387 109.264C81.1507 109.392 81.4147 109.58 81.6307 109.828C81.8547 110.076 82.0227 110.376 82.1347 110.728C82.2547 111.08 82.3147 111.476 82.3147 111.916C82.3147 112.044 82.2787 112.14 82.2067 112.204C82.1347 112.26 82.0307 112.288 81.8947 112.288H77.7187V111.652H81.6667L81.4747 111.808C81.4747 111.376 81.4107 111.012 81.2827 110.716C81.1547 110.412 80.9667 110.18 80.7187 110.02C80.4787 109.86 80.1747 109.78 79.8067 109.78C79.3987 109.78 79.0507 109.876 78.7627 110.068C78.4827 110.252 78.2707 110.512 78.1267 110.848C77.9827 111.176 77.9107 111.56 77.9107 112V112.072C77.9107 112.808 78.0867 113.368 78.4387 113.752C78.7987 114.136 79.3067 114.328 79.9627 114.328C80.2347 114.328 80.5027 114.292 80.7667 114.22C81.0387 114.148 81.3027 114.028 81.5587 113.86C81.6707 113.788 81.7707 113.756 81.8587 113.764C81.9547 113.764 82.0307 113.792 82.0867 113.848C82.1427 113.896 82.1787 113.96 82.1947 114.04C82.2187 114.112 82.2107 114.192 82.1707 114.28C82.1387 114.368 82.0707 114.444 81.9667 114.508C81.7027 114.7 81.3907 114.848 81.0307 114.952C80.6707 115.056 80.3147 115.108 79.9627 115.108ZM84.6134 115.084C84.4534 115.084 84.3294 115.04 84.2414 114.952C84.1614 114.864 84.1214 114.74 84.1214 114.58V109.576C84.1214 109.416 84.1614 109.296 84.2414 109.216C84.3214 109.128 84.4374 109.084 84.5894 109.084C84.7414 109.084 84.8574 109.128 84.9374 109.216C85.0254 109.296 85.0694 109.416 85.0694 109.576V110.548H84.9494C85.0774 110.076 85.3214 109.712 85.6814 109.456C86.0414 109.2 86.4854 109.064 87.0134 109.048C87.1334 109.04 87.2294 109.068 87.3014 109.132C87.3734 109.188 87.4134 109.288 87.4214 109.432C87.4294 109.568 87.3974 109.676 87.3254 109.756C87.2534 109.836 87.1414 109.884 86.9894 109.9L86.7974 109.924C86.2534 109.972 85.8334 110.148 85.5374 110.452C85.2494 110.748 85.1054 111.156 85.1054 111.676V114.58C85.1054 114.74 85.0614 114.864 84.9734 114.952C84.8934 115.04 84.7734 115.084 84.6134 115.084ZM90.6462 115.408L87.7902 106.552C87.7582 106.448 87.7582 106.356 87.7902 106.276C87.8222 106.196 87.8702 106.136 87.9342 106.096C88.0062 106.048 88.0822 106.024 88.1622 106.024C88.2502 106.024 88.3302 106.048 88.4022 106.096C88.4742 106.144 88.5302 106.22 88.5702 106.324L91.4142 115.18C91.4462 115.284 91.4462 115.376 91.4142 115.456C91.3902 115.536 91.3422 115.596 91.2702 115.636C91.2062 115.684 91.1302 115.708 91.0422 115.708C90.9542 115.708 90.8742 115.684 90.8022 115.636C90.7382 115.588 90.6862 115.512 90.6462 115.408ZM94.8406 115.108C94.3206 115.108 93.8646 114.984 93.4726 114.736C93.0886 114.488 92.7886 114.14 92.5726 113.692C92.3646 113.236 92.2606 112.7 92.2606 112.084C92.2606 111.46 92.3646 110.924 92.5726 110.476C92.7886 110.02 93.0886 109.672 93.4726 109.432C93.8646 109.184 94.3206 109.06 94.8406 109.06C95.3686 109.06 95.8206 109.192 96.1966 109.456C96.5726 109.72 96.8246 110.076 96.9526 110.524H96.8206V106.948C96.8206 106.788 96.8606 106.668 96.9406 106.588C97.0286 106.5 97.1526 106.456 97.3126 106.456C97.4646 106.456 97.5806 106.5 97.6606 106.588C97.7486 106.668 97.7926 106.788 97.7926 106.948V114.58C97.7926 114.74 97.7526 114.864 97.6726 114.952C97.5926 115.04 97.4726 115.084 97.3126 115.084C97.1606 115.084 97.0406 115.04 96.9526 114.952C96.8726 114.864 96.8326 114.74 96.8326 114.58V113.44L96.9646 113.608C96.8366 114.064 96.5806 114.428 96.1966 114.7C95.8206 114.972 95.3686 115.108 94.8406 115.108ZM95.0446 114.328C95.4046 114.328 95.7206 114.24 95.9926 114.064C96.2646 113.888 96.4726 113.632 96.6166 113.296C96.7686 112.96 96.8446 112.556 96.8446 112.084C96.8446 111.356 96.6806 110.8 96.3526 110.416C96.0326 110.032 95.5966 109.84 95.0446 109.84C94.6766 109.84 94.3566 109.928 94.0846 110.104C93.8206 110.272 93.6126 110.524 93.4606 110.86C93.3166 111.188 93.2446 111.596 93.2446 112.084C93.2446 112.804 93.4086 113.36 93.7366 113.752C94.0646 114.136 94.5006 114.328 95.0446 114.328ZM101.853 115.108C101.453 115.108 101.093 115.032 100.773 114.88C100.461 114.72 100.213 114.504 100.029 114.232C99.8447 113.96 99.7527 113.656 99.7527 113.32C99.7527 112.888 99.8607 112.548 100.077 112.3C100.301 112.052 100.665 111.876 101.169 111.772C101.681 111.668 102.377 111.616 103.257 111.616H103.797V112.252H103.269C102.621 112.252 102.109 112.284 101.733 112.348C101.365 112.404 101.105 112.504 100.953 112.648C100.809 112.792 100.737 112.996 100.737 113.26C100.737 113.588 100.849 113.856 101.073 114.064C101.305 114.272 101.617 114.376 102.009 114.376C102.329 114.376 102.609 114.3 102.849 114.148C103.097 113.996 103.289 113.788 103.425 113.524C103.569 113.26 103.641 112.956 103.641 112.612V111.244C103.641 110.748 103.541 110.392 103.341 110.176C103.141 109.952 102.813 109.84 102.357 109.84C102.077 109.84 101.797 109.876 101.517 109.948C101.237 110.02 100.941 110.136 100.629 110.296C100.517 110.352 100.421 110.372 100.341 110.356C100.261 110.332 100.197 110.288 100.149 110.224C100.101 110.16 100.073 110.088 100.065 110.008C100.057 109.92 100.073 109.836 100.113 109.756C100.161 109.676 100.233 109.612 100.329 109.564C100.681 109.388 101.029 109.26 101.373 109.18C101.717 109.1 102.045 109.06 102.357 109.06C102.861 109.06 103.277 109.144 103.605 109.312C103.933 109.472 104.177 109.72 104.337 110.056C104.497 110.384 104.577 110.808 104.577 111.328V114.58C104.577 114.74 104.537 114.864 104.457 114.952C104.385 115.04 104.277 115.084 104.133 115.084C103.981 115.084 103.865 115.04 103.785 114.952C103.705 114.864 103.665 114.74 103.665 114.58V113.644H103.773C103.709 113.948 103.585 114.208 103.401 114.424C103.225 114.64 103.005 114.808 102.741 114.928C102.477 115.048 102.181 115.108 101.853 115.108ZM108.017 117.244C107.897 117.244 107.801 117.212 107.729 117.148C107.657 117.084 107.613 116.996 107.597 116.884C107.589 116.78 107.609 116.672 107.657 116.56L108.485 114.7V115.12L106.181 109.768C106.133 109.648 106.117 109.536 106.133 109.432C106.149 109.328 106.197 109.244 106.277 109.18C106.357 109.116 106.469 109.084 106.613 109.084C106.741 109.084 106.841 109.112 106.913 109.168C106.985 109.224 107.049 109.324 107.105 109.468L109.073 114.292H108.749L110.741 109.468C110.805 109.324 110.873 109.224 110.945 109.168C111.017 109.112 111.121 109.084 111.257 109.084C111.385 109.084 111.481 109.116 111.545 109.18C111.617 109.244 111.657 109.328 111.665 109.432C111.681 109.528 111.665 109.636 111.617 109.756L108.545 116.86C108.481 117.004 108.409 117.104 108.329 117.16C108.257 117.216 108.153 117.244 108.017 117.244Z" fill="#787777"/>
<path d="M144.083 91C144.083 60.8453 121.155 37.9167 91 37.9167V22.75C128.693 22.75 159.25 53.3066 159.25 91H144.083Z" fill="#AA0136"/>
</svg>
