<svg width="25" height="24" viewBox="0 0 25 24" fill="none" xmlns="http://www.w3.org/2000/svg">
<path d="M14.332 5C14.332 3.9 13.432 3 12.332 3C11.232 3 10.332 3.9 10.332 5C10.332 6.1 11.232 7 12.332 7C13.432 7 14.332 6.1 14.332 5Z" stroke="#787777" stroke-width="1.5"/>
<path d="M14.332 19C14.332 17.9 13.432 17 12.332 17C11.232 17 10.332 17.9 10.332 19C10.332 20.1 11.232 21 12.332 21C13.432 21 14.332 20.1 14.332 19Z" stroke="#787777" stroke-width="1.5"/>
<path d="M14.332 12C14.332 10.9 13.432 10 12.332 10C11.232 10 10.332 10.9 10.332 12C10.332 13.1 11.232 14 12.332 14C13.432 14 14.332 13.1 14.332 12Z" stroke="#787777" stroke-width="1.5"/>
</svg>
