<svg width="44" height="44" viewBox="0 0 44 44" fill="none" xmlns="http://www.w3.org/2000/svg">
<rect width="44" height="44" rx="22" fill="#AA0136"/>
<path d="M22.0026 15.333C18.3206 15.333 15.3359 18.3177 15.3359 21.9997C15.3359 25.327 17.7739 28.085 20.9613 28.5857V23.9263H19.2679V21.9997H20.9613V20.531C20.9613 18.8603 21.9559 17.9377 23.4793 17.9377C24.2086 17.9377 24.9713 18.0677 24.9713 18.0677V19.7077H24.1313C23.3026 19.7077 23.0446 20.2217 23.0446 20.749V21.9997H24.8933L24.5979 23.9263H23.0446V28.5857C26.2313 28.0857 28.6693 25.3263 28.6693 21.9997C28.6693 18.3177 25.6846 15.333 22.0026 15.333Z" fill="white"/>
</svg>
