<svg width="44" height="44" viewBox="0 0 44 44" fill="none" xmlns="http://www.w3.org/2000/svg">
<rect width="44" height="44" rx="22" fill="#AA0136"/>
<path d="M28.7762 17.7706C28.2672 17.9957 27.7275 18.1436 27.1748 18.2093C27.7573 17.8609 28.1933 17.3126 28.4015 16.6666C27.8548 16.992 27.2555 17.22 26.6308 17.3433C26.2112 16.8943 25.6551 16.5966 25.0488 16.4963C24.4425 16.3961 23.8201 16.4989 23.2783 16.7889C22.7366 17.0789 22.3058 17.5397 22.0529 18.0998C21.8001 18.6599 21.7393 19.2878 21.8802 19.886C20.7716 19.8304 19.6871 19.5423 18.697 19.0404C17.707 18.5385 16.8336 17.834 16.1335 16.9726C15.8857 17.3983 15.7555 17.8821 15.7562 18.3746C15.7562 19.3413 16.2482 20.1953 16.9962 20.6953C16.5535 20.6813 16.1206 20.5618 15.7335 20.3466V20.3813C15.7336 21.0251 15.9564 21.649 16.3641 22.1473C16.7717 22.6456 17.3392 22.9876 17.9702 23.1153C17.5592 23.2266 17.1284 23.2431 16.7102 23.1633C16.8881 23.7174 17.2348 24.2021 17.7019 24.5494C18.169 24.8966 18.7329 25.0891 19.3148 25.1C18.7365 25.5542 18.0743 25.8899 17.3661 26.0881C16.6579 26.2862 15.9176 26.3428 15.1875 26.2546C16.462 27.0742 17.9456 27.5094 19.4608 27.5079C24.5895 27.5079 27.3942 23.2593 27.3942 19.5746C27.3942 19.4546 27.3908 19.3333 27.3855 19.2146C27.9314 18.8201 28.4026 18.3313 28.7768 17.7713L28.7762 17.7706Z" fill="white"/>
</svg>
