<svg width="32" height="31" viewBox="0 0 32 31" fill="none" xmlns="http://www.w3.org/2000/svg">
<path fill-rule="evenodd" clip-rule="evenodd" d="M27.8964 10.2032V20.7315C27.8964 24.6324 25.4552 27.3836 21.5543 27.3836H10.3814C6.48058 27.3836 4.05225 24.6324 4.05225 20.7315V10.2032C4.05225 6.30233 6.4935 3.55237 10.3814 3.55237H21.5543C25.4552 3.55237 27.8964 6.30233 27.8964 10.2032Z" stroke="#8C2D27" stroke-width="2" stroke-linecap="round" stroke-linejoin="round"/>
<path d="M7.32202 21.2232L9.29569 19.1398C9.98156 18.4126 11.1247 18.3777 11.8532 19.0623C11.8751 19.0842 13.0635 20.2919 13.0635 20.2919C13.7804 21.0217 14.9519 21.0334 15.6817 20.3178C15.7295 20.2713 18.6964 16.6727 18.6964 16.6727C19.4611 15.744 20.8341 15.6109 21.7641 16.3769C21.8261 16.4286 24.6291 19.3051 24.6291 19.3051" stroke="#8C2D27" stroke-width="2" stroke-linecap="round" stroke-linejoin="round"/>
<path fill-rule="evenodd" clip-rule="evenodd" d="M13.8207 11.797C13.8207 13.0486 12.8068 14.0625 11.5551 14.0625C10.3035 14.0625 9.28955 13.0486 9.28955 11.797C9.28955 10.5453 10.3035 9.53137 11.5551 9.53137C12.8068 9.53266 13.8207 10.5453 13.8207 11.797Z" stroke="#8C2D27" stroke-width="2" stroke-linecap="round" stroke-linejoin="round"/>
</svg>
