<svg width="218" height="264" viewBox="0 0 218 264" fill="none" xmlns="http://www.w3.org/2000/svg">
<path d="M90.1857 262.032L2.40511 211.355C0.148168 210.051 0.148168 207.937 2.40511 206.627L119.986 138.744C122.243 137.44 125.908 137.44 128.171 138.744L215.945 189.421C218.202 190.724 218.202 192.839 215.945 194.149L98.3639 262.032C96.107 263.336 92.4427 263.336 90.1857 262.032Z" fill="#E0E0E0"/>
<path d="M15.1361 209.928L18.2491 208.268L15.4149 207.587C14.8377 208.248 14.7988 209.039 15.1361 209.928Z" fill="#B82B58"/>
<path opacity="0.5" d="M15.1361 209.928L18.2491 208.268L15.4149 207.587C14.8377 208.248 14.7988 209.039 15.1361 209.928Z" fill="#181818"/>
<path d="M97.6053 251.461C95.8543 252.472 93.0201 252.472 91.2755 251.461L20.2014 210.427L126.595 149.996L129.079 148.556L200.147 188.597C201.891 189.609 201.891 191.25 200.147 192.255L97.6053 251.461Z" fill="#B82B58"/>
<path d="M70.9175 174.945L46.1301 189.213L30.0851 179.952L11.4199 190.737C11.4199 190.737 11.4199 201.562 11.4199 203.189C11.4199 204.817 13.2488 207.146 13.9103 206.763C13.9103 206.763 15.3696 207.061 17.4773 208.028C19.5851 208.994 22.6268 211.841 22.6268 211.841L79.5756 179.959L70.9175 174.945Z" fill="#B82B58"/>
<path opacity="0.15" d="M70.9175 174.945L46.1301 189.213L30.0851 179.952L11.4199 190.737C11.4199 190.737 11.4199 201.562 11.4199 203.189C11.4199 204.817 13.2488 207.146 13.9103 206.763C13.9103 206.763 15.3696 207.061 17.4773 208.028C19.5851 208.994 22.6268 211.841 22.6268 211.841L79.5756 179.959L70.9175 174.945Z" fill="#181818"/>
<path d="M21.6673 192.229V205.745C21.5895 205.693 21.5181 205.647 21.4468 205.609C20.688 205.174 19.5595 204.662 18.4116 204.662C17.6268 204.662 16.9459 204.72 16.4141 205.135V189.194L21.6673 192.229Z" fill="#37474F"/>
<path d="M25.1499 210.388C25.124 209.584 24.7803 208.793 24.2549 208.079C24.002 207.723 23.7037 207.392 23.3794 207.074C23.2821 206.977 23.1783 206.886 23.0811 206.789C22.9514 206.678 22.8216 206.568 22.6919 206.464C22.5817 206.38 22.4714 206.302 22.3677 206.218C22.1342 206.049 21.8942 205.894 21.6672 205.745V192.281L25.137 194.291V194.22L25.1499 210.388Z" fill="#E0E0E0"/>
<path opacity="0.4" d="M11.4264 203.183C11.4264 204.811 13.2553 207.139 13.9168 206.756L16.4072 205.135V194.855L13.9103 190.556L12.5484 190.076L11.4199 190.731C11.4264 190.724 11.4264 201.548 11.4264 203.183Z" fill="#181818"/>
<path d="M94.4403 234.242V249.671C93.675 249.671 92.9032 249.515 92.3325 249.171L84.537 244.677L25.1497 210.388L25.1367 194.233L94.4403 234.242Z" fill="#EBEBEB"/>
<path d="M198.37 176.294V187.942C198.37 189.285 197.416 190.925 196.262 191.6L104.331 244.677L96.548 249.171C95.9772 249.515 95.2055 249.671 94.4402 249.671V235.986L198.37 176.294Z" fill="#F5F5F5"/>
<path d="M126.595 129.949L20.2012 191.379C20.2012 191.379 20.2012 192.015 20.2012 192.806C20.2012 193.598 19.0922 193.889 17.7302 193.098C16.3553 192.307 15.2463 191.321 15.2463 189.953L15.1101 188.597L123.514 126.019L123.956 125.766C124.066 125.974 124.137 126.207 124.137 126.421V127.076C124.131 127.874 125.227 129.145 126.595 129.949Z" fill="#B82B58"/>
<path opacity="0.1" d="M126.595 129.949L20.2012 191.379C20.2012 191.379 20.2012 192.015 20.2012 192.806C20.2012 193.598 19.0922 193.889 17.7302 193.098C16.3553 192.307 15.2463 191.321 15.2463 189.953L15.1101 188.597L123.514 126.019L123.956 125.766C124.066 125.974 124.137 126.207 124.137 126.421V127.076C124.131 127.874 125.227 129.145 126.595 129.949Z" fill="#181818"/>
<path d="M91.2754 232.413L21.7773 192.287C20.8952 191.827 20.091 191.451 19.7473 191.632L20.2013 191.379L126.595 129.949C126.595 129.949 127.218 129.592 127.84 129.229C128.528 128.834 130.026 129.054 131.193 129.729L200.153 169.543C201.898 170.555 201.898 172.202 200.153 173.201L97.6117 232.413C95.8541 233.425 93.02 233.425 91.2754 232.413Z" fill="#B82B58"/>
<path d="M123.949 125.766L123.508 126.019L15.1101 188.597C15.1101 188.597 15.0387 188.429 14.8766 188.305C14.7793 188.247 14.6561 188.182 14.5134 188.098L13.7351 187.644C13.4433 187.475 13.1125 187.281 12.7753 187.086C12.3278 186.833 11.9127 186.879 11.5431 187.196C11.4977 187.222 11.4588 187.255 11.4198 187.307C11.2966 187.43 11.1864 187.585 11.0891 187.754C10.9788 187.936 10.8815 188.143 10.8102 188.364C10.7259 188.584 10.6546 188.824 10.5897 189.071C10.5313 189.337 10.4794 189.609 10.434 189.901C10.3951 190.056 10.3886 190.232 10.3757 190.4C10.3627 190.536 10.3497 190.653 10.3368 190.802C10.3108 191.107 10.2979 191.425 10.2979 191.749V188.701C10.2979 187.021 11.7247 184.836 13.4628 183.824L116.017 124.612C117.775 123.6 120.291 123.431 121.66 124.21L122.95 124.962L122.996 124.988C123.08 125.046 123.3 125.169 123.547 125.306C123.547 125.306 123.56 125.306 123.56 125.319C123.703 125.416 123.852 125.572 123.949 125.766Z" fill="#B82B58"/>
<path d="M91.2688 251.461L86.9819 248.977L22.6397 211.828C22.6137 211.024 22.2895 210.233 21.7641 209.526C21.0313 208.501 19.9352 207.626 18.9495 207.055C18.1971 206.614 17.0622 206.101 15.9143 206.101C15.136 206.101 14.455 206.348 13.9167 206.756C13.5017 206.199 12.7364 204.039 12.7364 201.432H10.2979C10.2979 204.798 11.4069 208.17 12.7688 208.949L14.001 209.668C14.695 210.071 15.2463 210.096 15.2463 209.714V209.059C15.2463 208.326 16.3553 208.365 17.7302 209.156C19.0921 209.947 20.2011 211.18 20.2011 211.912V212.574C20.2011 212.95 21.148 213.793 22.3089 214.461L84.5304 250.391L91.2688 254.275C91.2688 254.275 91.2817 254.275 91.2817 254.288C92.1573 254.775 93.2922 255.034 94.4402 255.034V252.219C93.2922 252.213 92.1508 251.973 91.2688 251.461Z" fill="#B82B58"/>
<path opacity="0.3" d="M91.2688 251.461L86.9819 248.977L22.6397 211.828C22.6137 211.024 22.2895 210.233 21.7641 209.526C21.0313 208.501 19.9352 207.626 18.9495 207.055C18.1971 206.614 17.0622 206.101 15.9143 206.101C15.136 206.101 14.455 206.348 13.9167 206.756C13.5017 206.199 12.7364 204.039 12.7364 201.432H10.2979C10.2979 204.798 11.4069 208.17 12.7688 208.949L14.001 209.668C14.695 210.071 15.2463 210.096 15.2463 209.714V209.059C15.2463 208.326 16.3553 208.365 17.7302 209.156C19.0921 209.947 20.2011 211.18 20.2011 211.912V212.574C20.2011 212.95 21.148 213.793 22.3089 214.461L84.5304 250.391L91.2688 254.275C91.2688 254.275 91.2817 254.275 91.2817 254.288C92.1573 254.775 93.2922 255.034 94.4402 255.034V252.219C93.2922 252.213 92.1508 251.973 91.2688 251.461Z" fill="#181818"/>
<path d="M91.2947 232.426C91.2947 232.426 91.2817 232.413 91.2688 232.413L86.9819 229.929L37.5497 201.406L21.7706 192.294C20.6486 191.632 19.7342 191.405 19.6758 191.743C19.6628 191.756 19.6629 191.769 19.6629 191.782V192.501C19.6629 193.293 18.5538 193.293 17.1919 192.501C15.8494 191.736 15.2657 190.783 15.2398 190.017V189.239C15.2398 188.837 15.0841 188.422 14.8766 188.312C14.7793 188.253 14.6431 188.176 14.5134 188.104C14.2929 187.981 14.027 187.825 13.7351 187.65C13.4433 187.482 13.1125 187.287 12.7753 187.093C12.3278 186.84 11.9127 186.885 11.5431 187.203C11.4977 187.229 11.4588 187.261 11.4198 187.313C11.3355 187.397 11.2642 187.495 11.1993 187.605C11.1474 187.657 11.128 187.702 11.0891 187.761C10.9788 187.942 10.8815 188.15 10.8102 188.37C10.7259 188.591 10.6546 188.831 10.5897 189.077C10.5313 189.343 10.4794 189.615 10.434 189.907C10.3951 190.063 10.3886 190.238 10.3757 190.407C10.3627 190.543 10.3497 190.66 10.3368 190.809C10.3108 191.114 10.2979 191.431 10.2979 191.756V201.432H12.7364V191.756C12.7364 191.503 12.7494 191.243 12.7623 191.003L12.8207 190.394C12.8207 190.368 12.8207 190.355 12.8337 190.335C13.0542 192.274 14.9025 194 16.5109 194.914C17.2308 195.342 18.3398 195.841 19.4877 195.841C20.3373 195.841 21.1091 195.537 21.6669 195.037L21.8874 195.16C22.0365 195.245 22.1662 195.329 22.3154 195.413L84.5369 231.343L91.2752 235.228C91.2752 235.228 91.2882 235.228 91.2882 235.241C91.3012 235.254 91.3142 235.254 91.3401 235.267C92.2027 235.74 93.3246 235.986 94.4466 235.986V233.172C93.182 233.172 92.1767 232.893 91.2947 232.426Z" fill="#B82B58"/>
<path opacity="0.3" d="M91.2947 232.426C91.2947 232.426 91.2817 232.413 91.2688 232.413L86.9819 229.929L37.5497 201.406L21.7706 192.294C20.6486 191.632 19.7342 191.405 19.6758 191.743C19.6628 191.756 19.6629 191.769 19.6629 191.782V192.501C19.6629 193.293 18.5538 193.293 17.1919 192.501C15.8494 191.736 15.2657 190.783 15.2398 190.017V189.239C15.2398 188.837 15.0841 188.422 14.8766 188.312C14.7793 188.253 14.6431 188.176 14.5134 188.104C14.2929 187.981 14.027 187.825 13.7351 187.65C13.4433 187.482 13.1125 187.287 12.7753 187.093C12.3278 186.84 11.9127 186.885 11.5431 187.203C11.4977 187.229 11.4588 187.261 11.4198 187.313C11.3355 187.397 11.2642 187.495 11.1993 187.605C11.1474 187.657 11.128 187.702 11.0891 187.761C10.9788 187.942 10.8815 188.15 10.8102 188.37C10.7259 188.591 10.6546 188.831 10.5897 189.077C10.5313 189.343 10.4794 189.615 10.434 189.907C10.3951 190.063 10.3886 190.238 10.3757 190.407C10.3627 190.543 10.3497 190.66 10.3368 190.809C10.3108 191.114 10.2979 191.431 10.2979 191.756V201.432H12.7364V191.756C12.7364 191.503 12.7494 191.243 12.7623 191.003L12.8207 190.394C12.8207 190.368 12.8207 190.355 12.8337 190.335C13.0542 192.274 14.9025 194 16.5109 194.914C17.2308 195.342 18.3398 195.841 19.4877 195.841C20.3373 195.841 21.1091 195.537 21.6669 195.037L21.8874 195.16C22.0365 195.245 22.1662 195.329 22.3154 195.413L84.5369 231.343L91.2752 235.228C91.2752 235.228 91.2882 235.228 91.2882 235.241C91.3012 235.254 91.3142 235.254 91.3401 235.267C92.2027 235.74 93.3246 235.986 94.4466 235.986V233.172C93.182 233.172 92.1767 232.893 91.2947 232.426Z" fill="#181818"/>
<path d="M201.45 171.339V174.199C201.45 174.854 201.035 175.503 200.199 176.002L200.147 176.028L104.331 231.343L97.6052 235.228V235.241C97.6052 235.241 97.5923 235.228 97.5923 235.241C96.7167 235.727 95.5818 235.986 94.4338 235.986V233.172C95.5818 233.172 96.7232 232.925 97.5987 232.413L101.873 229.942H101.886L200.14 173.201C201.081 172.662 201.45 172.027 201.45 171.339Z" fill="#B82B58"/>
<path opacity="0.2" d="M201.45 171.339V174.199C201.45 174.854 201.035 175.503 200.199 176.002L200.147 176.028L104.331 231.343L97.6052 235.228V235.241C97.6052 235.241 97.5923 235.228 97.5923 235.241C96.7167 235.727 95.5818 235.986 94.4338 235.986V233.172C95.5818 233.172 96.7232 232.925 97.5987 232.413L101.873 229.942H101.886L200.14 173.201C201.081 172.662 201.45 172.027 201.45 171.339Z" fill="#181818"/>
<path d="M201.45 190.381V193.241C201.45 193.896 201.035 194.544 200.199 195.044L200.147 195.07L104.331 250.384L97.6052 254.269V254.282C97.6052 254.282 97.5923 254.269 97.5923 254.282C96.7167 254.768 95.5818 255.028 94.4338 255.028V252.213C95.5818 252.213 96.7232 251.973 97.5987 251.461L101.873 248.99H101.886L200.14 192.248C201.081 191.704 201.45 191.075 201.45 190.381Z" fill="#B82B58"/>
<path opacity="0.2" d="M201.45 190.381V193.241C201.45 193.896 201.035 194.544 200.199 195.044L200.147 195.07L104.331 250.384L97.6052 254.269V254.282C97.6052 254.282 97.5923 254.269 97.5923 254.282C96.7167 254.768 95.5818 255.028 94.4338 255.028V252.213C95.5818 252.213 96.7232 251.973 97.5987 251.461L101.873 248.99H101.886L200.14 192.248C201.081 191.704 201.45 191.075 201.45 190.381Z" fill="#181818"/>
<path d="M15.1101 179.284L97.2808 226.09L206.567 163.375L124.403 116.563L15.1101 179.284Z" fill="#B82B58"/>
<path opacity="0.2" d="M15.1101 179.284L97.2808 226.09L206.567 163.375L124.403 116.563L15.1101 179.284Z" fill="white"/>
<path d="M98.0396 223.223L18.2036 177.507C19.8704 172.779 19.7471 167.253 17.8599 160.956L97.2872 206.283C97.2872 206.289 98.4935 210.284 98.0396 223.223Z" fill="#F5F5F5"/>
<path d="M94.0316 201.121C97.417 203.066 100.16 207.788 100.16 211.679V224.008C100.16 227.893 97.417 229.469 94.0316 227.529L15.1166 182.339L15.1101 179.284L93.182 223.761C95.212 224.929 96.8593 223.982 96.8593 221.647L96.8009 210.22C96.8009 207.885 95.1471 205.051 93.1172 203.883L15.1166 159.393V155.93L94.0316 201.121Z" fill="#B82B58"/>
<path opacity="0.4" d="M94.0316 201.121C97.417 203.066 100.16 207.788 100.16 211.679V224.008C100.16 227.893 97.417 229.469 94.0316 227.529L15.1166 182.339L15.1101 179.284L93.182 223.761C95.212 224.929 96.8593 223.982 96.8593 221.647L96.8009 210.22C96.8009 207.885 95.1471 205.051 93.1172 203.883L15.1166 159.393V155.93L94.0316 201.121Z" fill="white"/>
<path d="M15.1167 155.936L124.403 93.2156L203.312 138.4C206.697 140.339 209.44 145.073 209.44 148.958V161.293C209.434 163.233 208.759 164.595 207.644 165.237L98.3575 227.957C99.473 227.315 100.154 225.953 100.154 224.014L100.16 211.672C100.16 207.788 97.4171 203.06 94.0317 201.114L15.1167 155.936Z" fill="#B82B58"/>
<path opacity="0.85" d="M15.1167 155.936L124.403 93.2156L203.312 138.4C206.697 140.339 209.44 145.073 209.44 148.958V161.293C209.434 163.233 208.759 164.595 207.644 165.237L98.3575 227.957C99.473 227.315 100.154 225.953 100.154 224.014L100.16 211.672C100.16 207.788 97.4171 203.06 94.0317 201.114L15.1167 155.936Z" fill="white"/>
<path d="M98.3703 205.667C99.4793 207.58 100.167 209.733 100.167 211.673L100.16 224.014C100.154 225.947 99.4793 227.315 98.3638 227.958L207.65 165.237C208.766 164.595 209.447 163.233 209.447 161.294V148.958C209.447 147.013 208.759 144.866 207.65 142.953L98.3703 205.667Z" fill="#B82B58"/>
<path opacity="0.6" d="M98.3703 205.667C99.4793 207.58 100.167 209.733 100.167 211.673L100.16 224.014C100.154 225.947 99.4793 227.315 98.3638 227.958L207.65 165.237C208.766 164.595 209.447 163.233 209.447 161.294V148.958C209.447 147.013 208.759 144.866 207.65 142.953L98.3703 205.667Z" fill="white"/>
<path d="M193.239 151.131C195.224 159.763 195.198 167.221 193.239 173.551L188.161 176.482C190.12 170.152 190.146 162.694 188.161 154.062L193.239 151.131Z" fill="white"/>
<path d="M120.654 193.04C122.639 201.672 122.613 209.13 120.654 215.46L115.576 218.391C117.535 212.061 117.561 204.603 115.576 195.971L120.654 193.04Z" fill="white"/>
<path opacity="0.2" d="M73.343 183.746L39.3462 164.121C33.6844 160.852 33.6844 155.554 39.3462 152.285L118.222 106.744C123.884 103.476 133.068 103.476 138.729 106.744L172.726 126.369C178.388 129.638 178.388 134.937 172.726 138.205L93.85 183.746C88.1817 187.015 79.0048 187.015 73.343 183.746Z" fill="#B82B58"/>
<path d="M70.6064 161.073C72.0527 161.909 72.0527 163.265 70.6064 164.095C69.1602 164.932 66.8124 164.932 65.3662 164.095C63.9199 163.258 63.9199 161.903 65.3662 161.073C66.8124 160.236 69.1602 160.236 70.6064 161.073Z" fill="#181818"/>
<path d="M64.3413 162.214L71.1899 140.378L80.8079 145.936L71.5207 163.219L64.3413 162.214Z" fill="#181818"/>
<path d="M148.607 126.363C147.161 127.199 147.161 128.555 148.607 129.385C150.053 130.222 152.401 130.222 153.847 129.385C155.294 128.548 155.294 127.193 153.847 126.363C152.401 125.533 150.053 125.533 148.607 126.363Z" fill="#181818"/>
<path d="M154.872 127.504L148.023 105.668L138.405 111.226L147.692 128.516L154.872 127.504Z" fill="#181818"/>
<path d="M133.95 31.0072L138.353 23.3673C139.599 21.1428 142.407 20.3451 144.638 21.5838C146.862 22.829 147.66 25.6372 146.421 27.8682L141.966 35.6054C141.025 37.2462 138.47 37.5445 136.259 36.2734C134.04 35.0022 133.009 32.6415 133.95 31.0072Z" fill="#263238"/>
<path d="M155.786 41.7469L119.967 21.0778C111.685 16.3888 100.296 17.1087 87.721 24.3724C62.4083 38.9841 41.8948 74.5244 41.8948 103.748C41.8948 118.269 46.9664 128.496 55.164 133.322L90.9767 154.004L93.8887 146.338C97.9161 145.352 102.164 143.627 106.561 141.085C131.874 126.473 152.387 90.9326 152.387 61.7091C152.387 56.6699 151.765 52.169 150.63 48.2064L155.786 41.7469Z" fill="#B82B58"/>
<path opacity="0.1" d="M42.291 96.5945C42.0381 99.0071 41.8889 101.394 41.8889 103.741C41.8889 118.262 46.9605 128.49 55.1646 133.315L90.9773 153.997L93.8893 146.331C94.8427 146.098 95.809 145.819 96.7818 145.501L101.114 130.559L42.291 96.5945Z" fill="#181818"/>
<path d="M155.941 116.676C173.837 85.6794 173.836 52.1745 155.939 41.841C138.041 31.5074 109.024 48.2583 91.1275 79.2552C73.2309 110.252 73.2319 143.757 91.1296 154.09C109.027 164.424 138.044 147.673 155.941 116.676Z" fill="#B82B58"/>
<path opacity="0.3" d="M155.941 116.676C173.837 85.6794 173.836 52.1745 155.939 41.841C138.041 31.5074 109.024 48.2583 91.1275 79.2552C73.2309 110.252 73.2319 143.757 91.1296 154.09C109.027 164.424 138.044 147.673 155.941 116.676Z" fill="white"/>
<path d="M158.938 54.614C152.498 44.3345 140.033 42.7521 125.584 50.3855C101.678 63.0126 82.3451 96.5035 83.3568 123.522C83.6227 130.604 85.27 136.752 88.1236 141.305C94.5637 151.585 107.029 153.167 121.478 145.534C145.384 132.906 164.717 99.4155 163.705 72.3971C163.439 65.315 161.792 59.1668 158.938 54.614Z" fill="#B82B58"/>
<path d="M116.828 142.914C107.632 147.771 99.2394 148.88 92.6956 146.403C90.9575 145.047 89.4204 143.355 88.1363 141.299C85.2827 136.746 83.6354 130.598 83.3695 123.516C82.3513 96.5037 101.691 63.0128 125.596 50.3791C134.793 45.5215 143.185 44.4125 149.729 46.89C151.467 48.2454 153.004 49.9381 154.288 51.994C157.142 56.5468 158.789 62.695 159.055 69.7706C160.066 96.7955 140.727 130.286 116.828 142.914Z" fill="#FAFAFA"/>
<path d="M123.619 58.1809C123.619 59.718 122.542 61.5858 121.212 62.3511C119.883 63.1163 118.806 62.4937 118.806 60.9632C118.806 59.4261 119.883 57.5583 121.212 56.793C122.536 56.0213 123.619 56.6439 123.619 58.1809Z" fill="#455A64"/>
<path d="M154.448 78.2872C155.388 76.6588 155.389 74.8987 154.449 74.3561C153.509 73.8134 151.985 74.6937 151.044 76.3221C150.104 77.9506 150.104 79.7107 151.044 80.2533C151.984 80.7959 153.508 79.9157 154.448 78.2872Z" fill="#455A64"/>
<path d="M140.662 53.0056C140.662 53.6541 140.208 54.4453 139.644 54.7696C139.08 55.0939 138.626 54.828 138.626 54.1794C138.626 53.5309 139.08 52.7396 139.644 52.4154C140.208 52.0911 140.662 52.357 140.662 53.0056Z" fill="#455A64"/>
<path d="M152.076 61.8322C152.076 62.4808 151.622 63.272 151.058 63.5963C150.494 63.9205 150.04 63.6546 150.04 63.0061C150.04 62.3575 150.494 61.5663 151.058 61.242C151.622 60.9178 152.076 61.1837 152.076 61.8322Z" fill="#455A64"/>
<path d="M150.702 94.4282C150.702 95.0767 150.248 95.8679 149.683 96.1922C149.119 96.5165 148.665 96.2506 148.665 95.602C148.665 94.9535 149.119 94.1623 149.683 93.838C150.248 93.5137 150.702 93.7796 150.702 94.4282Z" fill="#455A64"/>
<path d="M139.3 115.947C139.3 116.595 138.846 117.387 138.282 117.711C137.718 118.035 137.264 117.769 137.264 117.121C137.264 116.472 137.718 115.681 138.282 115.357C138.846 115.039 139.3 115.298 139.3 115.947Z" fill="#455A64"/>
<path d="M93.9217 95.9846C93.9217 96.6331 93.4677 97.4243 92.9035 97.7486C92.3392 98.0729 91.8853 97.807 91.8853 97.1584C91.8853 96.5099 92.3392 95.7187 92.9035 95.3944C93.4677 95.0701 93.9217 95.336 93.9217 95.9846Z" fill="#455A64"/>
<path d="M104.843 75.0043C104.843 75.6529 104.389 76.4441 103.825 76.7684C103.26 77.0927 102.806 76.8267 102.806 76.1782C102.806 75.5297 103.26 74.7384 103.825 74.4142C104.389 74.0899 104.843 74.3558 104.843 75.0043Z" fill="#455A64"/>
<path d="M103.87 139.178C103.87 139.826 103.416 140.617 102.852 140.942C102.287 141.266 101.833 141 101.833 140.352C101.833 139.703 102.287 138.912 102.852 138.587C103.409 138.263 103.87 138.529 103.87 139.178Z" fill="#455A64"/>
<path d="M92.6761 128.522C92.6761 129.171 92.2221 129.962 91.6579 130.286C91.0936 130.611 90.6396 130.345 90.6396 129.696C90.6396 129.048 91.0936 128.256 91.6579 127.932C92.2221 127.614 92.6761 127.874 92.6761 128.522Z" fill="#455A64"/>
<path d="M92.2807 112.205C92.2807 113.742 91.2041 115.61 89.8746 116.375C88.5451 117.14 87.4685 116.518 87.4685 114.987C87.4685 113.45 88.5451 111.582 89.8746 110.817C91.2041 110.052 92.2807 110.674 92.2807 112.205Z" fill="#455A64"/>
<path d="M123.619 130.533C123.619 132.07 122.542 133.938 121.212 134.703C119.883 135.468 118.806 134.846 118.806 133.315C118.806 131.778 119.883 129.91 121.212 129.145C122.536 128.373 123.619 128.996 123.619 130.533Z" fill="#455A64"/>
<path d="M120.175 94.8691C120.901 93.611 122.081 92.93 122.808 93.3451C123.534 93.7666 123.534 95.1286 122.808 96.3867C122.081 97.6449 120.901 98.3259 120.175 97.9108C119.448 97.4893 119.448 96.1273 120.175 94.8691Z" fill="#455A64"/>
<path d="M122.963 89.8365L121.491 65.8922L121.037 65.6328L119.572 91.2698L121.037 95.0379L121.491 95.2973L122.963 89.8365Z" fill="#263238"/>
<path d="M120.019 91.5292L119.572 91.2698L121.037 65.6328L121.491 65.8922L120.019 91.5292Z" fill="#37474F"/>
<path d="M121.491 95.2971L122.963 89.8364L121.491 65.8921L120.019 91.5291L121.491 95.2971Z" fill="#455A64"/>
<path d="M120.927 95.5632L116.796 100.259L108.014 117.925L108.468 118.184L119.377 101.744L121.374 95.8226L120.927 95.5632Z" fill="#263238"/>
<path d="M116.796 100.259L117.25 100.518L108.468 118.185L108.014 117.925L116.796 100.259Z" fill="#37474F"/>
<path d="M108.468 118.185L119.377 101.744L121.374 95.8228L117.25 100.518L108.468 118.185Z" fill="#455A64"/>
<path d="M124.597 92.9173L123.287 92.1585C123.287 92.1585 123.287 92.1585 123.281 92.1585L123.274 92.152C122.788 91.8796 122.126 91.9185 121.394 92.3465C119.915 93.2026 118.715 95.278 118.715 96.9836C118.715 97.8332 119.013 98.4299 119.487 98.7088L119.493 98.7153C119.493 98.7153 119.493 98.7153 119.5 98.7153L120.81 99.4741L120.979 99.0266C121.212 98.9682 121.458 98.8709 121.718 98.7217C123.197 97.8657 124.396 95.7968 124.396 94.0846C124.396 93.7928 124.357 93.5269 124.293 93.2934L124.597 92.9173Z" fill="#37474F"/>
<path d="M118.741 96.5684C118.728 96.711 118.715 96.8472 118.715 96.9834C118.715 97.833 119.013 98.4297 119.487 98.7086L119.493 98.7151C119.493 98.7151 119.493 98.7151 119.5 98.7151L120.81 99.4739L120.979 99.0264C121.037 99.0134 121.089 98.9939 121.147 98.9809L121.4 98.1054L118.741 96.5684Z" fill="#263238"/>
<path d="M124.608 97.2977C125.652 95.4893 125.651 93.5341 124.605 92.9305C123.56 92.327 121.866 93.3037 120.822 95.1121C119.778 96.9205 119.779 98.8757 120.824 99.4793C121.87 100.083 123.564 99.1061 124.608 97.2977Z" fill="#455A64"/>
<path d="M122.423 95.8557L122.4 96.1921L144.161 97.6556L144.183 97.3191L122.423 95.8557Z" fill="#B82B58"/>
<path d="M121.504 98.6502C121.16 98.4492 120.946 98.0276 120.946 97.4245C120.946 96.2182 121.796 94.746 122.84 94.1429C123.365 93.838 123.839 93.8121 124.183 94.0131C125.467 94.7525 125.901 96.3933 125.162 97.6709C124.422 98.9486 122.788 99.3896 121.504 98.6502Z" fill="#B82B58"/>
<path opacity="0.3" d="M122.574 95.1351C122.535 95.2259 122.509 95.3296 122.548 95.4204C122.574 95.4788 122.626 95.5242 122.678 95.5631C123.002 95.7707 123.411 95.6669 123.774 95.6799C124.17 95.6993 124.526 95.7836 124.89 95.9522C125.227 96.1144 125.253 95.7707 125.175 95.5307C124.993 94.9729 124.494 94.4411 123.884 94.3957C123.385 94.3503 122.788 94.6616 122.574 95.1351Z" fill="white"/>
<path opacity="0.2" d="M125.168 97.671C125.227 97.5672 125.279 97.4569 125.324 97.3467C124.909 97.6775 124.422 97.9109 123.897 97.9369C123.093 97.9693 122.308 97.4569 121.984 96.7241C121.705 96.0885 121.77 95.3232 122.127 94.7266C121.439 95.4529 120.959 96.5101 120.959 97.4245C120.959 98.0277 121.173 98.4557 121.517 98.6503C122.788 99.3896 124.422 98.9486 125.168 97.671Z" fill="#181818"/>
<path d="M110.161 23.7369C110.161 23.2764 109.856 22.816 109.247 22.4658C108.034 21.7653 106.062 21.7653 104.843 22.4658C104.233 22.816 103.928 23.2764 103.928 23.7369C103.928 23.9509 103.928 35.4561 103.928 35.6766C103.928 36.1371 104.233 36.5976 104.843 36.9478C106.056 37.6482 108.027 37.6482 109.247 36.9478C109.856 36.5976 110.161 36.1371 110.161 35.6766C110.161 35.4626 110.161 23.9574 110.161 23.7369Z" fill="#455A64"/>
<path d="M109.247 22.4658C108.034 21.7653 106.062 21.7653 104.843 22.4658C104.233 22.816 103.928 23.2764 103.928 23.7369C103.928 23.8472 103.928 26.9602 103.928 29.9824C105.932 30.4169 108.151 30.4169 110.155 29.9824C110.155 26.9602 110.155 23.8472 110.155 23.7369C110.161 23.2764 109.856 22.816 109.247 22.4658Z" fill="#263238"/>
<path d="M104.843 25.0081C104.233 24.6578 103.928 24.1974 103.928 23.7369C103.928 23.2764 104.233 22.816 104.843 22.4658C106.056 21.7653 108.027 21.7653 109.247 22.4658C109.856 22.816 110.161 23.2764 110.161 23.7369C110.161 24.1974 109.856 24.6578 109.247 25.0081C108.034 25.715 106.062 25.715 104.843 25.0081Z" fill="#37474F"/>
<path d="M115.94 18.8597C115.94 17.5432 115.071 16.2331 113.339 15.2279C109.869 13.2239 104.24 13.2239 100.77 15.2279C99.032 16.2331 98.1694 17.5432 98.1694 18.8597C98.1694 19.4758 98.1694 22.751 98.1694 23.3671C98.1694 24.6837 99.0385 25.9937 100.77 26.999C104.24 29.003 109.869 29.003 113.339 26.999C115.077 25.9937 115.94 24.6837 115.94 23.3671C115.94 22.751 115.94 19.4758 115.94 18.8597Z" fill="#37474F"/>
<path d="M100.764 22.4916C99.0256 21.4863 98.1631 20.1763 98.1631 18.8597C98.1631 17.5432 99.0321 16.2331 100.764 15.2279C104.233 13.2239 109.863 13.2239 113.333 15.2279C115.071 16.2331 115.933 17.5432 115.933 18.8597C115.933 20.1763 115.064 21.4863 113.333 22.4916C109.863 24.4956 104.24 24.4956 100.764 22.4916Z" fill="#455A64"/>
<path opacity="0.2" d="M101.153 22.6862V27.1806C101.399 27.3039 101.665 27.4271 101.924 27.5373V23.0429C101.665 22.9327 101.399 22.8224 101.153 22.6862ZM103.877 23.6461V28.1599C104.123 28.2053 104.389 28.2507 104.648 28.2832V23.7887C104.389 23.7563 104.123 23.7044 103.877 23.6461ZM98.9866 21V25.4944C99.2006 25.7733 99.4665 26.0392 99.7583 26.2856V21.7912C99.447 21.5383 99.1876 21.2789 98.9866 21ZM112.081 23.0883V27.5827C112.36 27.4725 112.606 27.3493 112.852 27.226V22.7316C112.606 22.8743 112.34 22.9781 112.081 23.0883ZM114.247 21.8691V26.3635C114.539 26.117 114.805 25.8706 115.019 25.6047V21.1362C114.798 21.4021 114.539 21.6485 114.247 21.8691ZM109.357 23.8017V28.2961C109.623 28.2637 109.882 28.2183 110.129 28.1729V23.659C109.863 23.7239 109.616 23.7693 109.357 23.8017ZM106.659 23.9703V28.4842H107.431V23.9703C107.171 24.0028 106.925 24.0028 106.659 23.9703Z" fill="#181818"/>
<path d="M80.2695 80.8218C73.1744 93.1247 59.8079 98.7022 49.736 92.9042C37.4266 85.8156 33.2045 70.0884 40.2932 57.779C47.3882 45.4761 63.1544 41.1762 75.4184 48.3361C85.4514 54.212 87.3581 68.5189 80.2695 80.8218Z" fill="#455A64"/>
<path opacity="0.1" d="M54.9958 57.2601C56.2929 58.3951 58.1802 59.3679 59.6459 60.2823C61.8574 61.6702 63.2324 63.5705 64.7824 65.6717C66.6502 68.2076 68.2002 71.3725 71.1835 72.3777C74.2187 73.4024 77.7144 71.5216 79.206 68.6875C80.6977 65.8533 80.8404 61.7351 79.7443 58.7193C76.6248 50.1002 65.5088 45.1777 56.8896 49.2895C54.1527 50.5995 52.5443 55.1199 54.9958 57.2601Z" fill="white"/>
<path d="M49.7296 92.9106C59.8015 98.7086 73.1745 93.1311 80.2631 80.8282C81.9169 77.9552 83.0649 74.9719 83.7523 72.0145C83.3437 72.5463 71.5337 87.6509 56.8247 83.4224C41.8498 79.1226 39.0092 67.5914 40.2868 57.7854C33.1982 70.0883 37.4202 85.822 49.7296 92.9106Z" fill="#37474F"/>
<path d="M45.54 55.2757L41.8108 53.1096C39.6187 51.806 36.7911 52.5259 35.4875 54.7115C34.1839 56.9036 34.9038 59.7312 37.0959 61.0348L40.9223 63.2593C42.5566 64.2062 44.9109 63.1815 46.1885 60.9764C47.4597 58.7714 47.1743 56.2226 45.54 55.2757Z" fill="#B82B58"/>
<path opacity="0.2" d="M36.7587 54.1536C36.6874 54.238 36.629 54.3288 36.5836 54.426C36.2723 55.2173 37.2775 55.6258 37.8742 55.6712C39.4372 55.7945 40.9678 55.6129 42.5243 55.9177C43.1793 56.0474 43.8343 56.229 44.5023 56.1836C44.859 56.1577 44.9693 55.8593 44.7423 55.5934C44.6515 55.4832 44.5283 55.4053 44.4051 55.334C43.1274 54.5428 41.8563 53.7321 40.4295 53.2522C39.3075 52.8695 37.7121 53.2068 36.8625 54.0434C36.8236 54.0758 36.7911 54.1147 36.7587 54.1536Z" fill="white"/>
<path opacity="0.2" d="M46.1886 60.9762C46.8566 59.8283 47.0836 58.5896 46.928 57.526C46.8242 58.0642 46.6491 58.5896 46.3702 59.0695C45.7671 60.1137 44.71 60.9179 43.5101 61.0605C42.0574 61.2356 40.9419 60.4639 39.7032 59.8737C38.6331 59.3678 37.5954 58.8295 36.7718 57.941C35.8897 56.9877 35.345 55.6127 35.7081 54.374C35.6303 54.4843 35.5525 54.5945 35.4812 54.7113C34.1776 56.9034 34.8975 59.731 37.0895 61.0346L40.916 63.2591C42.5503 64.206 44.911 63.1813 46.1886 60.9762Z" fill="#181818"/>
<path d="M146.058 10.0072L150.462 2.3673C151.707 0.142792 154.515 -0.654919 156.746 0.583803C158.971 1.82901 159.768 4.63721 158.53 6.86821L154.074 14.6054C153.134 16.2462 150.578 16.5445 148.367 15.2734C146.149 14.0022 145.118 11.6415 146.058 10.0072Z" fill="#B82B58"/>
<path opacity="0.2" d="M155.313 1.78359C155.384 2.02355 155.546 2.2246 155.721 2.4062C156.091 2.78884 156.506 3.1196 156.876 3.50224C157.278 3.91731 157.511 4.33238 157.712 4.87067C157.777 5.03929 157.978 5.31817 158.205 5.24034C158.296 5.20791 158.342 5.11063 158.374 5.01983C158.607 4.31941 158.361 3.55412 158.037 2.89909C157.706 2.23757 157.265 1.58903 156.629 1.19342C156.35 1.01831 156.098 0.888599 155.76 0.97291C155.378 1.05722 155.203 1.40744 155.313 1.78359Z" fill="white"/>
<path opacity="0.2" d="M157.68 7.71138C157.356 7.28334 156.993 6.88125 156.584 6.53103C156.338 6.31701 156.085 6.12245 155.825 5.93437C155.183 5.46742 154.509 5.04586 153.912 4.52703C153.056 3.78768 152.57 2.67867 153.075 1.56966C153.348 0.966511 153.841 0.635753 154.45 0.447675C154.995 0.279053 155.572 0.24014 156.137 0.304995C154.029 -0.499202 151.597 0.337422 150.462 2.36737L148.847 5.16909C148.918 5.36365 149.009 5.54524 149.139 5.66198C149.852 6.28458 150.695 6.82288 151.48 7.36765C152.81 8.28859 154.133 9.26141 155.657 9.78673C155.91 9.87104 156.195 9.90995 156.441 10.0202C156.526 10.0591 156.591 10.098 156.655 10.1175L157.862 8.02269C157.816 7.91892 157.758 7.81515 157.68 7.71138Z" fill="#181818"/>
<path d="M163.426 40.7872C170.528 28.4649 166.299 12.7247 153.983 5.62308C141.661 -1.47849 125.921 2.75002 118.819 15.0659L163.426 40.7872Z" fill="#455A64"/>
<path opacity="0.1" d="M147.283 12.3289C147.147 13.5676 147.822 14.7479 148.574 15.7402C150.364 18.1009 152.712 19.9687 154.774 22.096C157.349 24.7485 159.502 27.8226 161.117 31.1497C161.428 31.7917 161.882 32.544 162.596 32.5116C163.335 32.4727 163.705 31.6036 163.86 30.8838C164.788 26.545 164.262 21.9014 162.382 17.8804C160.864 14.6377 158.283 10.8307 154.93 9.35853C150.15 7.26373 147.627 9.20288 147.283 12.3289Z" fill="white"/>
<path d="M149.729 3.6774C139.644 3.5412 135.532 7.38708 133.21 13.2305C129.74 21.9404 154.8 35.8128 154.8 35.8128L118.812 15.0659C125.123 4.12489 138.243 -0.414926 149.729 3.6774Z" fill="#37474F"/>
<path d="M26.5632 88.079C26.4854 87.8975 26.4011 87.7159 26.3168 87.5278C26.1546 87.197 25.9925 86.8728 25.8239 86.5485C25.7007 86.3085 25.5774 86.0686 25.4542 85.8286C24.8705 84.6547 24.3841 83.4938 24.0144 82.3848C23.6318 81.2434 23.34 80.0825 23.1389 78.9216C23.0546 78.4287 22.9962 77.9228 22.9443 77.4364L22.9184 77.2029C22.8989 77.0408 22.886 76.8787 22.873 76.71C22.8406 76.2755 22.8081 75.8215 22.672 75.4C22.5682 75.0563 22.1401 74.8293 21.8418 74.8617C21.55 74.8682 21.3295 75.0433 21.2581 75.3092C20.9274 76.5739 21.1738 78.085 21.3684 79.3042L21.3878 79.4275C21.5954 80.7181 21.9196 81.9957 22.3542 83.2279C22.7822 84.4407 23.2816 85.5303 23.8847 86.5679C24.222 87.1387 24.5592 87.638 24.9159 88.0855C25.2143 88.4552 25.5645 88.7924 25.9017 89.1232C26.1092 89.3307 26.3233 89.5318 26.5178 89.7393C26.6021 89.8301 26.7059 89.869 26.8032 89.869C26.8875 89.869 26.9653 89.8431 27.0302 89.7912C27.2183 89.642 27.2312 89.3437 27.1145 89.1816C26.8875 88.8184 26.7318 88.4552 26.5632 88.079ZM35.7077 90.0377C35.4678 89.2918 35.0657 88.5849 34.67 87.9039C34.5274 87.6575 34.3847 87.411 34.255 87.1646C33.8594 86.4317 33.3989 85.5562 32.9838 84.6547C32.1926 82.962 31.5505 81.2499 31.0641 79.5636C30.02 75.9448 29.8189 72.1767 29.7022 68.6292C29.6892 68.2141 29.2936 67.9612 28.9239 67.9352C28.5348 67.9093 28.2365 68.1233 28.1846 68.467C27.6268 71.82 27.9835 75.7567 29.2352 80.1733C29.7606 82.0281 30.4286 83.7922 31.2198 85.4135C31.6867 86.3734 32.1602 87.223 32.6531 87.9947C33.12 88.7211 33.8464 89.7782 34.7608 90.55C34.8711 90.6408 35.0332 90.6992 35.2019 90.6992C35.3121 90.6992 35.4288 90.6732 35.5261 90.6084C35.7077 90.4852 35.7791 90.2646 35.7077 90.0377Z" fill="#E0E0E0"/>
<path d="M177.765 60.4704C177.642 59.4392 177.519 58.5053 177.376 57.6233C177.305 57.1499 177.22 56.6764 177.143 56.1965C177.078 55.8204 176.974 55.4637 176.877 55.1134L176.766 54.7308C176.682 54.413 176.306 54.2379 176.027 54.2898C175.768 54.3352 175.599 54.5492 175.619 54.8151C175.696 55.9695 175.846 57.1369 175.988 58.2654C176.066 58.8945 176.144 59.5236 176.215 60.1591C176.397 61.8064 176.539 63.5056 176.65 65.1918C176.864 68.4929 176.909 71.8524 176.786 75.1794C176.539 81.7816 175.651 88.4033 174.133 94.8563C173.582 97.1911 172.895 99.5388 172.227 101.802C171.831 103.151 171.429 104.5 171.059 105.862C170.981 106.141 171.182 106.426 171.409 106.511C171.461 106.53 171.513 106.537 171.559 106.537C171.721 106.537 171.87 106.439 171.941 106.277C173.478 102.944 174.49 99.3897 175.275 96.3545C176.124 93.0728 176.812 89.7069 177.318 86.3409C178.31 79.7387 178.628 72.9355 178.258 66.1322C178.148 64.1801 177.979 62.2799 177.765 60.4704ZM185.191 70.8472C185.165 69.6149 185.126 68.4021 185.061 67.2348C185.048 67.0272 185.042 66.8197 185.035 66.6122C184.99 65.581 184.951 64.5174 184.653 63.5186C184.562 63.2203 184.218 63.0516 183.946 63.0776C183.686 63.097 183.505 63.2721 183.472 63.5251C183.362 64.4136 183.414 65.3086 183.466 66.1841C183.479 66.4046 183.492 66.6251 183.498 66.8391C183.55 67.9417 183.583 69.0377 183.615 70.1402C183.673 72.3064 183.667 74.4725 183.602 76.5738C183.459 81.172 183.031 85.5821 182.337 89.6874C182.098 91.0947 181.786 92.5151 181.481 93.8835C181.254 94.9147 181.014 95.9848 180.813 97.0419C180.762 97.3273 181.001 97.6256 181.261 97.7034C181.306 97.7164 181.352 97.7229 181.391 97.7229C181.566 97.7229 181.721 97.6191 181.793 97.444C182.642 95.2908 183.135 93.008 183.609 90.6537C184.024 88.5784 184.367 86.3928 184.633 84.1553C185.107 80.1343 185.288 75.7761 185.191 70.8472Z" fill="#E0E0E0"/>
<path d="M174.522 21.7264C174.334 20.345 174.042 18.9636 173.647 17.6211C172.875 14.9945 171.682 12.4651 170.086 10.1044C169.34 8.9954 168.309 7.58158 166.941 6.43365C166.636 6.18072 166.214 6.25206 165.981 6.47256C165.748 6.69307 165.722 7.02383 165.923 7.29622C166.234 7.71128 166.558 8.11987 166.876 8.52197C167.421 9.20943 167.979 9.91634 168.478 10.6492C169.198 11.6934 169.859 12.8283 170.45 14.0151C171.682 16.4926 172.544 19.0868 173.005 21.7328C173.115 22.3684 173.219 23.0559 173.316 23.8471C173.342 24.0676 173.368 24.2946 173.387 24.5151C173.433 25.0015 173.485 25.5009 173.595 26.0003C173.647 26.2402 173.906 26.4543 174.153 26.4543C174.36 26.4543 174.522 26.3181 174.574 26.104C174.749 25.3388 174.717 24.5281 174.697 23.873C174.678 23.1402 174.613 22.4398 174.522 21.7264ZM179.211 16.2851C178.997 15.202 178.654 14.0541 178.18 12.8802C177.733 11.7647 177.201 10.7141 176.598 9.7542C176.299 9.27428 175.969 8.80084 175.625 8.34037L175.528 8.21715C175.177 7.75668 174.788 7.23785 174.276 6.88763C174.016 6.71252 173.666 6.7255 173.439 6.92006C173.232 7.09517 173.18 7.37404 173.303 7.63346C173.485 8.00962 173.751 8.33389 174.004 8.65168C174.12 8.79436 174.237 8.93704 174.341 9.07972C174.672 9.5337 174.989 10.0136 175.281 10.5C175.871 11.4728 176.364 12.4781 176.766 13.4833C177.136 14.4237 177.447 15.4549 177.72 16.6353C177.823 17.0957 177.908 17.5562 177.992 18.0232C178.115 18.6976 178.239 19.3981 178.433 20.0726C178.498 20.2931 178.705 20.4617 178.92 20.4617C179.108 20.4617 179.27 20.332 179.328 20.1374C179.678 18.9441 179.451 17.5238 179.211 16.2851Z" fill="#E0E0E0"/>
</svg>
