<svg width="40" height="40" viewBox="0 0 40 40" fill="none" xmlns="http://www.w3.org/2000/svg">
<path d="M28.3359 3.33398H11.6693C7.0669 3.33398 3.33594 7.06494 3.33594 11.6673V28.334C3.33594 32.9364 7.0669 36.6673 11.6693 36.6673H28.3359C32.9383 36.6673 36.6693 32.9364 36.6693 28.334V11.6673C36.6693 7.06494 32.9383 3.33398 28.3359 3.33398Z" stroke="white" stroke-width="2" stroke-linecap="round" stroke-linejoin="round"/>
<path d="M26.6675 18.9505C26.8732 20.3376 26.6362 21.7542 25.9904 22.9989C25.3446 24.2435 24.3227 25.2529 23.0702 25.8833C21.8177 26.5137 20.3982 26.7332 19.0138 26.5104C17.6294 26.2876 16.3504 25.634 15.3589 24.6424C14.3673 23.6509 13.7137 22.372 13.4909 20.9875C13.2682 19.6031 13.4876 18.1837 14.118 16.9311C14.7485 15.6786 15.7578 14.6567 17.0025 14.0109C18.2471 13.3651 19.6637 13.1281 21.0508 13.3338C22.4657 13.5436 23.7756 14.2029 24.787 15.2143C25.7984 16.2258 26.4577 17.5356 26.6675 18.9505Z" stroke="white" stroke-width="2" stroke-linecap="round" stroke-linejoin="round"/>
<path d="M29.1641 10.834H29.1807" stroke="white" stroke-width="2" stroke-linecap="round" stroke-linejoin="round"/>
</svg>
